<?xml version="1.0" encoding="UTF-8"?>
<svg xmlns="http://www.w3.org/2000/svg" xmlns:xlink="http://www.w3.org/1999/xlink" version="1.2" >
<font id="MFProtocolHarel-Light">
<font-face  font-family="MFProtocolHarel" units-per-em="1000" ascent="800" descent="-321" font-style="normal" font-weight="300" font-stretch="normal" cap-height="680" x-height="459" underline-position="-175" underline-thickness="50" />
<missing-glyph  d="M0 700 L500 700 L500 0 L0 0 L0 700 Z M420 650 L80 650 L250 395 L420 650 Z M450 95 L450 605 L280 350 L450 95 Z M420 50 L250 305 L80 50 L420 50 Z M50 95 L220 350 L50 605 L50 95 Z " />
<glyph glyph-name="space" unicode="&#x20;" horiz-adv-x="250" d="" />
<glyph glyph-name="exclam" unicode="&#x21;" horiz-adv-x="216" d="M128 207 L83 207 L70 608 L141 608 L128 207 Z M65 0 L65 85 L146 85 L146 0 L65 0 Z " />
<glyph glyph-name="quotedbl" unicode="&#x22;" horiz-adv-x="319" d="M232 404 L192 404 L235 607 L294 607 L232 404 Z M82 404 L42 404 L85 607 L144 607 L82 404 Z " />
<glyph glyph-name="numbersign" unicode="&#x23;" horiz-adv-x="556" d="M409 385 L386 231 L484 231 L484 193 L380 193 L351 0 L306 0 L335 193 L186 193 L157 0 L112 0 L141 193 L44 193 L44 231 L147 231 L170 385 L72 385 L72 423 L176 423 L205 616 L250 616 L221 423 L370 423 L399 616 L444 616 L415 423 L513 423 L513 385 L409 385 Z M215 385 L192 231 L341 231 L364 385 L215 385 Z " />
<glyph glyph-name="dollar" unicode="&#x24;" horiz-adv-x="384" d="M321 138 Q321 81 288 44.5 Q255 8 192 -3 L192 -78 L180 -78 L180 -5 L156 -5 Q102 -5 61 11 L65 48 Q84 38 106 34 Q128 30 154 30 L180 30 L180 244 L146 261 Q104 283 79 311.5 Q54 340 54 389 Q54 440 87 474 Q120 508 180 518 L180 593 L192 593 L192 519 Q225 518 249 515 Q273 512 295 505 L290 469 Q255 484 215 484 L192 484 L192 290 L242 261 Q281 238 301 211.5 Q321 185 321 138 Z M180 485 Q137 468 118.5 447 Q100 426 100 391 Q100 359 122.5 338 Q145 317 180 294 L180 485 Z M274 133 Q274 171 253.5 193 Q233 215 192 238 L192 33 Q237 47 255.5 74.5 Q274 102 274 133 Z " />
<glyph glyph-name="percent" unicode="&#x25;" horiz-adv-x="701" d="M623 128 Q623 58 599 21.5 Q575 -15 530 -15 Q485 -15 460 20 Q435 55 435 127 Q435 199 460 235 Q485 271 530 271 Q575 271 599 235.5 Q623 200 623 128 Z M228 -22 L192 -22 L495 527 L531 527 L228 -22 Z M295 404 Q295 334 270.5 297 Q246 260 201 260 Q156 260 131.5 295.5 Q107 331 107 403 Q107 475 131.5 511 Q156 547 201 547 Q246 547 270.5 511.5 Q295 476 295 404 Z M586 131 Q586 176 572.5 202.5 Q559 229 530 229 Q501 229 486.5 202.5 Q472 176 472 128 Q472 83 485.5 55.5 Q499 28 528 28 Q557 28 571.5 55.5 Q586 83 586 131 Z M257 407 Q257 452 243.5 478.5 Q230 505 201 505 Q172 505 157.5 478 Q143 451 143 403 Q143 358 157 331 Q171 304 200 304 Q229 304 243 331.5 Q257 359 257 407 Z " />
<glyph glyph-name="ampersand" unicode="&#x26;" horiz-adv-x="680" d="M675 90 Q675 61 625 19 Q587 -13 540 -13 Q464 -13 387 70 Q286 -13 187 -13 Q118 -13 78 24 Q38 61 38 130 Q38 200 96 257 Q111 272 143 296 Q158 307 176 318 Q194 329 214 340 Q182 438 182 468 Q182 526 221 567 Q259 608 320 608 Q372 608 407 579 Q443 550 443 500 Q443 443 398 403 Q369 377 302 346 Q327 295 356.5 250 Q386 205 421 160 Q504 264 504 324 Q504 348 486 357 Q472 362 446 365 L446 383 L641 383 L641 365 Q609 360 596 353 Q572 339 556 311 L534 274 Q529 264 522.5 254 Q516 244 509 233 Q502 222 494 210.5 Q486 199 478 187 L443 135 Q459 103 500 78 Q541 52 576 52 Q606 52 626 64 Q630 67 633.5 70 Q637 73 641 77 L662 101 L675 90 Z M394 504 Q394 536 375 558 Q356 580 324 580 Q254 580 254 502 Q254 450 290 374 Q394 433 394 504 Z M364 94 Q348 113 332 135.5 Q316 158 299 184 Q264 238 227 310 L205 294 L185 279 Q172 268 154 249 Q121 211 121 162 Q121 110 154 74 Q189 36 238 36 Q297 36 364 94 Z " />
<glyph glyph-name="quotesingle" unicode="&#x27;" horiz-adv-x="169" d="M82 404 L42 404 L85 607 L144 607 L82 404 Z " />
<glyph glyph-name="parenleft" unicode="&#x28;" horiz-adv-x="331" d="M199 -149 Q169 -102 143 -54 Q117 -6 98.5 44.5 Q80 95 69 148 Q58 201 58 258 Q58 315 69 368 Q80 421 98.5 471 Q117 521 143 569 Q169 617 199 665 L246 665 Q222 618 198.5 569.5 Q175 521 157 470 Q139 419 128 366 Q117 313 117 258 Q117 203 127.5 149.5 Q138 96 155.5 45 Q173 -6 196.5 -54.5 Q220 -103 246 -149 L199 -149 Z " />
<glyph glyph-name="parenright" unicode="&#x29;" horiz-adv-x="331" d="M273 258 Q273 201 262 148 Q251 95 232 44.5 Q213 -6 187 -54 Q161 -102 131 -149 L85 -149 Q110 -103 133 -54.5 Q156 -6 174 45 Q192 96 202.5 149 Q213 202 213 258 Q213 313 202 366 Q191 419 173 470 Q155 521 131.5 569.5 Q108 618 84 665 L131 665 Q161 617 187 569 Q213 521 232 471 Q251 421 262 368 Q273 315 273 258 Z " />
<glyph glyph-name="asterisk" unicode="&#x2a;" horiz-adv-x="484" d="M250 464 L350 338 L312 311 L236 453 L159 311 L122 338 L225 464 L75 498 L89 545 L230 481 L215 644 L261 644 L247 481 L383 545 L397 498 L250 464 Z " />
<glyph glyph-name="plus" unicode="&#x2b;" horiz-adv-x="424" d="M236 245 L236 129 L188 129 L188 245 L69 245 L69 293 L188 293 L188 415 L236 415 L236 293 L355 293 L355 245 L236 245 Z " />
<glyph glyph-name="comma" unicode="&#x2c;" horiz-adv-x="190" d="M59 -106 L19 -106 L62 97 L121 97 L59 -106 Z " />
<glyph glyph-name="hyphen" unicode="&#x2d;" horiz-adv-x="414" d="M69 245 L69 293 L345 293 L345 245 L69 245 Z " />
<glyph glyph-name="period" unicode="&#x2e;" horiz-adv-x="190" d="M36 0 L36 86 L117 86 L117 0 L36 0 Z " />
<glyph glyph-name="slash" unicode="&#x2f;" horiz-adv-x="298" d="M73 -14 L18 -14 L211 594 L266 594 L73 -14 Z " />
<glyph glyph-name="zero" unicode="0" horiz-adv-x="469" d="M418 268 Q418 136 371.5 64.5 Q325 -7 235 -7 Q144 -7 97 63.5 Q50 134 50 266 Q50 398 97 470 Q144 542 235 542 Q326 542 372 471 Q418 400 418 268 Z M357 273 Q357 385 326 441 Q295 497 237 497 Q177 497 143.5 438 Q110 379 110 264 Q110 152 142.5 94.5 Q175 37 233 37 Q293 37 325 95 Q357 153 357 273 Z " />
<glyph glyph-name="one" unicode="1" horiz-adv-x="469" d="M215 0 L215 483 L108 430 L108 478 L235 539 L278 539 L278 0 L215 0 Z " />
<glyph glyph-name="two" unicode="2" horiz-adv-x="469" d="M61 0 L70 38 Q87 90 112.5 123.5 Q138 157 176 190 L233 235 Q251 250 271.5 266 Q292 282 309.5 300.5 Q327 319 338 341.5 Q349 364 349 392 Q349 440 320 468 Q291 496 249 496 Q216 496 194.5 481.5 Q173 467 159 445 Q148 428 141.5 410 Q135 392 130 373 L72 387 Q80 416 87 432.5 Q94 449 102 463 Q123 499 162 520 Q201 541 250 541 Q287 541 316.5 530 Q346 519 367 498.5 Q388 478 399 450.5 Q410 423 410 390 Q410 358 400 333.5 Q390 309 371 287 Q361 276 350.5 266.5 Q340 257 328 246 Q315 236 302 226 Q289 216 275 206 Q227 171 190 134 Q153 97 124 48 L411 48 L411 0 L61 0 Z " />
<glyph glyph-name="three" unicode="3" horiz-adv-x="469" d="M414 149 Q414 115 401.5 86.5 Q389 58 366 37 Q343 16 310.5 4.5 Q278 -7 239 -7 Q182 -7 139.5 16 Q97 39 56 95 L103 125 Q138 75 169.5 56 Q201 37 240 37 Q289 37 321.5 65 Q354 93 354 144 Q354 260 209 260 L183 260 L183 305 L210 305 Q273 305 306 329.5 Q339 354 339 405 Q339 450 311.5 473.5 Q284 497 239 497 Q207 497 180.5 482 Q154 467 123 428 L78 459 Q113 502 153.5 522 Q194 542 242 542 Q278 542 307 532 Q336 522 356.5 504 Q377 486 388.5 461.5 Q400 437 400 409 Q400 372 381 339 Q362 306 308 284 Q338 275 358.5 261 Q379 247 391.5 229 Q404 211 409 190.5 Q414 170 414 149 Z " />
<glyph glyph-name="four" unicode="4" horiz-adv-x="469" d="M340 133 L340 0 L277 0 L277 133 L40 133 L40 173 L251 541 L340 541 L340 179 L428 179 L428 133 L340 133 Z M277 488 L98 179 L277 179 L277 488 Z " />
<glyph glyph-name="five" unicode="5" horiz-adv-x="469" d="M410 183 Q410 141 397 106 Q384 71 360.5 46.5 Q337 22 303 8 Q269 -6 227 -6 Q121 -6 65 92 L114 118 Q142 73 168.5 55 Q195 37 233 37 Q285 37 317.5 76 Q350 115 350 185 Q350 248 319.5 281 Q289 314 240 314 Q208 314 179 295 Q150 276 132 241 L79 252 L99 535 L373 535 L373 488 L153 488 L141 323 Q171 345 197.5 351.5 Q224 358 247 358 Q284 358 314.5 345 Q345 332 366 308.5 Q387 285 398.5 253 Q410 221 410 183 Z " />
<glyph glyph-name="six" unicode="6" horiz-adv-x="469" d="M414 172 Q414 134 401 101 Q388 68 365 44 Q342 20 309 6.5 Q276 -7 237 -7 Q194 -7 160.5 9 Q127 25 103.5 55 Q80 85 67.5 127 Q55 169 55 222 Q55 297 70 356 Q85 415 113.5 456.5 Q142 498 184 520 Q226 542 280 542 Q307 542 332.5 535 Q358 528 399 508 L371 467 Q339 484 319.5 490.5 Q300 497 280 497 Q240 497 212 478.5 Q184 460 165 430 Q146 400 134 360.5 Q122 321 114 279 Q137 297 155 308.5 Q173 320 188.5 326.5 Q204 333 218.5 335.5 Q233 338 248 338 Q285 338 315.5 325.5 Q346 313 368 290.5 Q390 268 402 238 Q414 208 414 172 Z M354 174 Q354 231 323 263 Q292 295 243 295 Q220 295 200.5 286 Q181 277 164.5 263 Q148 249 135 232 Q122 215 113 198 Q119 117 151.5 77 Q184 37 238 37 Q289 37 321.5 73.5 Q354 110 354 174 Z " />
<glyph glyph-name="seven" unicode="7" horiz-adv-x="469" d="M186 0 L117 0 L332 488 L68 488 L68 535 L401 535 L401 504 L186 0 Z " />
<glyph glyph-name="eight" unicode="8" horiz-adv-x="469" d="M422 141 Q422 109 408.5 81.5 Q395 54 370.5 34.5 Q346 15 311.5 4 Q277 -7 234 -7 Q146 -7 96 33.5 Q46 74 46 140 Q46 181 73.5 215 Q101 249 170 284 Q140 302 120 318 Q100 334 88 349 Q76 364 71.5 380 Q67 396 67 414 Q67 441 79.5 464.5 Q92 488 114.5 505 Q137 522 168.5 532 Q200 542 238 542 Q275 542 305 532 Q335 522 357 505 Q379 488 391 465 Q403 442 403 415 Q403 396 398 380 Q393 364 381 348.5 Q369 333 348 317.5 Q327 302 296 284 Q332 266 356.5 249 Q381 232 395.5 215 Q410 198 416 180 Q422 162 422 141 Z M343 409 Q343 451 313.5 474 Q284 497 236 497 Q190 497 158.5 473.5 Q127 450 127 411 Q127 385 138.5 368.5 Q150 352 167 341 L201 321 L240 305 Q298 328 320.5 351 Q343 374 343 409 Z M363 138 Q363 197 303 228 Q288 236 272.5 242.5 Q257 249 224 263 Q160 237 133 209 Q106 181 106 139 Q106 91 143 64 Q180 37 237 37 Q291 37 327 63.5 Q363 90 363 138 Z " />
<glyph glyph-name="nine" unicode="9" horiz-adv-x="469" d="M414 312 Q414 237 399 178 Q384 119 355.5 78 Q327 37 285 15 Q243 -7 188 -7 Q174 -7 161.5 -5.5 Q149 -4 135.5 -0.5 Q122 3 106.5 10 Q91 17 70 28 L99 69 Q131 49 149.5 43 Q168 37 188 37 Q229 37 257 55.5 Q285 74 304 104 Q323 134 334.5 173.5 Q346 213 354 255 Q332 237 314 226 Q296 215 280 209 Q264 203 249.5 200.5 Q235 198 220 198 Q183 198 152.5 210.5 Q122 223 100.5 245.5 Q79 268 67 298 Q55 328 55 364 Q55 401 68 433.5 Q81 466 104 490 Q127 514 160 528 Q193 542 232 542 Q275 542 308.5 525.5 Q342 509 365.5 479 Q389 449 401.5 406.5 Q414 364 414 312 Z M355 339 Q349 420 317 458.5 Q285 497 231 497 Q180 497 147 461.5 Q114 426 114 360 Q114 303 145.5 272.5 Q177 242 226 242 Q249 242 268.5 251 Q288 260 304.5 274 Q321 288 333.5 305 Q346 322 355 339 Z " />
<glyph glyph-name="colon" unicode="&#x3a;" horiz-adv-x="190" d="M36 426 L36 512 L117 512 L117 426 L36 426 Z M36 0 L36 86 L117 86 L117 0 L36 0 Z " />
<glyph glyph-name="semicolon" unicode="&#x3b;" horiz-adv-x="190" d="M94 427 L94 512 L175 512 L175 427 L94 427 Z M100 -106 L60 -106 L103 75 L162 75 L100 -106 Z " />
<glyph glyph-name="less" unicode="&#x3c;" horiz-adv-x="430" d="M13 230 L13 278 L417 469 L417 424 L57 254 L417 84 L417 40 L13 230 Z " />
<glyph glyph-name="equal" unicode="&#x3d;" horiz-adv-x="384" d="M69 295 L69 347 L315 347 L315 295 L69 295 Z M69 181 L69 233 L315 233 L315 181 L69 181 Z " />
<glyph glyph-name="greater" unicode="&#x3e;" horiz-adv-x="600" d="M98 40 L98 84 L458 254 L98 424 L98 469 L502 278 L502 230 L98 40 Z " />
<glyph glyph-name="question" unicode="&#x3f;" horiz-adv-x="449" d="M346 452 Q346 430 340.5 412 Q335 394 326 377 Q316 359 303 342.5 Q290 326 277 310 Q268 299 259.5 288 Q251 277 244 265 Q227 239 227 204 L227 196 L168 196 L168 207 Q168 240 176 260 Q184 280 195 297 Q201 306 208 314 Q215 322 223 331 Q238 349 255 375 Q265 391 271 408.5 Q277 426 277 446 Q277 468 269 484.5 Q261 501 247.5 511.5 Q234 522 216.5 527 Q199 532 181 532 Q149 532 125 526 Q101 520 76 504 L71 566 Q100 579 129 584.5 Q158 590 190 590 Q220 590 248 581 Q276 572 298 554.5 Q320 537 333 511 Q346 485 346 452 Z M158 0 L158 85 L239 85 L239 0 L158 0 Z " />
<glyph glyph-name="at" unicode="&#x40;" horiz-adv-x="1013" d="M624 134 Q603 134 582.5 151.5 Q562 169 559 197 Q541 176 525 164.5 Q509 153 493 147.5 Q477 142 461.5 141 Q446 140 430 140 Q400 140 376 152.5 Q352 165 335 185.5 Q318 206 309 232 Q300 258 300 285 Q300 331 315.5 378.5 Q331 426 359 464.5 Q387 503 425.5 527 Q464 551 509 551 Q532 551 552 542.5 Q572 534 588 520.5 Q604 507 614 491 Q624 475 627 459 L653 534 L686 534 L608 252 Q597 211 608 191 Q619 171 640 171 Q655 171 680 180 Q705 189 728 214.5 Q751 240 768 287 Q785 334 785 411 Q785 473 764.5 522 Q744 571 709 605.5 Q674 640 625.5 658.5 Q577 677 522 677 Q450 677 390.5 652.5 Q331 628 289 583 Q247 538 223.5 474.5 Q200 411 200 333 Q200 257 227 199 Q254 141 298 101.5 Q342 62 398 42 Q454 22 513 22 Q596 22 657.5 46.5 Q719 71 759 128 L792 128 Q772 89 740.5 61 Q709 33 669 15 Q629 -3 583.5 -11.5 Q538 -20 491 -20 Q426 -20 365 5.5 Q304 31 257 77.5 Q210 124 181 188 Q152 252 152 330 Q152 425 181.5 497.5 Q211 570 261 619 Q311 668 378.5 693 Q446 718 522 718 Q584 718 640 697 Q696 676 738 637.5 Q780 599 804.5 544 Q829 489 829 421 Q829 351 813 297.5 Q797 244 769 207.5 Q741 171 704 152.5 Q667 134 624 134 Z M511 508 Q477 508 447.5 487.5 Q418 467 396.5 435.5 Q375 404 362.5 366 Q350 328 350 294 Q350 273 355.5 252.5 Q361 232 373 216 Q385 200 403 190.5 Q421 181 446 181 Q491 181 527 208 Q563 235 583 295 L599 345 Q609 378 606 408 Q603 438 590.5 460 Q578 482 557 495 Q536 508 511 508 Z " />
<glyph glyph-name="A" unicode="A" horiz-adv-x="648" d="M542 0 L469 218 L173 218 L105 0 L34 0 L277 700 L371 700 L614 0 L542 0 Z M322 644 L188 264 L460 264 L322 644 Z " />
<glyph glyph-name="B" unicode="B" horiz-adv-x="647" d="M89 0 L89 700 L365 700 Q400 700 432.5 687.5 Q465 675 489.5 653.5 Q514 632 529 604 Q544 576 544 545 Q544 491 521 448 Q498 405 447 382 Q483 373 508 353 Q533 333 549 307 Q565 281 572.5 251.5 Q580 222 580 192 Q580 155 564.5 120.5 Q549 86 522.5 59 Q496 32 461.5 16 Q427 0 390 0 L89 0 Z M346 653 L152 653 L152 396 L347 396 Q373 396 396.5 407 Q420 418 438 436.5 Q456 455 466.5 479.5 Q477 504 477 531 Q477 554 468.5 576 Q460 598 443.5 615 Q427 632 402.5 642.5 Q378 653 346 653 Z M358 349 L152 349 L152 48 L357 48 Q384 48 412 56.5 Q440 65 462.5 83 Q485 101 499 128.5 Q513 156 513 195 Q513 268 470.5 308.5 Q428 349 358 349 Z " />
<glyph glyph-name="C" unicode="C" horiz-adv-x="653" d="M418 -15 Q340 -15 274.5 10.5 Q209 36 161.5 83.5 Q114 131 87 198.5 Q60 266 60 349 Q60 431 87 498 Q114 565 161.5 612 Q209 659 274.5 685 Q340 711 418 711 Q467 711 504.5 704 Q542 697 587 679 L583 626 Q549 646 513 655 Q477 664 423 664 Q358 664 303.5 640 Q249 616 210 574 Q171 532 149 474 Q127 416 127 349 Q127 281 149 223.5 Q171 166 210 123 Q249 80 303.5 56 Q358 32 423 32 Q477 32 513 41 Q549 50 583 70 L587 16 Q504 -15 418 -15 Z " />
<glyph glyph-name="D" unicode="D" horiz-adv-x="701" d="M89 0 L89 700 L362 700 Q428 700 480 673 Q532 646 568 599.5 Q604 553 623 489 Q642 425 642 352 Q642 276 623.5 211.5 Q605 147 569.5 100 Q534 53 483.5 26.5 Q433 0 370 0 L89 0 Z M152 653 L152 48 L341 48 Q398 48 442 69 Q486 90 515.5 129.5 Q545 169 560 225 Q575 281 575 350 Q575 503 515 578 Q455 653 343 653 L152 653 Z " />
<glyph glyph-name="E" unicode="E" horiz-adv-x="624" d="M89 0 L89 700 L540 700 L540 653 L152 653 L152 387 L517 387 L517 340 L152 340 L152 48 L557 48 L557 0 L89 0 Z " />
<glyph glyph-name="F" unicode="F" horiz-adv-x="575" d="M152 653 L152 387 L481 387 L481 340 L152 340 L152 0 L89 0 L89 700 L530 700 L530 653 L152 653 Z " />
<glyph glyph-name="G" unicode="G" horiz-adv-x="679" d="M411 -15 Q330 -15 264.5 11 Q199 37 152 85 Q105 133 79.5 200.5 Q54 268 54 352 Q54 433 81 499 Q108 565 155.5 612.5 Q203 660 268.5 685.5 Q334 711 412 711 Q466 711 511 703.5 Q556 696 601 679 L596 626 Q561 646 520 655 Q479 664 417 664 Q351 664 297 640 Q243 616 204 574 Q165 532 143.5 474 Q122 416 122 349 Q122 278 145 219.5 Q168 161 207.5 119 Q247 77 300 54 Q353 31 412 31 Q435 31 453 31.5 Q471 32 486.5 34.5 Q502 37 516.5 40.5 Q531 44 547 50 L547 314 L397 314 L397 361 L610 361 L610 12 Q580 3 531.5 -6 Q483 -15 411 -15 Z " />
<glyph glyph-name="H" unicode="H" horiz-adv-x="694" d="M543 0 L543 340 L152 340 L152 0 L89 0 L89 700 L152 700 L152 387 L543 387 L543 700 L606 700 L606 0 L543 0 Z M89 0 L89 700 L152 700 L152 0 L89 0 Z " />
<glyph glyph-name="I" unicode="I" horiz-adv-x="254" d="M96 0 L96 700 L159 700 L159 0 L96 0 Z " />
<glyph glyph-name="J" unicode="J" horiz-adv-x="483" d="M218 -15 Q196 -15 171.5 -11.5 Q147 -8 123 -2.5 Q99 3 76.5 11 Q54 19 36 28 L39 74 Q57 64 78 56 Q99 48 121 43 Q143 38 164.5 35 Q186 32 203 32 Q282 32 313.5 72 Q345 112 345 187 L345 700 L408 700 L408 189 Q408 85 364.5 35 Q321 -15 218 -15 Z " />
<glyph glyph-name="K" unicode="K" horiz-adv-x="646" d="M527 0 L282 383 L152 247 L152 0 L89 0 L89 700 L152 700 L152 318 L511 700 L586 700 L325 428 L608 0 L527 0 Z " />
<glyph glyph-name="L" unicode="L" horiz-adv-x="537" d="M89 0 L89 700 L152 700 L152 48 L498 48 L498 0 L89 0 Z " />
<glyph glyph-name="M" unicode="M" horiz-adv-x="803" d="M652 0 L652 647 L448 0 L370 0 L152 648 L152 0 L89 0 L89 700 L208 700 L410 56 L605 700 L715 700 L715 0 L652 0 Z " />
<glyph glyph-name="N" unicode="N" horiz-adv-x="693" d="M542 61 L542 700 L605 700 L605 0 L513 0 L152 640 L152 0 L89 0 L89 700 L181 700 L542 61 Z " />
<glyph glyph-name="O" unicode="O" horiz-adv-x="721" d="M360 -15 Q288 -15 231 12 Q174 39 135 87.5 Q96 136 75 203.5 Q54 271 54 353 Q54 435 75 501.5 Q96 568 136 615.5 Q176 663 233 689 Q290 715 361 715 Q432 715 489 689 Q546 663 585.5 615.5 Q625 568 646.5 501.5 Q668 435 668 353 Q668 271 647 203.5 Q626 136 586 87.5 Q546 39 489 12 Q432 -15 360 -15 Z M361 668 Q245 668 183 591 Q121 514 121 353 Q121 192 182 112 Q243 32 361 32 Q479 32 540 112.5 Q601 193 601 353 Q601 514 539 591 Q477 668 361 668 Z " />
<glyph glyph-name="P" unicode="P" horiz-adv-x="612" d="M152 310 L152 0 L89 0 L89 700 L361 700 Q406 700 442 684.5 Q478 669 503.5 642.5 Q529 616 543 581 Q557 546 557 507 Q557 466 543 430.5 Q529 395 503.5 368 Q478 341 441.5 325.5 Q405 310 361 310 L152 310 Z M152 653 L152 357 L372 357 Q398 357 420 369 Q442 381 458.5 401.5 Q475 422 484.5 449 Q494 476 494 507 Q494 537 485.5 563.5 Q477 590 461 610 Q445 630 422.5 641.5 Q400 653 372 653 L152 653 Z " />
<glyph glyph-name="Q" unicode="Q" horiz-adv-x="730" d="M638 -65 L537 40 Q495 11 452 -2 Q409 -15 360 -15 Q288 -15 231 11.5 Q174 38 135 86.5 Q96 135 75 202.5 Q54 270 54 352 Q54 434 75 501 Q96 568 136 615.5 Q176 663 233 689 Q290 715 361 715 Q432 715 489 689 Q546 663 585.5 615.5 Q625 568 646.5 501 Q668 434 668 352 Q668 269 647 200.5 Q626 132 573 73 L673 -30 L638 -65 Z M361 668 Q245 668 183 590.5 Q121 513 121 352 Q121 192 182 112 Q243 32 361 32 Q394 32 429 39 Q464 46 502 75 L426 154 L461 190 L538 111 Q576 163 588.5 222 Q601 281 601 352 Q601 513 539 590.5 Q477 668 361 668 Z " />
<glyph glyph-name="R" unicode="R" horiz-adv-x="649" d="M511 0 Q503 12 501.5 32 Q500 52 500 67 L500 186 Q500 208 493 230.5 Q486 253 471.5 271 Q457 289 434 300.5 Q411 312 380 312 L152 312 L152 0 L89 0 L89 700 L401 700 Q438 700 469 687 Q500 674 522 651 Q544 628 556 595.5 Q568 563 568 524 Q568 492 560 461.5 Q552 431 536 405 Q520 379 496.5 360.5 Q473 342 442 336 Q473 331 496 315.5 Q519 300 534 278.5 Q549 257 556 232.5 Q563 208 563 185 L563 75 Q563 51 566 32.5 Q569 14 574 0 L511 0 Z M152 653 L152 361 L387 361 Q415 361 437 373 Q459 385 474 405.5 Q489 426 497 453 Q505 480 505 510 Q505 539 496 565 Q487 591 471.5 610.5 Q456 630 434 641.5 Q412 653 387 653 L152 653 Z " />
<glyph glyph-name="S" unicode="S" horiz-adv-x="608" d="M298 -15 Q242 -15 192 -8 Q142 -1 89 17 L93 70 Q141 42 192.5 37 Q244 32 298 32 Q333 32 366 38 Q399 44 424 59.5 Q449 75 464 101.5 Q479 128 479 169 Q479 213 460.5 242.5 Q442 272 412.5 290.5 Q383 309 346.5 320.5 Q310 332 275 340 Q235 349 197.5 365 Q160 381 130.5 405.5 Q101 430 83.5 464 Q66 498 66 545 Q66 590 87 622 Q108 654 140.5 675 Q173 696 213 705.5 Q253 715 292 715 Q345 715 388 707.5 Q431 700 481 683 L476 629 Q433 652 386.5 659.5 Q340 667 292 667 Q263 667 234 661 Q205 655 182 641 Q159 627 144.5 603.5 Q130 580 130 546 Q130 504 146 476 Q162 448 188.5 430 Q215 412 248 401 Q281 390 314 381 Q356 370 397.5 354.5 Q439 339 471 315 Q503 291 523 256 Q543 221 543 170 Q543 115 522.5 79.5 Q502 44 467.5 23 Q433 2 389 -6.5 Q345 -15 298 -15 Z " />
<glyph glyph-name="T" unicode="T" horiz-adv-x="590" d="M327 653 L327 0 L264 0 L264 653 L35 653 L35 700 L555 700 L555 653 L327 653 Z " />
<glyph glyph-name="U" unicode="U" horiz-adv-x="675" d="M337 -15 Q293 -15 248 1 Q203 17 167 47.5 Q131 78 108.5 124 Q86 170 86 230 L86 700 L149 700 L149 235 Q149 186 164.5 148.5 Q180 111 206.5 85 Q233 59 267 45.5 Q301 32 337 32 Q376 32 410.5 45.5 Q445 59 471 85.5 Q497 112 512 149.5 Q527 187 527 235 L527 700 L590 700 L590 230 Q590 170 568 124 Q546 78 510.5 47.5 Q475 17 429.5 1 Q384 -15 337 -15 Z " />
<glyph glyph-name="V" unicode="V" horiz-adv-x="611" d="M349 0 L261 0 L32 700 L104 700 L306 52 Q361 235 411 393.5 Q461 552 506 700 L579 700 L349 0 Z " />
<glyph glyph-name="W" unicode="W" horiz-adv-x="881" d="M683 0 L601 0 L440 615 L279 0 L197 0 L30 700 L105 700 L237 81 L401 700 L479 700 L644 81 L775 700 L851 700 L683 0 Z " />
<glyph glyph-name="X" unicode="X" horiz-adv-x="589" d="M469 0 L294 304 L121 0 L39 0 L259 356 L51 700 L124 700 L294 411 Q342 497 384.5 564.5 Q427 632 466 700 L538 700 L330 356 L550 0 L469 0 Z " />
<glyph glyph-name="Y" unicode="Y" horiz-adv-x="614" d="M336 285 L336 0 L273 0 L273 285 L33 700 L111 700 L305 333 L497 700 L576 700 L336 285 Z " />
<glyph glyph-name="Z" unicode="Z" horiz-adv-x="599" d="M40 0 L40 61 L489 653 L70 653 L70 700 L548 700 L548 628 L109 48 L548 48 L548 0 L40 0 Z " />
<glyph glyph-name="bracketleft" unicode="&#x5b;" horiz-adv-x="286" d="M70 -194 L70 690 L216 690 L216 662 L115 662 L115 -166 L216 -166 L216 -194 L70 -194 Z " />
<glyph glyph-name="backslash" unicode="&#x5c;" horiz-adv-x="275" d="M274 -16 L227 -16 L-1 696 L46 696 L274 -16 Z " />
<glyph glyph-name="bracketright" unicode="&#x5d;" horiz-adv-x="286" d="M70 -194 L70 -166 L171 -166 L171 662 L70 662 L70 690 L216 690 L216 -194 L70 -194 Z " />
<glyph glyph-name="asciicircum" unicode="&#x5e;" horiz-adv-x="600" d="M263 698 L343 698 L539 300 L458 300 L303 623 L148 300 L67 300 L263 698 Z " />
<glyph glyph-name="underscore" unicode="&#x5f;" horiz-adv-x="503" d="M503 -142 L503 -212 L0 -212 L0 -142 L503 -142 Z " />
<glyph glyph-name="grave" unicode="&#x60;" horiz-adv-x="278" d="M131 916 L214 739 L186 739 L45 916 L131 916 Z " />
<glyph glyph-name="a" unicode="a" horiz-adv-x="542" d="M386 1 L386 71 Q363 33 321 9 Q279 -15 221 -15 Q147 -15 100.5 22.5 Q54 60 54 140 Q54 185 74.5 215.5 Q95 246 126.5 265.5 Q158 285 196.5 293.5 Q235 302 271 302 Q285 302 297 302 Q309 302 322 302 Q335 302 350.5 301 Q366 300 386 299 Q386 388 355 432.5 Q324 477 245 477 Q210 477 175 466.5 Q140 456 111 436 L108 481 Q140 501 178 513 Q216 525 260 525 Q363 525 406.5 474 Q450 423 450 317 L450 90 Q450 57 450 36 Q450 15 451 1 L386 1 Z M386 259 Q359 259 342.5 260 Q326 261 311 261 Q290 261 257.5 257 Q225 253 195 240.5 Q165 228 143 204 Q121 180 121 140 Q121 113 129.5 93 Q138 73 153 59.5 Q168 46 187.5 39.5 Q207 33 229 33 Q267 33 296.5 45.5 Q326 58 346 80 Q366 102 376 131.5 Q386 161 386 194 L386 259 Z " />
<glyph glyph-name="b" unicode="b" horiz-adv-x="611" d="M346 -15 Q304 -15 274.5 -8.5 Q245 -2 223 9 Q201 20 186 36 Q171 52 159 70 L159 0 L96 0 L96 700 L159 700 L159 438 Q193 481 237.5 503 Q282 525 345 525 Q396 525 435 503 Q474 481 500 444.5 Q526 408 539.5 360 Q553 312 553 260 Q553 206 540.5 156.5 Q528 107 502.5 69 Q477 31 438 8 Q399 -15 346 -15 Z M325 479 Q282 479 250.5 457.5 Q219 436 199 402.5 Q179 369 169 328.5 Q159 288 159 250 Q159 216 168 177.5 Q177 139 196.5 107 Q216 75 247.5 53.5 Q279 32 324 32 Q367 32 397 53 Q427 74 446.5 106 Q466 138 475 177.5 Q484 217 484 253 Q484 293 475 333.5 Q466 374 447 406.5 Q428 439 398 459 Q368 479 325 479 Z " />
<glyph glyph-name="c" unicode="c" horiz-adv-x="496" d="M299 -11 Q247 -11 203.5 10.5 Q160 32 128 68 Q96 104 78 151.5 Q60 199 60 252 Q60 310 79.5 359 Q99 408 132 444 Q165 480 207.5 500 Q250 520 297 520 Q319 520 337 518.5 Q355 517 371 514 Q387 511 402.5 506.5 Q418 502 435 496 L430 441 Q399 458 371.5 465 Q344 472 304 472 Q271 472 239 457 Q207 442 182 414 Q157 386 141.5 345.5 Q126 305 126 254 Q126 206 140.5 166 Q155 126 179.5 97.5 Q204 69 235.5 53 Q267 37 301 37 Q343 37 372.5 43.5 Q402 50 431 67 L435 13 Q401 0 367.5 -5.5 Q334 -11 299 -11 Z " />
<glyph glyph-name="d" unicode="d" horiz-adv-x="611" d="M266 -15 Q213 -15 174 8 Q135 31 109.5 69 Q84 107 71.5 156.5 Q59 206 59 260 Q59 312 72.5 360 Q86 408 112 444.5 Q138 481 177 503 Q216 525 267 525 Q330 525 374.5 503 Q419 481 453 438 L453 700 L516 700 L516 0 L453 0 L453 70 Q441 52 426 36 Q411 20 389 9 Q367 -2 337.5 -8.5 Q308 -15 266 -15 Z M287 479 Q244 479 214 459 Q184 439 165 406.5 Q146 374 137 333.5 Q128 293 128 253 Q128 217 137 177.5 Q146 138 165.5 106 Q185 74 215 53 Q245 32 288 32 Q333 32 364.5 53.5 Q396 75 415.5 107 Q435 139 444 177.5 Q453 216 453 250 Q453 288 443 328.5 Q433 369 413 402.5 Q393 436 361.5 457.5 Q330 479 287 479 Z " />
<glyph glyph-name="e" unicode="e" horiz-adv-x="556" d="M129 249 Q129 199 144.5 159.5 Q160 120 185.5 92.5 Q211 65 244.5 50.5 Q278 36 314 36 Q353 36 391.5 49.5 Q430 63 456 77 L456 18 Q419 3 383.5 -4.5 Q348 -12 310 -12 Q246 -12 199 7.5 Q152 27 121.5 63.5 Q91 100 76 151 Q61 202 61 265 Q61 322 77 369.5 Q93 417 122.5 450.5 Q152 484 193.5 503 Q235 522 285 522 Q342 522 381 502.5 Q420 483 444.5 447 Q469 411 480.5 360.5 Q492 310 493 249 L129 249 Z M283 474 Q244 474 216 458.5 Q188 443 169.5 417 Q151 391 141 358 Q131 325 127 291 L427 291 Q427 331 417.5 364.5 Q408 398 389.5 422.5 Q371 447 344 460.5 Q317 474 283 474 Z " />
<glyph glyph-name="f" unicode="f" horiz-adv-x="383" d="M350 668 Q342 669 335 669.5 Q328 670 320 670 Q284 670 263 658 Q242 646 231 626 Q220 606 217 580 Q214 554 214 527 L214 501 L349 501 L349 454 L214 454 L214 0 L151 0 L151 454 L31 454 L31 501 L151 501 L151 519 Q151 566 157.5 603 Q164 640 181 665.5 Q198 691 228 704 Q258 717 306 717 Q319 717 330.5 716 Q342 715 353 713 L350 668 Z " />
<glyph glyph-name="g" unicode="g" horiz-adv-x="611" d="M268 -222 Q231 -222 193.5 -216.5 Q156 -211 102 -191 L108 -134 Q155 -155 192 -165 Q229 -175 279 -175 Q320 -175 352.5 -161 Q385 -147 407.5 -120.5 Q430 -94 441.5 -57.5 Q453 -21 453 24 L453 76 Q430 49 406 33 Q382 17 358 8.5 Q334 0 310.5 -2 Q287 -4 264 -4 Q213 -4 175 17 Q137 38 111 73.5 Q85 109 72 156 Q59 203 59 255 Q59 303 70 351 Q81 399 106.5 437.5 Q132 476 173 500.5 Q214 525 274 525 Q300 525 326 521 Q352 517 375 507 Q398 497 418 480.5 Q438 464 453 440 L453 510 L516 510 L516 16 Q515 -98 457 -160 Q399 -222 268 -222 Z M288 478 Q247 478 217 458.5 Q187 439 167.5 408.5 Q148 378 138 339 Q128 300 128 261 Q128 217 137.5 177 Q147 137 166.5 107 Q186 77 216.5 59.5 Q247 42 288 42 Q327 42 357.5 60 Q388 78 409 107.5 Q430 137 441.5 175 Q453 213 453 253 Q453 296 443 336.5 Q433 377 413 408.5 Q393 440 361.5 459 Q330 478 288 478 Z " />
<glyph glyph-name="h" unicode="h" horiz-adv-x="604" d="M453 0 L453 271 Q453 320 447.5 358.5 Q442 397 428 423.5 Q414 450 390 464 Q366 478 329 478 Q283 478 251 459 Q219 440 198.5 407 Q178 374 168.5 330 Q159 286 159 235 L159 0 L96 0 L96 700 L159 700 L159 425 Q173 453 193.5 472 Q214 491 238 503 Q262 515 288.5 520 Q315 525 340 525 Q431 525 473.5 470 Q516 415 516 312 L516 0 L453 0 Z " />
<glyph glyph-name="i" unicode="i" horiz-adv-x="254" d="M96 641 L96 700 L159 700 L159 641 L96 641 Z M96 0 L96 510 L159 510 L159 0 L96 0 Z " />
<glyph glyph-name="j" unicode="j" horiz-adv-x="266" d="M108 642 L108 700 L171 700 L171 642 L108 642 Z M42 -222 Q31 -222 20 -221.5 Q9 -221 0 -220 L2 -169 L25 -169 Q47 -169 63 -159 Q79 -149 89 -131.5 Q99 -114 103.5 -90.5 Q108 -67 108 -41 L108 510 L171 510 L171 -27 Q171 -53 169 -87 Q167 -121 155 -151 Q143 -181 116.5 -201.5 Q90 -222 42 -222 Z " />
<glyph glyph-name="k" unicode="k" horiz-adv-x="537" d="M158 261 L158 0 L96 0 L96 700 L159 700 L159 292 L385 501 L468 501 L228 282 L501 0 L409 0 L158 261 Z " />
<glyph glyph-name="l" unicode="l" horiz-adv-x="254" d="M96 0 L96 700 L159 700 L159 0 L96 0 Z " />
<glyph glyph-name="m" unicode="m" horiz-adv-x="885" d="M734 0 L734 335 Q734 359 730.5 384 Q727 409 715.5 429 Q704 449 683 462 Q662 475 627 475 Q589 475 561 455 Q533 435 514.5 403.5 Q496 372 487 333.5 Q478 295 478 257 L478 0 L415 0 L415 319 Q415 350 411.5 378.5 Q408 407 396.5 428.5 Q385 450 364 462.5 Q343 475 308 475 Q270 475 242 455 Q214 435 195.5 403.5 Q177 372 168 333.5 Q159 295 159 257 L159 0 L96 0 L96 510 L159 510 L159 423 Q171 451 190 470.5 Q209 490 231.5 502 Q254 514 279.5 519.5 Q305 525 332 525 Q352 525 373 517.5 Q394 510 412 495 Q430 480 443 457 Q456 434 462 402 Q478 441 501 465 Q524 489 548.5 502.5 Q573 516 596 520.5 Q619 525 635 525 Q679 525 710 510.5 Q741 496 760.5 470.5 Q780 445 788.5 409 Q797 373 797 331 L797 0 L734 0 Z " />
<glyph glyph-name="n" unicode="n" horiz-adv-x="604" d="M453 0 L453 267 Q453 315 448 353.5 Q443 392 429.5 420 Q416 448 392 463 Q368 478 329 478 Q284 478 251.5 459 Q219 440 198.5 407.5 Q178 375 168.5 331.5 Q159 288 159 238 L159 0 L96 0 L96 510 L159 510 L159 423 Q169 448 187.5 467 Q206 486 230 499 Q254 512 282 518.5 Q310 525 340 525 Q431 525 473.5 469.5 Q516 414 516 309 L516 0 L453 0 Z " />
<glyph glyph-name="o" unicode="o" horiz-adv-x="611" d="M306 -15 Q252 -15 206.5 6.5 Q161 28 128.5 64.5 Q96 101 78 150 Q60 199 60 255 Q60 313 78 362.5 Q96 412 128 448 Q160 484 205.5 504.5 Q251 525 306 525 Q361 525 406.5 504.5 Q452 484 484 448 Q516 412 534 362.5 Q552 313 552 255 Q552 199 534 150 Q516 101 483 64.5 Q450 28 405 6.5 Q360 -15 306 -15 Z M306 477 Q264 477 231 459 Q198 441 174.5 411 Q151 381 139 340.5 Q127 300 127 255 Q127 213 137.5 173 Q148 133 170 102 Q192 71 226 52 Q260 33 306 33 Q351 33 385 52 Q419 71 441 102 Q463 133 474 173 Q485 213 485 255 Q485 300 472.5 340.5 Q460 381 437 411 Q414 441 381 459 Q348 477 306 477 Z " />
<glyph glyph-name="p" unicode="p" horiz-adv-x="611" d="M346 525 Q399 525 438 502 Q477 479 502.5 441 Q528 403 540.5 353.5 Q553 304 553 250 Q553 198 539.5 150 Q526 102 500 65.5 Q474 29 435 7 Q396 -15 345 -15 Q282 -15 237.5 7 Q193 29 159 72 L159 -190 L96 -190 L96 510 L159 510 L159 440 Q174 459 189 474.5 Q204 490 225 501 Q246 512 275 518.5 Q304 525 346 525 Z M325 31 Q368 31 398 51 Q428 71 447 103.5 Q466 136 475 176 Q484 216 484 257 Q484 293 475 332.5 Q466 372 446.5 404 Q427 436 397 457 Q367 478 324 478 Q279 478 247.5 456.5 Q216 435 196.5 403 Q177 371 168 332.5 Q159 294 159 260 Q159 222 169 181.5 Q179 141 199 107.5 Q219 74 250.5 52.5 Q282 31 325 31 Z " />
<glyph glyph-name="q" unicode="q" horiz-adv-x="611" d="M266 525 Q308 525 337 519 Q366 513 387 501.5 Q408 490 423.5 474.5 Q439 459 453 440 L453 510 L516 510 L516 -190 L453 -190 L453 72 Q419 29 374.5 7 Q330 -15 267 -15 Q216 -15 177 7 Q138 29 112 65.5 Q86 102 72.5 150 Q59 198 59 250 Q59 304 71.5 353.5 Q84 403 109.5 441 Q135 479 174 502 Q213 525 266 525 Z M287 31 Q330 31 361.5 52.5 Q393 74 413 107.5 Q433 141 443 181.5 Q453 222 453 260 Q453 294 444 332.5 Q435 371 415.5 403 Q396 435 364.5 456.5 Q333 478 288 478 Q245 478 215 457 Q185 436 165.5 404 Q146 372 137 332.5 Q128 293 128 257 Q128 216 137 176 Q146 136 165 103.5 Q184 71 214 51 Q244 31 287 31 Z " />
<glyph glyph-name="r" unicode="r" horiz-adv-x="385" d="M313 471 Q276 471 247.5 453 Q219 435 199.5 402.5 Q180 370 169.5 326 Q159 282 159 230 L159 0 L96 0 L96 510 L159 510 L159 405 Q167 433 184 455.5 Q201 478 221.5 493.5 Q242 509 263.5 517 Q285 525 303 525 Q318 525 328.5 523.5 Q339 522 350 520 L350 467 Q340 469 330.5 470 Q321 471 313 471 Z " />
<glyph glyph-name="s" unicode="s" horiz-adv-x="385" d="M177 -15 Q145 -15 113.5 -10.5 Q82 -6 53 8 L56 61 Q78 50 106 41.5 Q134 33 159 33 Q182 33 204 38 Q226 43 243 54 Q260 65 270.5 84 Q281 103 281 130 Q281 161 263.5 181 Q246 201 220 215.5 Q194 230 164 243 Q134 256 108 273.5 Q82 291 64.5 316.5 Q47 342 47 382 Q47 421 60 448 Q73 475 95.5 492 Q118 509 148.5 517 Q179 525 214 525 Q240 525 264.5 520.5 Q289 516 314 508 L310 458 Q293 464 267.5 470.5 Q242 477 224 477 Q203 477 183 473 Q163 469 147 459 Q131 449 121.5 432 Q112 415 112 390 Q112 355 129 333.5 Q146 312 172 297 Q198 282 228 269.5 Q258 257 284 239.5 Q310 222 327 196.5 Q344 171 344 130 Q344 94 330.5 67 Q317 40 293.5 21.5 Q270 3 240 -6 Q210 -15 177 -15 Z " />
<glyph glyph-name="t" unicode="t" horiz-adv-x="397" d="M287 -15 Q219 -15 182.5 18 Q146 51 146 124 L146 462 L31 462 L31 510 L146 510 L146 653 L209 674 L209 510 L344 510 L344 462 L209 462 L209 144 Q209 90 236.5 61 Q264 32 303 32 Q317 32 329 34.5 Q341 37 352 41 L352 -5 Q338 -9 321.5 -12 Q305 -15 287 -15 Z " />
<glyph glyph-name="u" unicode="u" horiz-adv-x="604" d="M152 510 L152 243 Q152 195 156.5 156.5 Q161 118 174.5 90 Q188 62 212.5 47 Q237 32 276 32 Q321 32 353.5 51 Q386 70 406.5 102.5 Q427 135 436.5 178.5 Q446 222 446 272 L446 510 L509 510 L509 0 L446 0 L446 87 Q435 62 417 43 Q399 24 375 11 Q351 -2 323 -8.5 Q295 -15 265 -15 Q174 -15 131.5 40.5 Q89 96 89 201 L89 510 L152 510 Z " />
<glyph glyph-name="v" unicode="v" horiz-adv-x="502" d="M296 0 L206 0 L34 510 L104 510 L254 47 L407 510 L468 510 L296 0 Z " />
<glyph glyph-name="w" unicode="w" horiz-adv-x="833" d="M636 0 L549 0 L420 466 L284 0 L198 0 L44 510 L114 510 L243 44 L386 510 L454 510 L594 44 L731 510 L790 510 L636 0 Z " />
<glyph glyph-name="x" unicode="x" horiz-adv-x="480" d="M373 0 L238 227 L103 0 L30 0 L203 268 L47 510 L126 510 L246 301 L368 510 L435 510 L281 268 L451 0 L373 0 Z " />
<glyph glyph-name="y" unicode="y" horiz-adv-x="501" d="M291 -12 Q276 -56 261.5 -90.5 Q247 -125 224 -157 Q204 -186 175.5 -204 Q147 -222 105 -222 Q89 -222 78 -221 Q67 -220 58 -218 L61 -171 Q68 -173 75.5 -174 Q83 -175 91 -175 Q128 -175 152 -154.5 Q176 -134 189.5 -108.5 Q203 -83 208 -60.5 Q213 -38 213 -34 Q213 -18 206.5 1.5 Q200 21 195 35 L34 510 L104 510 L254 47 L406 510 L468 510 L291 -12 Z " />
<glyph glyph-name="z" unicode="z" horiz-adv-x="500" d="M59 0 L59 59 L370 462 L73 462 L73 510 L431 510 L431 451 L119 48 L442 48 L442 0 L59 0 Z " />
<glyph glyph-name="braceleft" unicode="&#x7b;" horiz-adv-x="374" d="M70 265 Q104 273 130 305 Q156 337 156 388 L156 582 Q156 609 165 629.5 Q174 650 188 663.5 Q202 677 218 683.5 Q234 690 248 690 L304 690 L304 662 L273 662 Q251 662 237 652.5 Q223 643 215 628.5 Q207 614 204 596 Q201 578 201 561 L201 373 Q201 344 192 323 Q183 302 169.5 287.5 Q156 273 140 264.5 Q124 256 109 253 L109 241 Q124 239 140 231.5 Q156 224 169.5 210 Q183 196 192 173.5 Q201 151 201 119 L201 -65 Q201 -82 204 -100 Q207 -118 215 -132.5 Q223 -147 237 -156.5 Q251 -166 273 -166 L304 -166 L304 -194 L248 -194 Q234 -194 218 -187.5 Q202 -181 188 -167.5 Q174 -154 165 -133.5 Q156 -113 156 -86 L156 103 Q156 157 130 190 Q104 223 70 231 L70 265 Z " />
<glyph glyph-name="bar" unicode="&#x7c;" horiz-adv-x="186" d="M116 -198 L70 -198 L70 692 L116 692 L116 -198 Z " />
<glyph glyph-name="braceright" unicode="&#x7d;" horiz-adv-x="374" d="M304 231 Q270 223 244 190 Q218 157 218 103 L218 -86 Q218 -113 209 -133.5 Q200 -154 186 -167.5 Q172 -181 156 -187.5 Q140 -194 126 -194 L70 -194 L70 -166 L101 -166 Q123 -166 137 -156.5 Q151 -147 159 -132.5 Q167 -118 170 -100 Q173 -82 173 -65 L173 119 Q173 151 182 173.5 Q191 196 204.5 210 Q218 224 234 231.5 Q250 239 265 241 L265 253 Q250 256 234 264.5 Q218 273 204.5 287.5 Q191 302 182 323 Q173 344 173 373 L173 561 Q173 578 170 596 Q167 614 159 628.5 Q151 643 137 652.5 Q123 662 101 662 L70 662 L70 690 L126 690 Q140 690 156 683.5 Q172 677 186 663.5 Q200 650 209 629.5 Q218 609 218 582 L218 388 Q218 337 244 305 Q270 273 304 265 L304 231 Z " />
<glyph glyph-name="asciitilde" unicode="&#x7e;" horiz-adv-x="398" d="M360 380 Q360 344 326 325 Q301 309 261 309 Q216 309 167 329 L135 345 Q115 354 103 354 Q62 354 59 318 L38 318 Q38 332 45 345 Q72 396 139 396 Q175 396 226 374 Q280 353 301 353 Q336 353 338 380 L360 380 Z " />
<glyph glyph-name="exclamdown" unicode="&#xa1;" horiz-adv-x="277" d="M206 453 Q206 430 188.5 414 Q171 398 146 398 Q121 398 103.5 414 Q86 430 86 453 Q86 476 103.5 492.5 Q121 509 146 509 Q171 509 188.5 492.5 Q206 476 206 453 Z M208 -48 Q208 -138 145 -138 Q80 -138 80 -48 Q80 -29 83 -7 Q86 15 91 41 L111 128 Q116 157 122 211.5 Q128 266 134 347 L155 347 Q157 321 158.5 295.5 Q160 270 162 244 Q168 176 177 128 Q183 105 195 50 Q208 -1 208 -48 Z " />
<glyph glyph-name="cent" unicode="&#xa2;" horiz-adv-x="500" d="M445 175 Q400 -10 257 -10 Q215 -10 175 11 L99 -194 L59 -194 L142 32 Q59 100 59 218 Q59 322 123 395 Q188 469 277 469 Q285 469 291.5 469 Q298 469 303 468 L382 680 L422 680 L341 461 Q438 436 438 360 Q438 339 421 324 Q404 309 383 309 Q361 309 347.5 324.5 Q334 340 334 360 Q334 394 323 411 L208 100 Q244 64 290 64 Q383 64 431 183 L445 175 Z M290 432 Q279 435 264 435 Q237 435 214.5 423 Q192 411 176 389.5 Q160 368 151.5 339 Q143 310 143 277 Q143 196 180 135 L290 432 Z " />
<glyph glyph-name="sterling" unicode="&#xa3;" horiz-adv-x="530" d="M501 152 Q493 82 457 37 Q415 -16 347 -16 Q257 -16 180 67 Q145 -16 84 -16 Q58 -16 39 3.5 Q20 23 20 51 Q20 86 45 109 Q70 132 109 132 Q117 132 131 129.5 Q145 127 151 127 Q153 146 154.5 165.5 Q156 185 156 207 Q156 238 153 272.5 Q150 307 145 345 L42 345 L42 379 L140 379 Q134 439 134 470 Q134 565 182 627 Q236 696 332 696 Q392 696 430 661 Q462 629 462 595 Q462 579 450 565.5 Q438 552 422 552 Q381 552 380 613 Q379 665 317 665 Q222 665 222 523 Q222 498 225 462.5 Q228 427 233 379 L369 379 L370 345 L236 345 L235 297 Q234 249 225.5 204.5 Q217 160 201 117 Q288 76 370 76 Q461 76 484 156 L501 152 Z M147 86 Q124 100 101 100 Q52 100 52 57 Q52 15 85 15 Q129 15 147 86 Z " />
<glyph glyph-name="currency" unicode="&#xa4;" horiz-adv-x="530" d="M520 125 L490 96 L412 171 Q354 119 265 119 Q176 119 118 171 L40 96 L10 125 L88 200 Q33 255 33 341 Q33 421 88 482 L10 557 L40 586 L118 511 Q176 563 265 563 Q354 563 412 511 L490 586 L520 557 L442 482 Q497 424 497 341 Q497 258 442 200 L520 125 Z M453 341 Q453 416 397 469 Q341 522 265 522 Q188 522 132 469 Q77 417 77 341 Q77 264 132 212 Q187 160 265 160 Q342 160 397 212 Q453 265 453 341 Z " />
<glyph glyph-name="yen" unicode="&#xa5;" horiz-adv-x="607" d="M607 662 Q518 662 479 577 L454 522 L552 522 L552 484 L437 484 L391 384 L552 384 L552 346 L374 346 L351 295 L351 108 Q351 55 371.5 36.5 Q392 18 446 18 L446 0 L143 0 L143 18 Q171 18 190 22 Q209 26 219.5 36 Q230 46 234.5 63.5 Q239 81 239 108 L239 283 L212 346 L44 346 L44 384 L195 384 L152 484 L44 484 L44 522 L136 522 L108 587 Q76 662 0 662 L0 680 L296 680 L296 662 Q219 662 219 623 Q219 608 233 568 L251 522 L405 522 L429 578 Q438 599 438 616 Q438 662 368 662 L368 680 L607 680 L607 662 Z M388 484 L266 484 L324 337 L388 484 Z " />
<glyph glyph-name="brokenbar" unicode="&#xa6;" horiz-adv-x="164" d="M111 494 L60 494 L60 896 L111 896 L111 494 Z M111 0 L60 0 L60 367 L111 367 L111 0 Z " />
<glyph glyph-name="section" unicode="&#xa7;" horiz-adv-x="500" d="M434 237 Q434 188 399 138 Q369 93 318 67 Q385 0 385 -57 Q385 -119 341 -166 Q298 -212 232 -212 Q181 -212 141 -179 Q101 -146 101 -98 Q101 -81 113 -67.5 Q125 -54 142 -54 Q180 -54 180 -99 Q180 -109 176 -126.5 Q172 -144 172 -153 Q172 -188 236 -188 Q271 -188 299 -160 Q329 -133 329 -102 Q329 -48 259 10 L130 115 Q60 181 60 250 Q60 358 176 423 Q110 487 110 549 Q110 611 153 653 Q196 696 261 696 Q316 696 353 665 Q393 631 393 582 Q393 565 381 551.5 Q369 538 352 538 Q335 538 322.5 549.5 Q310 561 310 577 Q310 585 314 601 Q318 617 318 626 Q318 672 261 672 Q222 672 194 648 Q166 624 166 588 Q166 534 235 476 L365 375 Q434 310 434 237 Z M380 190 Q380 250 311 312 L193 407 Q114 364 114 294 Q114 236 184 175 L301 82 Q380 124 380 190 Z " />
<glyph glyph-name="dieresis" unicode="&#xa8;" horiz-adv-x="285" d="M107 800 Q107 781 93 767.5 Q79 754 59 754 Q39 754 25 767.5 Q11 781 11 800 Q11 819 25 832.5 Q39 846 59 846 Q79 846 93 832.5 Q107 819 107 800 Z M283 800 Q283 781 269 767.5 Q255 754 235 754 Q215 754 201 767.5 Q187 781 187 800 Q187 819 201 832.5 Q215 846 235 846 Q255 846 269 832.5 Q283 819 283 800 Z " />
<glyph glyph-name="copyright" unicode="&#xa9;" horiz-adv-x="760" d="M737 341 Q737 193 632 88 Q528 -16 380 -16 Q234 -16 127 88 Q23 195 23 341 Q23 488 127 592 Q234 696 380 696 Q528 696 632 592 Q737 488 737 341 Z M706 341 Q706 475 610 570 Q515 665 380 665 Q247 665 149 570 Q54 475 54 341 Q54 206 150 110 Q248 15 380 15 Q516 15 610 109 Q706 203 706 341 Z M407 91 Q354 91 310 108 Q266 125 234.5 157 Q203 189 184.5 234 Q166 279 166 335 Q166 390 184.5 435 Q203 480 234.5 511.5 Q266 543 310 560.5 Q354 578 407 578 Q440 578 465 573.5 Q490 569 520 556 L518 521 Q495 534 470.5 540 Q446 546 410 546 Q366 546 329.5 530 Q293 514 267 486 Q241 458 226 419 Q211 380 211 335 Q211 289 226 250.5 Q241 212 267 183.5 Q293 155 329.5 138.5 Q366 122 410 122 Q446 122 470.5 128.5 Q495 135 518 148 L520 112 Q465 91 407 91 Z " />
<glyph glyph-name="ordfeminine" unicode="&#xaa;" horiz-adv-x="320" d="M309 431 Q260 394 231 394 Q199 394 192 440 Q128 394 80 394 Q54 394 33 413 Q12 432 12 459 Q12 533 192 592 Q193 628 185 650 Q173 677 136 677 Q90 677 90 635 Q90 594 58 594 Q26 594 26 624 Q26 663 69 681 Q100 696 150 696 Q265 696 265 601 L265 461 Q265 438 280 437 Q280 437 309 454 L309 431 Z M192 569 Q85 539 85 481 Q85 463 98.5 450 Q112 437 131 437 Q146 437 162 446 Q178 455 192 464 L192 569 Z " />
<glyph glyph-name="guillemotleft" unicode="&#xab;" horiz-adv-x="528" d="M478 0 L447 0 L248 230 L447 459 L478 459 L350 230 L478 0 Z M280 0 L249 0 L50 230 L249 459 L280 459 L152 230 L280 0 Z " />
<glyph glyph-name="logicalnot" unicode="&#xac;" horiz-adv-x="605" d="M585 459 L585 253 L541 253 L541 415 L20 415 L20 459 L585 459 Z " />
<glyph glyph-name="registered" unicode="&#xae;" horiz-adv-x="760" d="M737 341 Q737 193 632 88 Q528 -16 380 -16 Q234 -16 127 88 Q23 195 23 341 Q23 488 127 592 Q234 696 380 696 Q528 696 632 592 Q737 488 737 341 Z M706 341 Q706 475 610 570 Q515 665 380 665 Q247 665 149 570 Q54 475 54 341 Q54 206 150 110 Q248 15 380 15 Q516 15 610 109 Q706 203 706 341 Z M511 107 Q506 115 505 128.5 Q504 142 504 152 L504 231 Q504 246 499.5 261 Q495 276 485 288 Q475 300 460 308 Q445 316 424 316 L272 316 L272 107 L229 107 L229 575 L438 575 Q463 575 483.5 566.5 Q504 558 518.5 542.5 Q533 527 541 505 Q549 483 549 457 Q549 436 544 415.5 Q539 395 528 377.5 Q517 360 501.5 348 Q486 336 465 332 Q486 328 501.5 318 Q517 308 527 293.5 Q537 279 541.5 262.5 Q546 246 546 231 L546 157 Q546 141 548 128.5 Q550 116 553 107 L511 107 Z M272 544 L272 348 L429 348 Q447 348 462 356 Q477 364 487 378 Q497 392 502 410 Q507 428 507 448 Q507 467 501 484.5 Q495 502 485 515 Q475 528 460 536 Q445 544 429 544 L272 544 Z " />
<glyph glyph-name="overscore" unicode="&#xaf;" horiz-adv-x="454" d="M360 516 L107 516 L107 543 L360 543 L360 516 Z " />
<glyph glyph-name="degree" unicode="&#xb0;" horiz-adv-x="400" d="M360 543 Q360 480 313 433 Q267 387 201 387 Q131 387 85 433 Q37 479 37 544 Q37 607 84 651 Q132 696 198 696 Q264 696 312 651 Q360 606 360 543 Z M314 543 Q314 589 279 622 Q244 655 198 655 Q151 655 117 622 Q83 589 83 544 Q83 496 117 462 Q151 428 201 428 Q250 428 281 462 Q314 496 314 543 Z " />
<glyph glyph-name="plusminus" unicode="&#xb1;" horiz-adv-x="568" d="M518 476 L325 476 L325 301 L237 301 L237 476 L44 476 L44 558 L237 558 L237 734 L325 734 L325 558 L518 558 L518 476 Z M496 175 L66 175 L66 256 L496 256 L496 175 Z " />
<glyph glyph-name="uni00B2" unicode="&#xb2;" horiz-adv-x="276" d="M33 300 Q34 305 35.5 311.5 Q37 318 38 323 Q48 354 63.5 374 Q79 394 102 414 Q110 421 118 427 Q126 433 136 441 Q147 450 159 459.5 Q171 469 181.5 480 Q192 491 198.5 504.5 Q205 518 205 535 Q205 564 188 581 Q171 598 145 598 Q126 598 113 589 Q100 580 91 567 Q85 557 81 546 Q77 535 74 524 L39 532 Q44 550 48 559.5 Q52 569 57 578 Q70 599 93.5 612 Q117 625 146 625 Q191 625 216.5 599 Q242 573 242 534 Q242 498 219 472 L193 448 L161 424 Q132 403 110 380.5 Q88 358 70 329 L243 329 L243 300 L33 300 Z " />
<glyph glyph-name="uni00B3" unicode="&#xb3;" horiz-adv-x="276" d="M245 389 Q245 349 216.5 322.5 Q188 296 140 296 Q106 296 80.5 309.5 Q55 323 31 357 L59 375 Q80 345 99 333.5 Q118 322 141 322 Q170 322 189.5 339 Q209 356 209 386 Q209 456 122 456 L107 456 L107 483 L123 483 Q200 483 200 543 Q200 569 183.5 583.5 Q167 598 140 598 Q121 598 105 589 Q89 580 71 557 L44 575 Q65 601 89.5 613 Q114 625 142 625 Q186 625 211.5 602.5 Q237 580 237 545 Q237 523 225.5 503.5 Q214 484 182 470 Q218 460 231.5 437.5 Q245 415 245 389 Z " />
<glyph glyph-name="acute" unicode="&#xb4;" horiz-adv-x="201" d="M178 917 L47 740 L19 740 L92 917 L178 917 Z " />
<glyph glyph-name="mu" unicode="&#xb5;" horiz-adv-x="525" d="M519 101 Q517 53 492 20 Q463 -16 415 -16 Q338 -16 332 80 Q249 -16 166 -16 Q115 -16 87 24 L85 24 Q85 -31 95 -81 Q100 -110 103 -128.5 Q106 -147 106 -155 Q106 -212 64 -212 Q19 -212 19 -154 Q19 -145 22.5 -124.5 Q26 -104 33 -72 Q48 -8 48 68 L48 459 L131 459 L131 178 Q131 46 209 46 Q273 46 332 114 L332 459 L415 459 L415 122 Q415 96 424 71 Q434 38 453 38 Q490 38 496 101 L519 101 Z " />
<glyph glyph-name="paragraph" unicode="&#xb6;" horiz-adv-x="539" d="M442 -194 L404 -194 L404 668 L306 668 L306 -194 L268 -194 L268 315 Q215 315 171.5 325 Q128 335 96.5 357 Q65 379 47.5 415 Q30 451 30 503 Q30 594 83.5 645 Q137 696 252 696 L512 696 L512 668 L442 668 L442 -194 Z " />
<glyph glyph-name="middot" unicode="&#xb7;" horiz-adv-x="190" d="M137 238 Q137 220 125 208 Q113 196 95 196 Q78 196 65.5 208 Q53 220 53 238 Q53 255 65.5 267 Q78 279 95 279 Q113 279 125 267 Q137 255 137 238 Z " />
<glyph glyph-name="cedilla" unicode="&#xb8;" horiz-adv-x="346" d="M262 -91 Q262 -150 181 -150 Q146 -150 98 -137 L97 -106 Q151 -118 180 -118 Q215 -118 215 -93 Q215 -61 156 -67 L156 -6 L181 -6 L181 -37 Q262 -37 262 -91 Z " />
<glyph glyph-name="uni00B9" unicode="&#xb9;" horiz-adv-x="276" d="M136 300 L136 590 L72 558 L72 587 L148 623 L174 623 L174 300 L136 300 Z " />
<glyph glyph-name="ordmasculine" unicode="&#xba;" horiz-adv-x="329" d="M318 547 Q318 486 272 440 Q226 394 164 394 Q99 394 55 435 Q12 475 12 539 Q12 607 56 651 Q99 696 170 696 Q234 696 276 652 Q318 608 318 547 Z M245 515 Q245 566 224 613 Q197 671 150 671 Q85 671 85 575 Q85 524 104 480 Q129 419 173 419 Q245 419 245 515 Z " />
<glyph glyph-name="guillemotright" unicode="&#xbb;" horiz-adv-x="528" d="M478 230 L279 0 L248 0 L376 230 L248 459 L279 459 L478 230 Z M280 230 L81 0 L50 0 L178 230 L50 459 L81 459 L280 230 Z " />
<glyph glyph-name="onequarter" unicode="&#xbc;" horiz-adv-x="671" d="M222 -14 L187 -14 L420 594 L455 594 L222 -14 Z M138 250 L138 540 L74 508 L74 537 L150 573 L176 573 L176 250 L138 250 Z M563 80 L563 0 L525 0 L525 80 L383 80 L383 104 L510 325 L563 325 L563 107 L616 107 L616 80 L563 80 Z M525 293 L418 107 L525 107 L525 293 Z " />
<glyph glyph-name="onehalf" unicode="&#xbd;" horiz-adv-x="671" d="M192 -14 L157 -14 L390 594 L425 594 L192 -14 Z M148 250 L148 540 L84 508 L84 537 L160 573 L186 573 L186 250 L148 250 Z M366 0 L371 23 Q381 54 396.5 74 Q412 94 435 114 L469 141 Q480 150 492 159.5 Q504 169 514.5 180 Q525 191 531.5 204.5 Q538 218 538 235 Q538 264 521 281 Q504 298 478 298 Q459 298 446 289 Q433 280 424 267 Q418 257 414 246 Q410 235 407 224 L372 232 Q377 250 381 259.5 Q385 269 390 278 Q403 299 426.5 312 Q450 325 479 325 Q501 325 519 318 Q537 311 549.5 299 Q562 287 568.5 270.5 Q575 254 575 234 Q575 215 569 200 Q563 185 552 172 Q546 166 539.5 160 Q533 154 526 148 Q518 142 510 136 Q502 130 494 124 Q465 103 443 80.5 Q421 58 403 29 L576 29 L576 0 L366 0 Z " />
<glyph glyph-name="threequarters" unicode="&#xbe;" horiz-adv-x="671" d="M242 -14 L207 -14 L440 594 L475 594 L242 -14 Z M563 80 L563 0 L525 0 L525 80 L383 80 L383 104 L510 325 L563 325 L563 107 L616 107 L616 80 L563 80 Z M525 293 L418 107 L525 107 L525 293 Z M257 339 Q257 319 249.5 302 Q242 285 228.5 272.5 Q215 260 195.5 253 Q176 246 152 246 Q118 246 92.5 259.5 Q67 273 43 307 L71 325 Q92 295 111 283.5 Q130 272 153 272 Q182 272 201.5 289 Q221 306 221 336 Q221 406 134 406 L119 406 L119 433 L135 433 Q173 433 192.5 447.5 Q212 462 212 493 Q212 520 195.5 534 Q179 548 152 548 Q133 548 117 539 Q101 530 83 507 L56 525 Q77 551 101 563 Q125 575 154 575 Q176 575 193.5 569 Q211 563 223 552.5 Q235 542 242 527 Q249 512 249 495 Q249 473 237.5 453.5 Q226 434 194 420 Q212 415 224 406.5 Q236 398 243.5 387.5 Q251 377 254 364.5 Q257 352 257 339 Z " />
<glyph glyph-name="questiondown" unicode="&#xbf;" horiz-adv-x="431" d="M259 642 Q259 620 242.5 604 Q226 588 203 588 Q180 588 163.5 604 Q147 620 147 642 Q147 664 163.5 680 Q180 696 203 696 Q226 696 242.5 680 Q259 664 259 642 Z M406 146 Q406 108 392 78 Q378 48 353 27 Q328 6 292.5 -5 Q257 -16 215 -16 Q144 -16 92 21 Q32 63 32 137 Q32 168 48 187 Q64 206 88 206 Q125 206 127 164 Q128 152 111 120 Q95 95 95 78 Q95 53 123 37.5 Q151 22 189 22 Q302 22 302 153 Q302 209 273 272 L220 378 Q191 448 191 521 L215 521 Q215 457 265 389 L356 275 Q406 207 406 146 Z " />
<glyph glyph-name="Agrave" unicode="&#xc0;" horiz-adv-x="648" d="M542 0 L469 218 L173 218 L105 0 L34 0 L277 700 L371 700 L614 0 L542 0 Z M322 644 L188 264 L460 264 L322 644 Z M344 916 L427 739 L399 739 L258 916 L344 916 Z " />
<glyph glyph-name="Aacute" unicode="&#xc1;" horiz-adv-x="648" d="M542 0 L469 218 L173 218 L105 0 L34 0 L277 700 L371 700 L614 0 L542 0 Z M322 644 L188 264 L460 264 L322 644 Z M393 917 L262 740 L234 740 L307 917 L393 917 Z " />
<glyph glyph-name="Acircumflex" unicode="&#xc2;" horiz-adv-x="648" d="M542 0 L469 218 L173 218 L105 0 L34 0 L277 700 L371 700 L614 0 L542 0 Z M322 644 L188 264 L460 264 L322 644 Z M450 739 L423 739 L322 876 L221 739 L194 739 L274 916 L370 916 L450 739 Z " />
<glyph glyph-name="Atilde" unicode="&#xc3;" horiz-adv-x="648" d="M542 0 L469 218 L173 218 L105 0 L34 0 L277 700 L371 700 L614 0 L542 0 Z M322 644 L188 264 L460 264 L322 644 Z M481 830 Q481 794 448 775 Q420 759 382 759 Q337 759 288 779 Q280 783 272.5 787 Q265 791 257 795 Q237 804 224 804 Q183 804 180 768 L159 768 Q159 781 167 795 Q194 846 260 846 Q297 846 348 824 Q402 803 422 803 Q457 803 459 830 L481 830 Z " />
<glyph glyph-name="Adieresis" unicode="&#xc4;" horiz-adv-x="648" d="M542 0 L469 218 L173 218 L105 0 L34 0 L277 700 L371 700 L614 0 L542 0 Z M322 644 L188 264 L460 264 L322 644 Z M284 830 Q284 811 270 797.5 Q256 784 236 784 Q216 784 202 797.5 Q188 811 188 830 Q188 849 202 862.5 Q216 876 236 876 Q256 876 270 862.5 Q284 849 284 830 Z M460 830 Q460 811 446 797.5 Q432 784 412 784 Q392 784 378 797.5 Q364 811 364 830 Q364 849 378 862.5 Q392 876 412 876 Q432 876 446 862.5 Q460 849 460 830 Z " />
<glyph glyph-name="Aring" unicode="&#xc5;" horiz-adv-x="648" d="M542 0 L469 218 L173 218 L105 0 L34 0 L277 700 L371 700 L614 0 L542 0 Z M322 644 L188 264 L460 264 L322 644 Z M385 807 Q385 781 367 763 Q349 745 323 745 Q297 745 279 763 Q261 781 261 807 Q261 832 279 850 Q297 868 323 868 Q349 868 367 850 Q385 832 385 807 Z M356 807 Q356 820 346 830 Q336 840 323 840 Q290 840 290 807 Q290 774 323 774 Q336 774 346 783.5 Q356 793 356 807 Z " />
<glyph glyph-name="AE" unicode="&#xc6;" horiz-adv-x="944" d="M409 0 L409 218 L169 218 L95 0 L24 0 L277 700 L860 700 L860 653 L472 653 L472 387 L837 387 L837 340 L472 340 L472 48 L877 48 L877 0 L409 0 Z M184 264 L409 264 L409 653 L325 653 L184 264 Z " />
<glyph glyph-name="Ccedilla" unicode="&#xc7;" horiz-adv-x="653" d="M418 -15 Q340 -15 274.5 10.5 Q209 36 161.5 83.5 Q114 131 87 198.5 Q60 266 60 349 Q60 431 87 498 Q114 565 161.5 612 Q209 659 274.5 685 Q340 711 418 711 Q467 711 504.5 704 Q542 697 587 679 L583 626 Q549 646 513 655 Q477 664 423 664 Q358 664 303.5 640 Q249 616 210 574 Q171 532 149 474 Q127 416 127 349 Q127 281 149 223.5 Q171 166 210 123 Q249 80 303.5 56 Q358 32 423 32 Q477 32 513 41 Q549 50 583 70 L587 16 Q504 -15 418 -15 Z M502 -91 Q502 -150 421 -150 Q386 -150 338 -137 L337 -106 Q391 -118 420 -118 Q455 -118 455 -93 Q455 -61 396 -67 L396 -6 L421 -6 L421 -37 Q502 -37 502 -91 Z " />
<glyph glyph-name="Egrave" unicode="&#xc8;" horiz-adv-x="624" d="M89 0 L89 700 L540 700 L540 653 L152 653 L152 387 L517 387 L517 340 L152 340 L152 48 L557 48 L557 0 L89 0 Z M294 916 L377 739 L349 739 L208 916 L294 916 Z " />
<glyph glyph-name="Eacute" unicode="&#xc9;" horiz-adv-x="624" d="M89 0 L89 700 L540 700 L540 653 L152 653 L152 387 L517 387 L517 340 L152 340 L152 48 L557 48 L557 0 L89 0 Z M393 917 L262 740 L234 740 L307 917 L393 917 Z " />
<glyph glyph-name="Ecircumflex" unicode="&#xca;" horiz-adv-x="624" d="M89 0 L89 700 L540 700 L540 653 L152 653 L152 387 L517 387 L517 340 L152 340 L152 48 L557 48 L557 0 L89 0 Z M450 739 L423 739 L322 876 L221 739 L194 739 L274 916 L370 916 L450 739 Z " />
<glyph glyph-name="Edieresis" unicode="&#xcb;" horiz-adv-x="624" d="M89 0 L89 700 L540 700 L540 653 L152 653 L152 387 L517 387 L517 340 L152 340 L152 48 L557 48 L557 0 L89 0 Z M279 800 Q279 781 265 767.5 Q251 754 231 754 Q211 754 197 767.5 Q183 781 183 800 Q183 819 197 832.5 Q211 846 231 846 Q251 846 265 832.5 Q279 819 279 800 Z M455 800 Q455 781 441 767.5 Q427 754 407 754 Q387 754 373 767.5 Q359 781 359 800 Q359 819 373 832.5 Q387 846 407 846 Q427 846 441 832.5 Q455 819 455 800 Z " />
<glyph glyph-name="Igrave" unicode="&#xcc;" horiz-adv-x="254" d="M96 0 L96 700 L159 700 L159 0 L96 0 Z M129 916 L212 739 L184 739 L43 916 L129 916 Z " />
<glyph glyph-name="Iacute" unicode="&#xcd;" horiz-adv-x="254" d="M96 0 L96 700 L159 700 L159 0 L96 0 Z M196 917 L65 740 L37 740 L110 917 L196 917 Z " />
<glyph glyph-name="Icircumflex" unicode="&#xce;" horiz-adv-x="254" d="M96 0 L96 700 L159 700 L159 0 L96 0 Z M258 739 L231 739 L130 876 L29 739 L2 739 L82 916 L178 916 L258 739 Z " />
<glyph glyph-name="Idieresis" unicode="&#xcf;" horiz-adv-x="254" d="M96 0 L96 700 L159 700 L159 0 L96 0 Z M88 800 Q88 781 74 767.5 Q60 754 40 754 Q20 754 6 767.5 Q-8 781 -8 800 Q-8 819 6 832.5 Q20 846 40 846 Q60 846 74 832.5 Q88 819 88 800 Z M264 800 Q264 781 250 767.5 Q236 754 216 754 Q196 754 182 767.5 Q168 781 168 800 Q168 819 182 832.5 Q196 846 216 846 Q236 846 250 832.5 Q264 819 264 800 Z " />
<glyph glyph-name="Ntilde" unicode="&#xd1;" horiz-adv-x="693" d="M542 61 L542 700 L605 700 L605 0 L513 0 L152 640 L152 0 L89 0 L89 700 L181 700 L542 61 Z M513 830 Q513 794 480 775 Q452 759 414 759 Q369 759 320 779 Q312 783 304.5 787 Q297 791 289 795 Q269 804 256 804 Q215 804 212 768 L191 768 Q191 781 199 795 Q226 846 292 846 Q329 846 380 824 Q434 803 454 803 Q489 803 491 830 L513 830 Z " />
<glyph glyph-name="Ograve" unicode="&#xd2;" horiz-adv-x="721" d="M360 -15 Q288 -15 231 12 Q174 39 135 87.5 Q96 136 75 203.5 Q54 271 54 353 Q54 435 75 501.5 Q96 568 136 615.5 Q176 663 233 689 Q290 715 361 715 Q432 715 489 689 Q546 663 585.5 615.5 Q625 568 646.5 501.5 Q668 435 668 353 Q668 271 647 203.5 Q626 136 586 87.5 Q546 39 489 12 Q432 -15 360 -15 Z M361 668 Q245 668 183 591 Q121 514 121 353 Q121 192 182 112 Q243 32 361 32 Q479 32 540 112.5 Q601 193 601 353 Q601 514 539 591 Q477 668 361 668 Z M372 916 L455 739 L427 739 L286 916 L372 916 Z " />
<glyph glyph-name="Oacute" unicode="&#xd3;" horiz-adv-x="721" d="M360 -15 Q288 -15 231 12 Q174 39 135 87.5 Q96 136 75 203.5 Q54 271 54 353 Q54 435 75 501.5 Q96 568 136 615.5 Q176 663 233 689 Q290 715 361 715 Q432 715 489 689 Q546 663 585.5 615.5 Q625 568 646.5 501.5 Q668 435 668 353 Q668 271 647 203.5 Q626 136 586 87.5 Q546 39 489 12 Q432 -15 360 -15 Z M361 668 Q245 668 183 591 Q121 514 121 353 Q121 192 182 112 Q243 32 361 32 Q479 32 540 112.5 Q601 193 601 353 Q601 514 539 591 Q477 668 361 668 Z M429 917 L298 740 L270 740 L343 917 L429 917 Z " />
<glyph glyph-name="Ocircumflex" unicode="&#xd4;" horiz-adv-x="721" d="M360 -15 Q288 -15 231 12 Q174 39 135 87.5 Q96 136 75 203.5 Q54 271 54 353 Q54 435 75 501.5 Q96 568 136 615.5 Q176 663 233 689 Q290 715 361 715 Q432 715 489 689 Q546 663 585.5 615.5 Q625 568 646.5 501.5 Q668 435 668 353 Q668 271 647 203.5 Q626 136 586 87.5 Q546 39 489 12 Q432 -15 360 -15 Z M361 668 Q245 668 183 591 Q121 514 121 353 Q121 192 182 112 Q243 32 361 32 Q479 32 540 112.5 Q601 193 601 353 Q601 514 539 591 Q477 668 361 668 Z M496 739 L469 739 L368 876 L267 739 L240 739 L320 916 L416 916 L496 739 Z " />
<glyph glyph-name="Otilde" unicode="&#xd5;" horiz-adv-x="721" d="M360 -15 Q288 -15 231 12 Q174 39 135 87.5 Q96 136 75 203.5 Q54 271 54 353 Q54 435 75 501.5 Q96 568 136 615.5 Q176 663 233 689 Q290 715 361 715 Q432 715 489 689 Q546 663 585.5 615.5 Q625 568 646.5 501.5 Q668 435 668 353 Q668 271 647 203.5 Q626 136 586 87.5 Q546 39 489 12 Q432 -15 360 -15 Z M361 668 Q245 668 183 591 Q121 514 121 353 Q121 192 182 112 Q243 32 361 32 Q479 32 540 112.5 Q601 193 601 353 Q601 514 539 591 Q477 668 361 668 Z M517 830 Q517 794 484 775 Q456 759 418 759 Q373 759 324 779 Q316 783 308.5 787 Q301 791 293 795 Q273 804 260 804 Q219 804 216 768 L195 768 Q195 781 203 795 Q230 846 296 846 Q333 846 384 824 Q438 803 458 803 Q493 803 495 830 L517 830 Z " />
<glyph glyph-name="Odieresis" unicode="&#xd6;" horiz-adv-x="721" d="M360 -15 Q288 -15 231 12 Q174 39 135 87.5 Q96 136 75 203.5 Q54 271 54 353 Q54 435 75 501.5 Q96 568 136 615.5 Q176 663 233 689 Q290 715 361 715 Q432 715 489 689 Q546 663 585.5 615.5 Q625 568 646.5 501.5 Q668 435 668 353 Q668 271 647 203.5 Q626 136 586 87.5 Q546 39 489 12 Q432 -15 360 -15 Z M361 668 Q245 668 183 591 Q121 514 121 353 Q121 192 182 112 Q243 32 361 32 Q479 32 540 112.5 Q601 193 601 353 Q601 514 539 591 Q477 668 361 668 Z M320 830 Q320 811 306 797.5 Q292 784 272 784 Q252 784 238 797.5 Q224 811 224 830 Q224 849 238 862.5 Q252 876 272 876 Q292 876 306 862.5 Q320 849 320 830 Z M496 830 Q496 811 482 797.5 Q468 784 448 784 Q428 784 414 797.5 Q400 811 400 830 Q400 849 414 862.5 Q428 876 448 876 Q468 876 482 862.5 Q496 849 496 830 Z " />
<glyph glyph-name="multiply" unicode="&#xd7;" horiz-adv-x="581" d="M549 57 L493 6 L290 192 L89 6 L33 57 L234 243 L33 427 L89 479 L290 293 L493 479 L549 427 L347 243 L549 57 Z " />
<glyph glyph-name="Oslash" unicode="&#xd8;" horiz-adv-x="721" d="M123 -24 L68 -24 L581 714 L636 714 L123 -24 Z M360 -15 Q288 -15 231 12 Q174 39 135 87.5 Q96 136 75 203.5 Q54 271 54 353 Q54 435 75 501.5 Q96 568 136 615.5 Q176 663 233 689 Q290 715 361 715 Q432 715 489 689 Q546 663 585.5 615.5 Q625 568 646.5 501.5 Q668 435 668 353 Q668 271 647 203.5 Q626 136 586 87.5 Q546 39 489 12 Q432 -15 360 -15 Z M361 668 Q245 668 183 591 Q121 514 121 353 Q121 192 182 112 Q243 32 361 32 Q479 32 540 112.5 Q601 193 601 353 Q601 514 539 591 Q477 668 361 668 Z " />
<glyph glyph-name="Ugrave" unicode="&#xd9;" horiz-adv-x="675" d="M337 -15 Q293 -15 248 1 Q203 17 167 47.5 Q131 78 108.5 124 Q86 170 86 230 L86 700 L149 700 L149 235 Q149 186 164.5 148.5 Q180 111 206.5 85 Q233 59 267 45.5 Q301 32 337 32 Q376 32 410.5 45.5 Q445 59 471 85.5 Q497 112 512 149.5 Q527 187 527 235 L527 700 L590 700 L590 230 Q590 170 568 124 Q546 78 510.5 47.5 Q475 17 429.5 1 Q384 -15 337 -15 Z M339 916 L422 739 L394 739 L253 916 L339 916 Z " />
<glyph glyph-name="Uacute" unicode="&#xda;" horiz-adv-x="675" d="M337 -15 Q293 -15 248 1 Q203 17 167 47.5 Q131 78 108.5 124 Q86 170 86 230 L86 700 L149 700 L149 235 Q149 186 164.5 148.5 Q180 111 206.5 85 Q233 59 267 45.5 Q301 32 337 32 Q376 32 410.5 45.5 Q445 59 471 85.5 Q497 112 512 149.5 Q527 187 527 235 L527 700 L590 700 L590 230 Q590 170 568 124 Q546 78 510.5 47.5 Q475 17 429.5 1 Q384 -15 337 -15 Z M406 917 L275 740 L247 740 L320 917 L406 917 Z " />
<glyph glyph-name="Ucircumflex" unicode="&#xdb;" horiz-adv-x="675" d="M337 -15 Q293 -15 248 1 Q203 17 167 47.5 Q131 78 108.5 124 Q86 170 86 230 L86 700 L149 700 L149 235 Q149 186 164.5 148.5 Q180 111 206.5 85 Q233 59 267 45.5 Q301 32 337 32 Q376 32 410.5 45.5 Q445 59 471 85.5 Q497 112 512 149.5 Q527 187 527 235 L527 700 L590 700 L590 230 Q590 170 568 124 Q546 78 510.5 47.5 Q475 17 429.5 1 Q384 -15 337 -15 Z M471 739 L444 739 L343 876 L242 739 L215 739 L295 916 L391 916 L471 739 Z " />
<glyph glyph-name="Udieresis" unicode="&#xdc;" horiz-adv-x="675" d="M337 -15 Q293 -15 248 1 Q203 17 167 47.5 Q131 78 108.5 124 Q86 170 86 230 L86 700 L149 700 L149 235 Q149 186 164.5 148.5 Q180 111 206.5 85 Q233 59 267 45.5 Q301 32 337 32 Q376 32 410.5 45.5 Q445 59 471 85.5 Q497 112 512 149.5 Q527 187 527 235 L527 700 L590 700 L590 230 Q590 170 568 124 Q546 78 510.5 47.5 Q475 17 429.5 1 Q384 -15 337 -15 Z M297 830 Q297 811 283 797.5 Q269 784 249 784 Q229 784 215 797.5 Q201 811 201 830 Q201 849 215 862.5 Q229 876 249 876 Q269 876 283 862.5 Q297 849 297 830 Z M473 830 Q473 811 459 797.5 Q445 784 425 784 Q405 784 391 797.5 Q377 811 377 830 Q377 849 391 862.5 Q405 876 425 876 Q445 876 459 862.5 Q473 849 473 830 Z " />
<glyph glyph-name="germandbls" unicode="&#xdf;" horiz-adv-x="611" d="M-20 -173 L5 -173 Q49 -173 72.5 -137 Q96 -101 96 -39 L96 492 Q96 561 108.5 615.5 Q121 670 149.5 707.5 Q178 745 224.5 765 Q271 785 340 785 Q375 785 410.5 773 Q446 761 474 736.5 Q502 712 519.5 675.5 Q537 639 537 590 Q537 528 508 478.5 Q479 429 417 410 Q455 402 484 383 Q513 364 532.5 337.5 Q552 311 561.5 279.5 Q571 248 571 216 Q571 170 557 128.5 Q543 87 515.5 55 Q488 23 447.5 4 Q407 -15 354 -15 Q334 -15 311.5 -12.5 Q289 -10 266 -5 L266 42 Q283 37 301.5 34.5 Q320 32 335 32 Q369 32 399.5 45 Q430 58 453 81.5 Q476 105 490 138 Q504 171 504 212 Q504 261 488.5 293.5 Q473 326 445.5 345.5 Q418 365 380.5 373.5 Q343 382 299 383 L299 432 Q336 433 368 441.5 Q400 450 422.5 467.5 Q445 485 458 514 Q471 543 471 587 Q471 616 461 643 Q451 670 433 690.5 Q415 711 388.5 723.5 Q362 736 329 736 Q279 736 246.5 715.5 Q214 695 194.5 662 Q175 629 167 588.5 Q159 548 159 508 L159 -24 Q159 -52 156.5 -87 Q154 -122 141 -153 Q128 -184 100 -205.5 Q72 -227 22 -227 Q8 -227 -2.5 -226 Q-13 -225 -23 -223 L-20 -173 Z " />
<glyph glyph-name="agrave" unicode="&#xe0;" horiz-adv-x="542" d="M386 1 L386 71 Q363 33 321 9 Q279 -15 221 -15 Q147 -15 100.5 22.5 Q54 60 54 140 Q54 185 74.5 215.5 Q95 246 126.5 265.5 Q158 285 196.5 293.5 Q235 302 271 302 Q285 302 297 302 Q309 302 322 302 Q335 302 350.5 301 Q366 300 386 299 Q386 388 355 432.5 Q324 477 245 477 Q210 477 175 466.5 Q140 456 111 436 L108 481 Q140 501 178 513 Q216 525 260 525 Q363 525 406.5 474 Q450 423 450 317 L450 90 Q450 57 450 36 Q450 15 451 1 L386 1 Z M386 259 Q359 259 342.5 260 Q326 261 311 261 Q290 261 257.5 257 Q225 253 195 240.5 Q165 228 143 204 Q121 180 121 140 Q121 113 129.5 93 Q138 73 153 59.5 Q168 46 187.5 39.5 Q207 33 229 33 Q267 33 296.5 45.5 Q326 58 346 80 Q366 102 376 131.5 Q386 161 386 194 L386 259 Z M293 766 L376 589 L348 589 L207 766 L293 766 Z " />
<glyph glyph-name="aacute" unicode="&#xe1;" horiz-adv-x="542" d="M386 1 L386 71 Q363 33 321 9 Q279 -15 221 -15 Q147 -15 100.5 22.5 Q54 60 54 140 Q54 185 74.5 215.5 Q95 246 126.5 265.5 Q158 285 196.5 293.5 Q235 302 271 302 Q285 302 297 302 Q309 302 322 302 Q335 302 350.5 301 Q366 300 386 299 Q386 388 355 432.5 Q324 477 245 477 Q210 477 175 466.5 Q140 456 111 436 L108 481 Q140 501 178 513 Q216 525 260 525 Q363 525 406.5 474 Q450 423 450 317 L450 90 Q450 57 450 36 Q450 15 451 1 L386 1 Z M386 259 Q359 259 342.5 260 Q326 261 311 261 Q290 261 257.5 257 Q225 253 195 240.5 Q165 228 143 204 Q121 180 121 140 Q121 113 129.5 93 Q138 73 153 59.5 Q168 46 187.5 39.5 Q207 33 229 33 Q267 33 296.5 45.5 Q326 58 346 80 Q366 102 376 131.5 Q386 161 386 194 L386 259 Z M340 767 L209 590 L181 590 L254 767 L340 767 Z " />
<glyph glyph-name="acircumflex" unicode="&#xe2;" horiz-adv-x="542" d="M386 1 L386 71 Q363 33 321 9 Q279 -15 221 -15 Q147 -15 100.5 22.5 Q54 60 54 140 Q54 185 74.5 215.5 Q95 246 126.5 265.5 Q158 285 196.5 293.5 Q235 302 271 302 Q285 302 297 302 Q309 302 322 302 Q335 302 350.5 301 Q366 300 386 299 Q386 388 355 432.5 Q324 477 245 477 Q210 477 175 466.5 Q140 456 111 436 L108 481 Q140 501 178 513 Q216 525 260 525 Q363 525 406.5 474 Q450 423 450 317 L450 90 Q450 57 450 36 Q450 15 451 1 L386 1 Z M386 259 Q359 259 342.5 260 Q326 261 311 261 Q290 261 257.5 257 Q225 253 195 240.5 Q165 228 143 204 Q121 180 121 140 Q121 113 129.5 93 Q138 73 153 59.5 Q168 46 187.5 39.5 Q207 33 229 33 Q267 33 296.5 45.5 Q326 58 346 80 Q366 102 376 131.5 Q386 161 386 194 L386 259 Z M387 589 L360 589 L259 726 L158 589 L131 589 L211 766 L307 766 L387 589 Z " />
<glyph glyph-name="atilde" unicode="&#xe3;" horiz-adv-x="542" d="M386 1 L386 71 Q363 33 321 9 Q279 -15 221 -15 Q147 -15 100.5 22.5 Q54 60 54 140 Q54 185 74.5 215.5 Q95 246 126.5 265.5 Q158 285 196.5 293.5 Q235 302 271 302 Q285 302 297 302 Q309 302 322 302 Q335 302 350.5 301 Q366 300 386 299 Q386 388 355 432.5 Q324 477 245 477 Q210 477 175 466.5 Q140 456 111 436 L108 481 Q140 501 178 513 Q216 525 260 525 Q363 525 406.5 474 Q450 423 450 317 L450 90 Q450 57 450 36 Q450 15 451 1 L386 1 Z M386 259 Q359 259 342.5 260 Q326 261 311 261 Q290 261 257.5 257 Q225 253 195 240.5 Q165 228 143 204 Q121 180 121 140 Q121 113 129.5 93 Q138 73 153 59.5 Q168 46 187.5 39.5 Q207 33 229 33 Q267 33 296.5 45.5 Q326 58 346 80 Q366 102 376 131.5 Q386 161 386 194 L386 259 Z M428 680 Q428 644 395 625 Q367 609 329 609 Q284 609 235 629 Q227 633 219.5 637 Q212 641 204 645 Q184 654 171 654 Q130 654 127 618 L106 618 Q106 631 114 645 Q141 696 207 696 Q244 696 295 674 Q349 653 369 653 Q404 653 406 680 L428 680 Z " />
<glyph glyph-name="adieresis" unicode="&#xe4;" horiz-adv-x="542" d="M386 1 L386 71 Q363 33 321 9 Q279 -15 221 -15 Q147 -15 100.5 22.5 Q54 60 54 140 Q54 185 74.5 215.5 Q95 246 126.5 265.5 Q158 285 196.5 293.5 Q235 302 271 302 Q285 302 297 302 Q309 302 322 302 Q335 302 350.5 301 Q366 300 386 299 Q386 388 355 432.5 Q324 477 245 477 Q210 477 175 466.5 Q140 456 111 436 L108 481 Q140 501 178 513 Q216 525 260 525 Q363 525 406.5 474 Q450 423 450 317 L450 90 Q450 57 450 36 Q450 15 451 1 L386 1 Z M386 259 Q359 259 342.5 260 Q326 261 311 261 Q290 261 257.5 257 Q225 253 195 240.5 Q165 228 143 204 Q121 180 121 140 Q121 113 129.5 93 Q138 73 153 59.5 Q168 46 187.5 39.5 Q207 33 229 33 Q267 33 296.5 45.5 Q326 58 346 80 Q366 102 376 131.5 Q386 161 386 194 L386 259 Z M231 655 Q231 636 217 622.5 Q203 609 183 609 Q163 609 149 622.5 Q135 636 135 655 Q135 674 149 687.5 Q163 701 183 701 Q203 701 217 687.5 Q231 674 231 655 Z M407 655 Q407 636 393 622.5 Q379 609 359 609 Q339 609 325 622.5 Q311 636 311 655 Q311 674 325 687.5 Q339 701 359 701 Q379 701 393 687.5 Q407 674 407 655 Z " />
<glyph glyph-name="aring" unicode="&#xe5;" horiz-adv-x="542" d="M386 1 L386 71 Q363 33 321 9 Q279 -15 221 -15 Q147 -15 100.5 22.5 Q54 60 54 140 Q54 185 74.5 215.5 Q95 246 126.5 265.5 Q158 285 196.5 293.5 Q235 302 271 302 Q285 302 297 302 Q309 302 322 302 Q335 302 350.5 301 Q366 300 386 299 Q386 388 355 432.5 Q324 477 245 477 Q210 477 175 466.5 Q140 456 111 436 L108 481 Q140 501 178 513 Q216 525 260 525 Q363 525 406.5 474 Q450 423 450 317 L450 90 Q450 57 450 36 Q450 15 451 1 L386 1 Z M386 259 Q359 259 342.5 260 Q326 261 311 261 Q290 261 257.5 257 Q225 253 195 240.5 Q165 228 143 204 Q121 180 121 140 Q121 113 129.5 93 Q138 73 153 59.5 Q168 46 187.5 39.5 Q207 33 229 33 Q267 33 296.5 45.5 Q326 58 346 80 Q366 102 376 131.5 Q386 161 386 194 L386 259 Z M333 657 Q333 631 315 613 Q297 595 271 595 Q245 595 227 613 Q209 631 209 657 Q209 682 227 700 Q245 718 271 718 Q297 718 315 700 Q333 682 333 657 Z M304 657 Q304 670 294 680 Q284 690 271 690 Q238 690 238 657 Q238 624 271 624 Q284 624 294 633.5 Q304 643 304 657 Z " />
<glyph glyph-name="ae" unicode="&#xe6;" horiz-adv-x="881" d="M450 249 L450 239 Q451 191 467.5 153.5 Q484 116 510.5 90 Q537 64 570.5 50 Q604 36 639 36 Q678 36 716.5 49.5 Q755 63 781 77 L781 18 Q744 3 708.5 -4.5 Q673 -12 635 -12 Q557 -12 504.5 16.5 Q452 45 423 97 Q403 58 378 35.5 Q353 13 326 2 Q299 -9 272 -12 Q245 -15 221 -15 Q147 -15 100.5 22.5 Q54 60 54 140 Q54 185 74.5 215.5 Q95 246 126.5 265.5 Q158 285 196.5 293.5 Q235 302 271 302 Q285 302 297 302 Q309 302 322 302 Q335 302 350.5 301 Q366 300 386 299 Q386 388 355 432.5 Q324 477 245 477 Q210 477 175 466.5 Q140 456 111 436 L108 481 Q140 501 178 513 Q216 525 260 525 Q330 525 371.5 502 Q413 479 432 431 Q462 474 507.5 498 Q553 522 610 522 Q667 522 706 502.5 Q745 483 769.5 447 Q794 411 805.5 360.5 Q817 310 818 249 L450 249 Z M386 259 Q359 259 342.5 260 Q326 261 311 261 Q290 261 257.5 257 Q225 253 195 240.5 Q165 228 143 204 Q121 180 121 140 Q121 113 129.5 93 Q138 73 153 59.5 Q168 46 187.5 39.5 Q207 33 229 33 Q267 33 296.5 45.5 Q326 58 346 80 Q366 102 376 131.5 Q386 161 386 194 L386 259 Z M608 474 Q569 474 541 458.5 Q513 443 494 417 Q475 391 464.5 358 Q454 325 450 291 L752 291 Q752 331 742.5 364.5 Q733 398 714.5 422.5 Q696 447 669 460.5 Q642 474 608 474 Z " />
<glyph glyph-name="ccedilla" unicode="&#xe7;" horiz-adv-x="496" d="M299 -11 Q247 -11 203.5 10.5 Q160 32 128 68 Q96 104 78 151.5 Q60 199 60 252 Q60 310 79.5 359 Q99 408 132 444 Q165 480 207.5 500 Q250 520 297 520 Q319 520 337 518.5 Q355 517 371 514 Q387 511 402.5 506.5 Q418 502 435 496 L430 441 Q399 458 371.5 465 Q344 472 304 472 Q271 472 239 457 Q207 442 182 414 Q157 386 141.5 345.5 Q126 305 126 254 Q126 206 140.5 166 Q155 126 179.5 97.5 Q204 69 235.5 53 Q267 37 301 37 Q343 37 372.5 43.5 Q402 50 431 67 L435 13 Q401 0 367.5 -5.5 Q334 -11 299 -11 Z M372 -91 Q372 -150 291 -150 Q256 -150 208 -137 L207 -106 Q261 -118 290 -118 Q325 -118 325 -93 Q325 -61 266 -67 L266 -6 L291 -6 L291 -37 Q372 -37 372 -91 Z " />
<glyph glyph-name="egrave" unicode="&#xe8;" horiz-adv-x="556" d="M129 249 Q129 199 144.5 159.5 Q160 120 185.5 92.5 Q211 65 244.5 50.5 Q278 36 314 36 Q353 36 391.5 49.5 Q430 63 456 77 L456 18 Q419 3 383.5 -4.5 Q348 -12 310 -12 Q246 -12 199 7.5 Q152 27 121.5 63.5 Q91 100 76 151 Q61 202 61 265 Q61 322 77 369.5 Q93 417 122.5 450.5 Q152 484 193.5 503 Q235 522 285 522 Q342 522 381 502.5 Q420 483 444.5 447 Q469 411 480.5 360.5 Q492 310 493 249 L129 249 Z M283 474 Q244 474 216 458.5 Q188 443 169.5 417 Q151 391 141 358 Q131 325 127 291 L427 291 Q427 331 417.5 364.5 Q408 398 389.5 422.5 Q371 447 344 460.5 Q317 474 283 474 Z M300 766 L383 589 L355 589 L214 766 L300 766 Z " />
<glyph glyph-name="eacute" unicode="&#xe9;" horiz-adv-x="556" d="M129 249 Q129 199 144.5 159.5 Q160 120 185.5 92.5 Q211 65 244.5 50.5 Q278 36 314 36 Q353 36 391.5 49.5 Q430 63 456 77 L456 18 Q419 3 383.5 -4.5 Q348 -12 310 -12 Q246 -12 199 7.5 Q152 27 121.5 63.5 Q91 100 76 151 Q61 202 61 265 Q61 322 77 369.5 Q93 417 122.5 450.5 Q152 484 193.5 503 Q235 522 285 522 Q342 522 381 502.5 Q420 483 444.5 447 Q469 411 480.5 360.5 Q492 310 493 249 L129 249 Z M283 474 Q244 474 216 458.5 Q188 443 169.5 417 Q151 391 141 358 Q131 325 127 291 L427 291 Q427 331 417.5 364.5 Q408 398 389.5 422.5 Q371 447 344 460.5 Q317 474 283 474 Z M347 767 L216 590 L188 590 L261 767 L347 767 Z " />
<glyph glyph-name="ecircumflex" unicode="&#xea;" horiz-adv-x="556" d="M129 249 Q129 199 144.5 159.5 Q160 120 185.5 92.5 Q211 65 244.5 50.5 Q278 36 314 36 Q353 36 391.5 49.5 Q430 63 456 77 L456 18 Q419 3 383.5 -4.5 Q348 -12 310 -12 Q246 -12 199 7.5 Q152 27 121.5 63.5 Q91 100 76 151 Q61 202 61 265 Q61 322 77 369.5 Q93 417 122.5 450.5 Q152 484 193.5 503 Q235 522 285 522 Q342 522 381 502.5 Q420 483 444.5 447 Q469 411 480.5 360.5 Q492 310 493 249 L129 249 Z M283 474 Q244 474 216 458.5 Q188 443 169.5 417 Q151 391 141 358 Q131 325 127 291 L427 291 Q427 331 417.5 364.5 Q408 398 389.5 422.5 Q371 447 344 460.5 Q317 474 283 474 Z M414 589 L387 589 L286 726 L185 589 L158 589 L238 766 L334 766 L414 589 Z " />
<glyph glyph-name="edieresis" unicode="&#xeb;" horiz-adv-x="556" d="M129 249 Q129 199 144.5 159.5 Q160 120 185.5 92.5 Q211 65 244.5 50.5 Q278 36 314 36 Q353 36 391.5 49.5 Q430 63 456 77 L456 18 Q419 3 383.5 -4.5 Q348 -12 310 -12 Q246 -12 199 7.5 Q152 27 121.5 63.5 Q91 100 76 151 Q61 202 61 265 Q61 322 77 369.5 Q93 417 122.5 450.5 Q152 484 193.5 503 Q235 522 285 522 Q342 522 381 502.5 Q420 483 444.5 447 Q469 411 480.5 360.5 Q492 310 493 249 L129 249 Z M283 474 Q244 474 216 458.5 Q188 443 169.5 417 Q151 391 141 358 Q131 325 127 291 L427 291 Q427 331 417.5 364.5 Q408 398 389.5 422.5 Q371 447 344 460.5 Q317 474 283 474 Z M228 650 Q228 631 214 617.5 Q200 604 180 604 Q160 604 146 617.5 Q132 631 132 650 Q132 669 146 682.5 Q160 696 180 696 Q200 696 214 682.5 Q228 669 228 650 Z M404 650 Q404 631 390 617.5 Q376 604 356 604 Q336 604 322 617.5 Q308 631 308 650 Q308 669 322 682.5 Q336 696 356 696 Q376 696 390 682.5 Q404 669 404 650 Z " />
<glyph glyph-name="igrave" unicode="&#xec;" horiz-adv-x="254" d="M96 0 L96 510 L159 510 L159 0 L96 0 Z M129 766 L212 589 L184 589 L43 766 L129 766 Z " />
<glyph glyph-name="iacute" unicode="&#xed;" horiz-adv-x="254" d="M96 0 L96 510 L159 510 L159 0 L96 0 Z M196 767 L65 590 L37 590 L110 767 L196 767 Z " />
<glyph glyph-name="icircumflex" unicode="&#xee;" horiz-adv-x="254" d="M96 0 L96 510 L159 510 L159 0 L96 0 Z M257 589 L230 589 L129 726 L28 589 L1 589 L81 766 L177 766 L257 589 Z " />
<glyph glyph-name="idieresis" unicode="&#xef;" horiz-adv-x="254" d="M96 0 L96 510 L159 510 L159 0 L96 0 Z M88 650 Q88 631 74 617.5 Q60 604 40 604 Q20 604 6 617.5 Q-8 631 -8 650 Q-8 669 6 682.5 Q20 696 40 696 Q60 696 74 682.5 Q88 669 88 650 Z M264 650 Q264 631 250 617.5 Q236 604 216 604 Q196 604 182 617.5 Q168 631 168 650 Q168 669 182 682.5 Q196 696 216 696 Q236 696 250 682.5 Q264 669 264 650 Z " />
<glyph glyph-name="ntilde" unicode="&#xf1;" horiz-adv-x="604" d="M453 0 L453 267 Q453 315 448 353.5 Q443 392 429.5 420 Q416 448 392 463 Q368 478 329 478 Q284 478 251.5 459 Q219 440 198.5 407.5 Q178 375 168.5 331.5 Q159 288 159 238 L159 0 L96 0 L96 510 L159 510 L159 423 Q169 448 187.5 467 Q206 486 230 499 Q254 512 282 518.5 Q310 525 340 525 Q431 525 473.5 469.5 Q516 414 516 309 L516 0 L453 0 Z M459 680 Q459 644 426 625 Q398 609 360 609 Q315 609 266 629 Q258 633 250.5 637 Q243 641 235 645 Q215 654 202 654 Q161 654 158 618 L137 618 Q137 631 145 645 Q172 696 238 696 Q275 696 326 674 Q380 653 400 653 Q435 653 437 680 L459 680 Z " />
<glyph glyph-name="ograve" unicode="&#xf2;" horiz-adv-x="611" d="M306 -15 Q252 -15 206.5 6.5 Q161 28 128.5 64.5 Q96 101 78 150 Q60 199 60 255 Q60 313 78 362.5 Q96 412 128 448 Q160 484 205.5 504.5 Q251 525 306 525 Q361 525 406.5 504.5 Q452 484 484 448 Q516 412 534 362.5 Q552 313 552 255 Q552 199 534 150 Q516 101 483 64.5 Q450 28 405 6.5 Q360 -15 306 -15 Z M306 477 Q264 477 231 459 Q198 441 174.5 411 Q151 381 139 340.5 Q127 300 127 255 Q127 213 137.5 173 Q148 133 170 102 Q192 71 226 52 Q260 33 306 33 Q351 33 385 52 Q419 71 441 102 Q463 133 474 173 Q485 213 485 255 Q485 300 472.5 340.5 Q460 381 437 411 Q414 441 381 459 Q348 477 306 477 Z M327 766 L410 589 L382 589 L241 766 L327 766 Z " />
<glyph glyph-name="oacute" unicode="&#xf3;" horiz-adv-x="611" d="M306 -15 Q252 -15 206.5 6.5 Q161 28 128.5 64.5 Q96 101 78 150 Q60 199 60 255 Q60 313 78 362.5 Q96 412 128 448 Q160 484 205.5 504.5 Q251 525 306 525 Q361 525 406.5 504.5 Q452 484 484 448 Q516 412 534 362.5 Q552 313 552 255 Q552 199 534 150 Q516 101 483 64.5 Q450 28 405 6.5 Q360 -15 306 -15 Z M306 477 Q264 477 231 459 Q198 441 174.5 411 Q151 381 139 340.5 Q127 300 127 255 Q127 213 137.5 173 Q148 133 170 102 Q192 71 226 52 Q260 33 306 33 Q351 33 385 52 Q419 71 441 102 Q463 133 474 173 Q485 213 485 255 Q485 300 472.5 340.5 Q460 381 437 411 Q414 441 381 459 Q348 477 306 477 Z M374 767 L243 590 L215 590 L288 767 L374 767 Z " />
<glyph glyph-name="ocircumflex" unicode="&#xf4;" horiz-adv-x="611" d="M306 -15 Q252 -15 206.5 6.5 Q161 28 128.5 64.5 Q96 101 78 150 Q60 199 60 255 Q60 313 78 362.5 Q96 412 128 448 Q160 484 205.5 504.5 Q251 525 306 525 Q361 525 406.5 504.5 Q452 484 484 448 Q516 412 534 362.5 Q552 313 552 255 Q552 199 534 150 Q516 101 483 64.5 Q450 28 405 6.5 Q360 -15 306 -15 Z M306 477 Q264 477 231 459 Q198 441 174.5 411 Q151 381 139 340.5 Q127 300 127 255 Q127 213 137.5 173 Q148 133 170 102 Q192 71 226 52 Q260 33 306 33 Q351 33 385 52 Q419 71 441 102 Q463 133 474 173 Q485 213 485 255 Q485 300 472.5 340.5 Q460 381 437 411 Q414 441 381 459 Q348 477 306 477 Z M439 589 L412 589 L311 726 L210 589 L183 589 L263 766 L359 766 L439 589 Z " />
<glyph glyph-name="otilde" unicode="&#xf5;" horiz-adv-x="611" d="M306 -15 Q252 -15 206.5 6.5 Q161 28 128.5 64.5 Q96 101 78 150 Q60 199 60 255 Q60 313 78 362.5 Q96 412 128 448 Q160 484 205.5 504.5 Q251 525 306 525 Q361 525 406.5 504.5 Q452 484 484 448 Q516 412 534 362.5 Q552 313 552 255 Q552 199 534 150 Q516 101 483 64.5 Q450 28 405 6.5 Q360 -15 306 -15 Z M306 477 Q264 477 231 459 Q198 441 174.5 411 Q151 381 139 340.5 Q127 300 127 255 Q127 213 137.5 173 Q148 133 170 102 Q192 71 226 52 Q260 33 306 33 Q351 33 385 52 Q419 71 441 102 Q463 133 474 173 Q485 213 485 255 Q485 300 472.5 340.5 Q460 381 437 411 Q414 441 381 459 Q348 477 306 477 Z M472 680 Q472 644 439 625 Q411 609 373 609 Q328 609 279 629 Q271 633 263.5 637 Q256 641 248 645 Q228 654 215 654 Q174 654 171 618 L150 618 Q150 631 158 645 Q185 696 251 696 Q288 696 339 674 Q393 653 413 653 Q448 653 450 680 L472 680 Z " />
<glyph glyph-name="odieresis" unicode="&#xf6;" horiz-adv-x="611" d="M306 -15 Q252 -15 206.5 6.5 Q161 28 128.5 64.5 Q96 101 78 150 Q60 199 60 255 Q60 313 78 362.5 Q96 412 128 448 Q160 484 205.5 504.5 Q251 525 306 525 Q361 525 406.5 504.5 Q452 484 484 448 Q516 412 534 362.5 Q552 313 552 255 Q552 199 534 150 Q516 101 483 64.5 Q450 28 405 6.5 Q360 -15 306 -15 Z M306 477 Q264 477 231 459 Q198 441 174.5 411 Q151 381 139 340.5 Q127 300 127 255 Q127 213 137.5 173 Q148 133 170 102 Q192 71 226 52 Q260 33 306 33 Q351 33 385 52 Q419 71 441 102 Q463 133 474 173 Q485 213 485 255 Q485 300 472.5 340.5 Q460 381 437 411 Q414 441 381 459 Q348 477 306 477 Z M265 650 Q265 631 251 617.5 Q237 604 217 604 Q197 604 183 617.5 Q169 631 169 650 Q169 669 183 682.5 Q197 696 217 696 Q237 696 251 682.5 Q265 669 265 650 Z M441 650 Q441 631 427 617.5 Q413 604 393 604 Q373 604 359 617.5 Q345 631 345 650 Q345 669 359 682.5 Q373 696 393 696 Q413 696 427 682.5 Q441 669 441 650 Z " />
<glyph glyph-name="divide" unicode="&#xf7;" horiz-adv-x="529" d="M353 533 Q353 501 329 479 Q305 457 270 457 Q235 457 211 479 Q187 501 187 533 Q187 565 211 587 Q235 609 270 609 Q305 609 329 587 Q353 565 353 533 Z M465 312 L73 312 L73 392 L465 392 L465 312 Z M353 161 Q353 145 346.5 131 Q340 117 328.5 106.5 Q317 96 302 90 Q287 84 270 84 Q253 84 238 90 Q223 96 211.5 106.5 Q200 117 193.5 131 Q187 145 187 161 Q187 193 211 215 Q235 237 270 237 Q305 237 329 215 Q353 193 353 161 Z " />
<glyph glyph-name="oslash" unicode="&#xf8;" horiz-adv-x="611" d="M123 -24 L68 -24 L465 546 L520 546 L123 -24 Z M306 -15 Q252 -15 206.5 6.5 Q161 28 128.5 64.5 Q96 101 78 150 Q60 199 60 255 Q60 313 78 362.5 Q96 412 128 448 Q160 484 205.5 504.5 Q251 525 306 525 Q361 525 406.5 504.5 Q452 484 484 448 Q516 412 534 362.5 Q552 313 552 255 Q552 199 534 150 Q516 101 483 64.5 Q450 28 405 6.5 Q360 -15 306 -15 Z M306 477 Q264 477 231 459 Q198 441 174.5 411 Q151 381 139 340.5 Q127 300 127 255 Q127 213 137.5 173 Q148 133 170 102 Q192 71 226 52 Q260 33 306 33 Q351 33 385 52 Q419 71 441 102 Q463 133 474 173 Q485 213 485 255 Q485 300 472.5 340.5 Q460 381 437 411 Q414 441 381 459 Q348 477 306 477 Z " />
<glyph glyph-name="ugrave" unicode="&#xf9;" horiz-adv-x="604" d="M152 510 L152 243 Q152 195 156.5 156.5 Q161 118 174.5 90 Q188 62 212.5 47 Q237 32 276 32 Q321 32 353.5 51 Q386 70 406.5 102.5 Q427 135 436.5 178.5 Q446 222 446 272 L446 510 L509 510 L509 0 L446 0 L446 87 Q435 62 417 43 Q399 24 375 11 Q351 -2 323 -8.5 Q295 -15 265 -15 Q174 -15 131.5 40.5 Q89 96 89 201 L89 510 L152 510 Z M284 766 L367 589 L339 589 L198 766 L284 766 Z " />
<glyph glyph-name="uacute" unicode="&#xfa;" horiz-adv-x="604" d="M152 510 L152 243 Q152 195 156.5 156.5 Q161 118 174.5 90 Q188 62 212.5 47 Q237 32 276 32 Q321 32 353.5 51 Q386 70 406.5 102.5 Q427 135 436.5 178.5 Q446 222 446 272 L446 510 L509 510 L509 0 L446 0 L446 87 Q435 62 417 43 Q399 24 375 11 Q351 -2 323 -8.5 Q295 -15 265 -15 Q174 -15 131.5 40.5 Q89 96 89 201 L89 510 L152 510 Z M371 767 L240 590 L212 590 L285 767 L371 767 Z " />
<glyph glyph-name="ucircumflex" unicode="&#xfb;" horiz-adv-x="604" d="M152 510 L152 243 Q152 195 156.5 156.5 Q161 118 174.5 90 Q188 62 212.5 47 Q237 32 276 32 Q321 32 353.5 51 Q386 70 406.5 102.5 Q427 135 436.5 178.5 Q446 222 446 272 L446 510 L509 510 L509 0 L446 0 L446 87 Q435 62 417 43 Q399 24 375 11 Q351 -2 323 -8.5 Q295 -15 265 -15 Q174 -15 131.5 40.5 Q89 96 89 201 L89 510 L152 510 Z M427 589 L400 589 L299 726 L198 589 L171 589 L251 766 L347 766 L427 589 Z " />
<glyph glyph-name="udieresis" unicode="&#xfc;" horiz-adv-x="604" d="M152 510 L152 243 Q152 195 156.5 156.5 Q161 118 174.5 90 Q188 62 212.5 47 Q237 32 276 32 Q321 32 353.5 51 Q386 70 406.5 102.5 Q427 135 436.5 178.5 Q446 222 446 272 L446 510 L509 510 L509 0 L446 0 L446 87 Q435 62 417 43 Q399 24 375 11 Q351 -2 323 -8.5 Q295 -15 265 -15 Q174 -15 131.5 40.5 Q89 96 89 201 L89 510 L152 510 Z M262 650 Q262 631 248 617.5 Q234 604 214 604 Q194 604 180 617.5 Q166 631 166 650 Q166 669 180 682.5 Q194 696 214 696 Q234 696 248 682.5 Q262 669 262 650 Z M438 650 Q438 631 424 617.5 Q410 604 390 604 Q370 604 356 617.5 Q342 631 342 650 Q342 669 356 682.5 Q370 696 390 696 Q410 696 424 682.5 Q438 669 438 650 Z " />
<glyph glyph-name="ydieresis" unicode="&#xff;" horiz-adv-x="501" d="M291 -12 Q276 -56 261.5 -90.5 Q247 -125 224 -157 Q204 -186 175.5 -204 Q147 -222 105 -222 Q89 -222 78 -221 Q67 -220 58 -218 L61 -171 Q68 -173 75.5 -174 Q83 -175 91 -175 Q128 -175 152 -154.5 Q176 -134 189.5 -108.5 Q203 -83 208 -60.5 Q213 -38 213 -34 Q213 -18 206.5 1.5 Q200 21 195 35 L34 510 L104 510 L254 47 L406 510 L468 510 L291 -12 Z M210 650 Q210 631 196 617.5 Q182 604 162 604 Q142 604 128 617.5 Q114 631 114 650 Q114 669 128 682.5 Q142 696 162 696 Q182 696 196 682.5 Q210 669 210 650 Z M386 650 Q386 631 372 617.5 Q358 604 338 604 Q318 604 304 617.5 Q290 631 290 650 Q290 669 304 682.5 Q318 696 338 696 Q358 696 372 682.5 Q386 669 386 650 Z " />
<glyph glyph-name="dotlessi" unicode="&#x131;" horiz-adv-x="254" d="M96 0 L96 510 L159 510 L159 0 L96 0 Z " />
<glyph glyph-name="Lslash" unicode="&#x141;" horiz-adv-x="537" d="M59 177 L4 177 L235 510 L290 510 L59 177 Z M89 0 L89 700 L152 700 L152 48 L498 48 L498 0 L89 0 Z " />
<glyph glyph-name="lslash" unicode="&#x142;" horiz-adv-x="254" d="M39 177 L-16 177 L215 510 L270 510 L39 177 Z M96 0 L96 700 L159 700 L159 0 L96 0 Z " />
<glyph glyph-name="OE" unicode="&#x152;" horiz-adv-x="1139" d="M604 0 L604 112 Q564 52 502.5 18.5 Q441 -15 360 -15 Q288 -15 231 12 Q174 39 135 87.5 Q96 136 75 203.5 Q54 271 54 353 Q54 435 75 501.5 Q96 568 136 615.5 Q176 663 233 689 Q290 715 361 715 Q441 715 502.5 682.5 Q564 650 604 591 L604 700 L1055 700 L1055 653 L667 653 L667 387 L1032 387 L1032 340 L668 340 Q668 335 667.5 330.5 Q667 326 667 321 L667 48 L1072 48 L1072 0 L604 0 Z M361 668 Q245 668 183 591 Q121 514 121 353 Q121 192 182 112 Q243 32 361 32 Q479 32 540 112.5 Q601 193 601 353 Q601 514 539 591 Q477 668 361 668 Z " />
<glyph glyph-name="oe" unicode="&#x153;" horiz-adv-x="980" d="M553 249 Q553 199 568.5 159.5 Q584 120 609.5 92.5 Q635 65 668.5 50.5 Q702 36 738 36 Q777 36 815.5 49.5 Q854 63 880 77 L880 18 Q843 3 807.5 -4.5 Q772 -12 734 -12 Q651 -12 597 20 Q543 52 515 110 Q483 53 429 19 Q375 -15 306 -15 Q252 -15 206.5 6.5 Q161 28 128.5 64.5 Q96 101 78 150 Q60 199 60 255 Q60 313 78 362.5 Q96 412 128 448 Q160 484 205.5 504.5 Q251 525 306 525 Q377 525 430.5 492.5 Q484 460 515 404 Q543 459 593 490.5 Q643 522 709 522 Q766 522 805 502.5 Q844 483 868.5 447 Q893 411 904.5 360.5 Q916 310 917 249 L553 249 Z M306 477 Q264 477 231 459 Q198 441 174.5 411 Q151 381 139 340.5 Q127 300 127 255 Q127 213 137.5 173 Q148 133 170 102 Q192 71 226 52 Q260 33 306 33 Q351 33 384.5 51.5 Q418 70 440 101 Q462 132 473.5 171 Q485 210 485 252 L485 255 Q485 300 472.5 340.5 Q460 381 437 411 Q414 441 381 459 Q348 477 306 477 Z M707 474 Q668 474 640 458.5 Q612 443 593.5 417 Q575 391 565 358 Q555 325 551 291 L851 291 Q851 331 841.5 364.5 Q832 398 813.5 422.5 Q795 447 768 460.5 Q741 474 707 474 Z " />
<glyph glyph-name="Scaron" unicode="&#x160;" horiz-adv-x="608" d="M298 -15 Q242 -15 192 -8 Q142 -1 89 17 L93 70 Q141 42 192.5 37 Q244 32 298 32 Q333 32 366 38 Q399 44 424 59.5 Q449 75 464 101.5 Q479 128 479 169 Q479 213 460.5 242.5 Q442 272 412.5 290.5 Q383 309 346.5 320.5 Q310 332 275 340 Q235 349 197.5 365 Q160 381 130.5 405.5 Q101 430 83.5 464 Q66 498 66 545 Q66 590 87 622 Q108 654 140.5 675 Q173 696 213 705.5 Q253 715 292 715 Q345 715 388 707.5 Q431 700 481 683 L476 629 Q433 652 386.5 659.5 Q340 667 292 667 Q263 667 234 661 Q205 655 182 641 Q159 627 144.5 603.5 Q130 580 130 546 Q130 504 146 476 Q162 448 188.5 430 Q215 412 248 401 Q281 390 314 381 Q356 370 397.5 354.5 Q439 339 471 315 Q503 291 523 256 Q543 221 543 170 Q543 115 522.5 79.5 Q502 44 467.5 23 Q433 2 389 -6.5 Q345 -15 298 -15 Z M331 739 L235 739 L155 916 L182 916 L283 769 L384 916 L411 916 L331 739 Z " />
<glyph glyph-name="scaron" unicode="&#x161;" horiz-adv-x="385" d="M177 -15 Q145 -15 113.5 -10.5 Q82 -6 53 8 L56 61 Q78 50 106 41.5 Q134 33 159 33 Q182 33 204 38 Q226 43 243 54 Q260 65 270.5 84 Q281 103 281 130 Q281 161 263.5 181 Q246 201 220 215.5 Q194 230 164 243 Q134 256 108 273.5 Q82 291 64.5 316.5 Q47 342 47 382 Q47 421 60 448 Q73 475 95.5 492 Q118 509 148.5 517 Q179 525 214 525 Q240 525 264.5 520.5 Q289 516 314 508 L310 458 Q293 464 267.5 470.5 Q242 477 224 477 Q203 477 183 473 Q163 469 147 459 Q131 449 121.5 432 Q112 415 112 390 Q112 355 129 333.5 Q146 312 172 297 Q198 282 228 269.5 Q258 257 284 239.5 Q310 222 327 196.5 Q344 171 344 130 Q344 94 330.5 67 Q317 40 293.5 21.5 Q270 3 240 -6 Q210 -15 177 -15 Z M231 589 L135 589 L55 766 L82 766 L183 619 L284 766 L311 766 L231 589 Z " />
<glyph glyph-name="Zcaron" unicode="&#x17d;" horiz-adv-x="599" d="M40 0 L40 61 L489 653 L70 653 L70 700 L548 700 L548 628 L109 48 L548 48 L548 0 L40 0 Z M341 739 L245 739 L165 916 L192 916 L293 769 L394 916 L421 916 L341 739 Z " />
<glyph glyph-name="zcaron" unicode="&#x17e;" horiz-adv-x="500" d="M59 0 L59 59 L370 462 L73 462 L73 510 L431 510 L431 451 L119 48 L442 48 L442 0 L59 0 Z M291 589 L195 589 L115 766 L142 766 L243 619 L344 766 L371 766 L291 589 Z " />
<glyph glyph-name="circumflex" unicode="&#x2c6;" horiz-adv-x="296" d="M276 739 L249 739 L148 876 L47 739 L20 739 L100 916 L196 916 L276 739 Z " />
<glyph glyph-name="caron" unicode="&#x2c7;" horiz-adv-x="328" d="M211 739 L115 739 L35 916 L62 916 L163 769 L264 916 L291 916 L211 739 Z " />
<glyph glyph-name="ring" unicode="&#x2da;" horiz-adv-x="196" d="M161 807 Q161 781 143 763 Q125 745 99 745 Q73 745 55 763 Q37 781 37 807 Q37 832 55 850 Q73 868 99 868 Q125 868 143 850 Q161 832 161 807 Z M132 807 Q132 820 122 830 Q112 840 99 840 Q66 840 66 807 Q66 774 99 774 Q112 774 122 783.5 Q132 793 132 807 Z " />
<glyph glyph-name="ogonek" unicode="&#x2db;" horiz-adv-x="346" d="M224 -150 L195 -150 Q119 -150 119 -93 Q119 -51 182 0 L210 0 Q163 -42 163 -75 Q163 -97 185 -101 L224 -101 L224 -150 Z " />
<glyph glyph-name="tilde" unicode="&#x2dc;" horiz-adv-x="404" d="M356 830 Q356 794 323 775 Q295 759 257 759 Q212 759 163 779 Q155 783 147.5 787 Q140 791 132 795 Q112 804 99 804 Q58 804 55 768 L34 768 Q34 781 42 795 Q69 846 135 846 Q172 846 223 824 Q277 803 297 803 Q332 803 334 830 L356 830 Z " />
<glyph glyph-name="hungarumlaut" unicode="&#x2dd;" horiz-adv-x="341" d="M199 916 L58 739 L30 739 L113 916 L199 916 Z M319 916 L178 739 L150 739 L233 916 L319 916 Z " />
<glyph glyph-name="uni05B0" unicode="&#x5b0;" d="M31 -133 Q31 -146 22 -155.5 Q13 -165 0 -165 Q-14 -165 -23 -155.5 Q-32 -146 -32 -133 Q-32 -120 -23 -111 Q-14 -102 -1 -102 Q13 -102 22 -111 Q31 -120 31 -133 Z M31 -227 Q31 -240 22 -249 Q13 -258 0 -258 Q-14 -258 -23 -249 Q-32 -240 -32 -227 Q-32 -214 -23 -204.5 Q-14 -195 -1 -195 Q13 -195 22 -204.5 Q31 -214 31 -227 Z " />
<glyph glyph-name="uni05B1" unicode="&#x5b1;" d="M-65 -133 Q-65 -146 -73.5 -155.5 Q-82 -165 -95 -165 Q-109 -165 -118 -155.5 Q-127 -146 -127 -133 Q-127 -120 -118 -111 Q-109 -102 -96 -102 Q-82 -102 -73.5 -111 Q-65 -120 -65 -133 Z M32 -132 Q32 -145 23 -154.5 Q14 -164 1 -164 Q-13 -164 -22 -154.5 Q-31 -145 -31 -132 Q-31 -119 -22 -110 Q-13 -101 0 -101 Q14 -101 23 -110 Q32 -119 32 -132 Z M128 -214 Q128 -227 119 -236 Q110 -245 97 -245 Q83 -245 74.5 -236 Q66 -227 66 -214 Q66 -201 74.5 -191.5 Q83 -182 96 -182 Q110 -182 119 -191.5 Q128 -201 128 -214 Z M128 -133 Q128 -146 119 -155.5 Q110 -165 97 -165 Q83 -165 74.5 -155.5 Q66 -146 66 -133 Q66 -120 74.5 -111 Q83 -102 96 -102 Q110 -102 119 -111 Q128 -120 128 -133 Z M-16 -214 Q-16 -227 -25 -236 Q-34 -245 -47 -245 Q-61 -245 -69.5 -236 Q-78 -227 -78 -214 Q-78 -201 -69.5 -191.5 Q-61 -182 -48 -182 Q-34 -182 -25 -191.5 Q-16 -201 -16 -214 Z " />
<glyph glyph-name="uni05B2" unicode="&#x5b2;" d="M-127 -137 L-127 -102 L24 -102 L24 -137 L-127 -137 Z M127 -133 Q127 -146 118.5 -155.5 Q110 -165 97 -165 Q83 -165 74 -155.5 Q65 -146 65 -133 Q65 -120 74 -111 Q83 -102 96 -102 Q110 -102 118.5 -111 Q127 -120 127 -133 Z M128 -214 Q128 -227 119.5 -236 Q111 -245 98 -245 Q84 -245 75 -236 Q66 -227 66 -214 Q66 -201 75 -191.5 Q84 -182 97 -182 Q111 -182 119.5 -191.5 Q128 -201 128 -214 Z " />
<glyph glyph-name="uni05B3" unicode="&#x5b3;" d="M-36 -137 L-33 -222 L-73 -222 L-70 -137 L-127 -137 L-127 -102 L23 -102 L23 -137 L-36 -137 Z M127 -133 Q127 -146 118.5 -155.5 Q110 -165 97 -165 Q83 -165 74 -155.5 Q65 -146 65 -133 Q65 -120 74 -111 Q83 -102 96 -102 Q110 -102 118.5 -111 Q127 -120 127 -133 Z M127 -214 Q127 -227 118.5 -236 Q110 -245 97 -245 Q83 -245 74 -236 Q65 -227 65 -214 Q65 -201 74 -191.5 Q83 -182 96 -182 Q110 -182 118.5 -191.5 Q127 -201 127 -214 Z " />
<glyph glyph-name="uni05B4" unicode="&#x5b4;" d="M32 -133 Q32 -146 23 -155 Q14 -164 1 -164 Q-13 -164 -22 -155 Q-31 -146 -31 -133 Q-31 -120 -22 -111 Q-13 -102 0 -102 Q14 -102 23 -111 Q32 -120 32 -133 Z " />
<glyph glyph-name="uni05B5" unicode="&#x5b5;" d="M81 -133 Q81 -146 72 -155 Q63 -164 50 -164 Q36 -164 27.5 -155 Q19 -146 19 -133 Q19 -120 27.5 -111 Q36 -102 49 -102 Q63 -102 72 -111 Q81 -120 81 -133 Z M-18 -133 Q-18 -146 -26.5 -155 Q-35 -164 -48 -164 Q-62 -164 -71 -155 Q-80 -146 -80 -133 Q-80 -120 -71 -111 Q-62 -102 -49 -102 Q-35 -102 -26.5 -111 Q-18 -120 -18 -133 Z " />
<glyph glyph-name="uni05B6" unicode="&#x5b6;" d="M32 -214 Q32 -227 23 -236 Q14 -245 1 -245 Q-13 -245 -22 -236 Q-31 -227 -31 -214 Q-31 -201 -22 -191.5 Q-13 -182 0 -182 Q14 -182 23 -191.5 Q32 -201 32 -214 Z M81 -133 Q81 -146 72 -155.5 Q63 -165 50 -165 Q36 -165 27.5 -155.5 Q19 -146 19 -133 Q19 -120 27.5 -111 Q36 -102 49 -102 Q63 -102 72 -111 Q81 -120 81 -133 Z M-18 -133 Q-18 -146 -26.5 -155.5 Q-35 -165 -48 -165 Q-62 -165 -71 -155.5 Q-80 -146 -80 -133 Q-80 -120 -71 -111 Q-62 -102 -49 -102 Q-35 -102 -26.5 -111 Q-18 -120 -18 -133 Z " />
<glyph glyph-name="uni05B7" unicode="&#x5b7;" d="M-76 -137 L-76 -102 L76 -102 L76 -137 L-76 -137 Z " />
<glyph glyph-name="uni05B8" unicode="&#x5b8;" d="M17 -136 L20 -221 L-20 -221 L-18 -136 L-75 -136 L-75 -102 L76 -102 L76 -136 L17 -136 Z " />
<glyph glyph-name="uni05B9" unicode="&#x5b9;" d="M32 612 Q32 599 23 590 Q14 581 1 581 Q-13 581 -22 590 Q-31 599 -31 612 Q-31 625 -22 634 Q-13 643 0 643 Q14 643 23 634 Q32 625 32 612 Z " />
<glyph glyph-name="uni05BB" unicode="&#x5bb;" d="M-34 -134 Q-34 -147 -42.5 -156 Q-51 -165 -64 -165 Q-78 -165 -87 -156 Q-96 -147 -96 -134 Q-96 -121 -87 -111.5 Q-78 -102 -65 -102 Q-51 -102 -42.5 -111.5 Q-34 -121 -34 -134 Z M31 -196 Q31 -209 22 -218 Q13 -227 0 -227 Q-14 -227 -22.5 -218 Q-31 -209 -31 -196 Q-31 -183 -22.5 -173.5 Q-14 -164 -1 -164 Q13 -164 22 -173.5 Q31 -183 31 -196 Z M96 -257 Q96 -270 87 -279.5 Q78 -289 65 -289 Q51 -289 42.5 -279.5 Q34 -270 34 -257 Q34 -244 42.5 -235 Q51 -226 64 -226 Q78 -226 87 -235 Q96 -244 96 -257 Z " />
<glyph glyph-name="uni05BC" unicode="&#x5bc;" d="M34 269 Q34 255 24.5 245 Q15 235 0 235 Q-14 235 -24 245 Q-34 255 -34 269 Q-34 284 -24 293.5 Q-14 303 0 303 Q15 303 24.5 293.5 Q34 284 34 269 Z " />
<glyph glyph-name="uni05BD" unicode="&#x5bd;" d="M-12 -209 L-12 -102 L12 -102 L12 -209 L-12 -209 Z " />
<glyph glyph-name="uni05BE" unicode="&#x5be;" horiz-adv-x="284" d="M69 462 L69 510 L215 510 L215 462 L69 462 Z " />
<glyph glyph-name="uni05BF" unicode="&#x5bf;" d="M-88 579 L-88 621 L89 621 L89 579 L-88 579 Z " />
<glyph glyph-name="uni05C0" unicode="&#x5c0;" horiz-adv-x="168" d="M60 -130 L60 617 L108 617 L108 -130 L60 -130 Z " />
<glyph glyph-name="uni05C1" unicode="&#x5c1;" d="M34 639 Q34 625 24.5 615 Q15 605 0 605 Q-14 605 -24 615 Q-34 625 -34 639 Q-34 654 -24 663.5 Q-14 673 0 673 Q15 673 24.5 663.5 Q34 654 34 639 Z " />
<glyph glyph-name="uni05C2" unicode="&#x5c2;" d="M34 645 Q34 631 24.5 621 Q15 611 0 611 Q-14 611 -24 621 Q-34 631 -34 645 Q-34 660 -24 669.5 Q-14 679 0 679 Q15 679 24.5 669.5 Q34 660 34 645 Z " />
<glyph glyph-name="uni05C3" unicode="&#x5c3;" horiz-adv-x="275" d="M36 426 L36 512 L117 512 L117 426 L36 426 Z M36 0 L36 86 L117 86 L117 0 L36 0 Z " />
<glyph glyph-name="uni05C5" unicode="&#x5c5;" d="M-50 -348 Q-50 -327 -35.5 -312.5 Q-21 -298 0 -298 Q21 -298 35.5 -312.5 Q50 -327 50 -348 Q50 -369 35.5 -383.5 Q21 -398 0 -398 Q-21 -398 -35.5 -383.5 Q-50 -369 -50 -348 Z " />
<glyph glyph-name="uni05D0" unicode="&#x5d0;" horiz-adv-x="536" d="M489 510 L489 453 Q489 393 476 349 Q463 305 444.5 273.5 Q426 242 404.5 221.5 Q383 201 365 189 Q383 161 400.5 133.5 Q418 106 434 81 Q450 56 463.5 35 Q477 14 485 0 L409 0 Q386 40 362.5 76.5 Q339 113 313.5 151.5 Q288 190 258.5 231.5 Q229 273 194 323 Q167 297 149.5 264.5 Q132 232 122 196 Q112 160 108.5 121 Q105 82 105 43 L105 0 L43 0 Q43 9 42.5 23 Q42 37 42 55 Q42 85 45.5 123.5 Q49 162 61 204 Q73 246 96 288.5 Q119 331 158 369 Q131 405 99.5 444 Q68 483 45 510 L125 510 Q161 466 187.5 433.5 Q214 401 236.5 371 Q259 341 281.5 310 Q304 279 332 238 Q340 244 355.5 255.5 Q371 267 387 290 Q403 313 414.5 352 Q426 391 426 452 L426 510 L489 510 Z " />
<glyph glyph-name="uni05D1" unicode="&#x5d1;" horiz-adv-x="516" d="M35 0 L35 48 L332 48 L332 316 Q332 392 300.5 433 Q269 474 191 474 Q156 474 120.5 463.5 Q85 453 56 433 L54 478 Q86 498 123.5 510 Q161 522 206 522 Q308 522 351.5 470.5 Q395 419 395 314 L395 48 L471 48 L471 0 L35 0 Z " />
<glyph glyph-name="uni05D2" unicode="&#x5d2;" horiz-adv-x="324" d="M199 0 L199 185 L197 185 Q184 162 169.5 139.5 Q155 117 136 93 Q117 69 91.5 43 Q66 17 30 -13 L30 56 Q49 75 76.5 104.5 Q104 134 129 166 Q154 198 171.5 230 Q189 262 189 287 L189 341 Q189 367 186 389 Q183 411 174.5 427 Q166 443 149.5 452 Q133 461 106 461 Q98 461 93 461 Q88 461 83 460 L81 510 Q90 511 101 511.5 Q112 512 123 512 Q168 512 194 493 Q220 474 233 444.5 Q246 415 249 380.5 Q252 346 252 315 L252 91 Q252 58 252.5 36 Q253 14 254 0 L199 0 Z " />
<glyph glyph-name="uni05D3" unicode="&#x5d3;" horiz-adv-x="464" d="M326 462 L326 0 L263 0 L263 462 L40 462 L40 510 L416 510 L416 462 L326 462 Z " />
<glyph glyph-name="uni05D4" unicode="&#x5d4;" horiz-adv-x="542" d="M408 0 L408 316 Q408 394 361.5 434 Q315 474 237 474 Q219 474 198 471 Q177 468 155 462.5 Q133 457 112 449.5 Q91 442 73 432 L70 478 Q88 487 110 495 Q132 503 156 509 Q180 515 204.5 518.5 Q229 522 252 522 Q355 522 413 471 Q471 420 471 314 L471 0 L408 0 Z M74 0 L74 248 L137 269 L137 0 L74 0 Z " />
<glyph glyph-name="uni05D5" unicode="&#x5d5;" horiz-adv-x="213" d="M75 0 L75 510 L138 510 L138 0 L75 0 Z " />
<glyph glyph-name="uni05D6" unicode="&#x5d6;" horiz-adv-x="286" d="M246 462 Q229 462 215 457.5 Q201 453 187 441 Q164 421 158.5 393.5 Q153 366 157 343 L214 0 L151 0 L100 310 Q97 328 98.5 349 Q100 370 105.5 389 Q111 408 120 422.5 Q129 437 142 443 Q147 446 152.5 449.5 Q158 453 160.5 455.5 Q163 458 160.5 460 Q158 462 146 462 L35 462 L35 510 L251 510 L251 462 L246 462 Z " />
<glyph glyph-name="uni05D7" unicode="&#x5d7;" horiz-adv-x="547" d="M414 0 L414 316 Q414 394 367.5 434 Q321 474 243 474 Q201 474 138 458 L138 0 L75 0 L75 478 Q92 488 114 496 Q136 504 160.5 510 Q185 516 210 519 Q235 522 258 522 Q361 522 419 471 Q477 420 477 314 L477 0 L414 0 Z " />
<glyph glyph-name="uni05D8" unicode="&#x5d8;" horiz-adv-x="549" d="M489 204 Q489 104 438.5 46 Q388 -12 291 -12 L269 -12 Q173 -12 121.5 46 Q70 104 70 204 L70 510 L133 510 L133 246 Q133 212 139.5 175 Q146 138 162.5 107 Q179 76 207.5 56 Q236 36 280 36 Q324 36 352.5 56 Q381 76 397.5 107 Q414 138 420 175 Q426 212 426 246 L426 372 Q426 407 417 424.5 Q408 442 384 458 Q365 470 345.5 472.5 Q326 475 304 473 Q296 472 286.5 469.5 Q277 467 269 464 L269 506 L288 513 Q303 518 315 520 Q327 522 339 522 Q351 522 376 517 Q399 512 414.5 505.5 Q430 499 447 483 Q460 471 468.5 454.5 Q477 438 481.5 420.5 Q486 403 487.5 386.5 Q489 370 489 357 L489 204 Z " />
<glyph glyph-name="uni05D9" unicode="&#x5d9;" horiz-adv-x="213" d="M75 193 L75 510 L138 510 L138 216 L75 193 Z " />
<glyph glyph-name="uni05DA" unicode="&#x5da;" horiz-adv-x="476" d="M343 -210 L343 320 Q343 395 311.5 435 Q280 475 202 475 Q184 475 163 472 Q142 469 120 464 Q98 459 77 451.5 Q56 444 38 434 L35 479 Q53 488 75 496 Q97 504 121 510 Q145 516 169.5 519 Q194 522 217 522 Q319 522 362.5 471.5 Q406 421 406 318 L406 -210 L343 -210 Z " />
<glyph glyph-name="uni05DB" unicode="&#x5db;" horiz-adv-x="463" d="M423 252 Q423 193 404 144.5 Q385 96 351.5 61.5 Q318 27 271 8 Q224 -11 168 -11 Q143 -11 124 -9 Q105 -7 89 -4 Q73 -1 59 3.5 Q45 8 30 13 L34 67 Q62 50 92 43.5 Q122 37 164 37 Q210 37 246 53.5 Q282 70 307 99.5 Q332 129 345 168.5 Q358 208 358 254 Q358 302 344 342.5 Q330 383 304.5 411.5 Q279 440 244 456 Q209 472 168 472 Q124 472 94.5 465 Q65 458 34 441 L30 496 Q40 500 51 503.5 Q62 507 76 510 Q110 520 168 520 Q224 520 271 501 Q318 482 351.5 447.5 Q385 413 404 363 Q423 313 423 252 Z " />
<glyph glyph-name="uni05DC" unicode="&#x5dc;" horiz-adv-x="458" d="M389 220 Q387 201 382.5 177.5 Q378 154 369 129.5 Q360 105 346.5 82.5 Q333 60 313 43 Q281 16 244 8.5 Q207 1 174 0 L174 48 Q192 48 213 51.5 Q234 55 251 65 Q272 78 286 96 Q300 114 308 134 Q316 154 320 174 Q324 194 326 211 L347 462 L40 462 L40 700 L103 700 L103 510 L414 510 L389 220 Z " />
<glyph glyph-name="uni05DD" unicode="&#x5dd;" horiz-adv-x="560" d="M70 0 L70 510 L133 510 L133 466 L139 466 Q167 496 210 509 Q253 522 305 522 Q340 522 373.5 507.5 Q407 493 433 464.5 Q459 436 474.5 394 Q490 352 490 298 L490 0 L70 0 Z M427 264 Q427 372 392.5 423 Q358 474 283 474 Q237 474 208.5 463.5 Q180 453 163 441 Q143 426 133 408 L133 48 L427 48 L427 264 Z " />
<glyph glyph-name="uni05DE" unicode="&#x5de;" horiz-adv-x="559" d="M494 153 Q494 140 492.5 123.5 Q491 107 486.5 89.5 Q482 72 473.5 55.5 Q465 39 452 27 Q435 11 419.5 4.5 Q404 -2 381 -7 Q356 -12 344 -12 Q332 -12 320 -10 Q308 -8 293 -3 L274 4 L274 46 Q282 43 291.5 40.5 Q301 38 309 37 Q331 35 350.5 37.5 Q370 40 389 52 Q413 68 422 85.5 Q431 103 431 138 L431 287 Q431 321 428 354.5 Q425 388 412.5 414.5 Q400 441 375 457.5 Q350 474 306 474 Q263 474 231.5 448.5 Q200 423 179 388 Q158 353 148 316 Q138 279 138 256 L138 0 L75 0 L75 510 L138 510 L138 401 L141 401 Q159 435 183 458.5 Q207 482 232 496 Q257 510 280 516 Q303 522 318 522 Q413 522 453.5 464 Q494 406 494 306 L494 153 Z " />
<glyph glyph-name="uni05DF" unicode="&#x5df;" horiz-adv-x="213" d="M75 -210 L75 510 L138 510 L138 -210 L75 -210 Z " />
<glyph glyph-name="uni05E0" unicode="&#x5e0;" horiz-adv-x="310" d="M35 0 L47 48 L178 48 Q178 102 177.5 151 Q177 200 177 239 L177 325 Q177 351 172.5 375 Q168 399 158 417.5 Q148 436 132.5 447 Q117 458 95 458 Q87 458 82 458 Q77 458 72 457 L70 511 Q79 512 90 512 Q101 512 112 512 Q157 512 183 493 Q209 474 221.5 444.5 Q234 415 237 380.5 Q240 346 240 315 L240 0 L35 0 Z " />
<glyph glyph-name="uni05E1" unicode="&#x5e1;" horiz-adv-x="543" d="M503 255 Q503 200 488.5 151.5 Q474 103 445.5 66.5 Q417 30 375.5 9 Q334 -12 280 -12 Q226 -12 185.5 9 Q145 30 118 66.5 Q91 103 78 151.5 Q65 200 65 255 L65 464 Q88 476 116 486.5 Q144 497 173 505 Q202 513 229.5 517.5 Q257 522 280 522 Q335 522 376.5 502 Q418 482 446 447 Q474 412 488.5 362.5 Q503 313 503 255 Z M434 255 Q434 295 425.5 334.5 Q417 374 399 405 Q381 436 351.5 455 Q322 474 280 474 Q244 474 210 463.5 Q176 453 134 431 L134 265 Q134 227 139.5 187 Q145 147 160.5 113 Q176 79 204.5 57.5 Q233 36 280 36 Q326 36 356 56 Q386 76 403 108 Q420 140 427 178.5 Q434 217 434 255 Z " />
<glyph glyph-name="uni05E2" unicode="&#x5e2;" horiz-adv-x="487" d="M417 239 Q417 151 382.5 94.5 Q348 38 276 5 L58 -97 L39 -49 L210 33 L30 510 L100 510 Q137 392 178.5 283 Q220 174 260 57 Q312 81 333 130 Q354 179 354 239 L354 510 L417 510 L417 239 Z " />
<glyph glyph-name="uni05E3" unicode="&#x5e3;" horiz-adv-x="508" d="M384 -208 L384 258 Q384 306 370 345.5 Q356 385 330.5 413.5 Q305 442 270 457.5 Q235 473 194 473 Q177 473 164.5 472.5 Q152 472 142 471 Q132 470 123 469 Q114 468 104 467 L104 282 L198 282 L198 239 L50 239 L50 508 Q60 511 76.5 513 Q93 515 113 516.5 Q133 518 154 519 Q175 520 194 520 Q252 520 299 501.5 Q346 483 379 448.5 Q412 414 430 365 Q448 316 448 256 L448 -208 L384 -208 Z " />
<glyph glyph-name="uni05E4" unicode="&#x5e4;" horiz-adv-x="499" d="M459 252 Q459 193 440 144.5 Q421 96 387 61.5 Q353 27 306 8 Q259 -11 204 -11 Q153 -11 121.5 -6.5 Q90 -2 66 3 L70 57 Q86 50 122 43.5 Q158 37 200 37 Q246 37 282 53.5 Q318 70 343 99.5 Q368 129 381 168.5 Q394 208 394 254 Q394 302 380 342.5 Q366 383 340.5 411.5 Q315 440 280 456 Q245 472 204 472 Q173 472 153.5 470.5 Q134 469 114 467 L114 282 L208 282 L208 239 L60 239 L60 508 Q82 512 100 514.5 Q118 517 135 518 Q152 519 168.5 519.5 Q185 520 204 520 Q262 520 309 501 Q356 482 389.5 447.5 Q423 413 441 363 Q459 313 459 252 Z " />
<glyph glyph-name="uni05E5" unicode="&#x5e5;" horiz-adv-x="475" d="M436 510 Q437 501 437 492 Q437 483 437 475 Q437 412 423.5 367 Q410 322 390 290.5 Q370 259 347.5 239.5 Q325 220 307 208 L279 189 Q282 168 282 151 L282 -210 L219 -210 L219 118 Q219 147 217.5 168.5 Q216 190 212 207.5 Q208 225 200.5 240.5 Q193 256 182 273 L25 510 L102 510 L259 261 L265 248 L276 256 Q286 263 301.5 274 Q317 285 332 309 Q347 333 357.5 375 Q368 417 368 486 L368 510 L436 510 Z " />
<glyph glyph-name="uni05E6" unicode="&#x5e6;" horiz-adv-x="475" d="M437 510 Q438 501 438 492 Q438 483 438 475 Q438 410 424.5 363.5 Q411 317 391.5 284 Q372 251 349 230 Q326 209 308 196 L437 0 L33 0 L33 48 L329 48 L25 510 L102 510 L277 244 Q287 251 303.5 264.5 Q320 278 335 307 Q350 336 360.5 384.5 Q371 433 369 510 L437 510 Z " />
<glyph glyph-name="uni05E7" unicode="&#x5e7;" horiz-adv-x="544" d="M475 229 Q473 211 468.5 187.5 Q464 164 455 140 Q446 116 432.5 93 Q419 70 399 53 Q367 26 330 18.5 Q293 11 260 10 L260 57 Q275 58 297 61 Q319 64 336 74 Q357 87 371 105.5 Q385 124 393.5 144 Q402 164 406 184 Q410 204 412 221 L432 462 L55 462 L55 510 L499 510 L475 229 Z M67 -209 L67 284 L130 305 L130 -209 L67 -209 Z " />
<glyph glyph-name="uni05E8" unicode="&#x5e8;" horiz-adv-x="481" d="M348 0 L348 316 Q348 392 316.5 433 Q285 474 207 474 Q189 474 168 471 Q147 468 125 462.5 Q103 457 82 449.5 Q61 442 43 432 L40 478 Q58 487 80 495 Q102 503 126 509 Q150 515 174.5 518.5 Q199 522 222 522 Q324 522 367.5 470.5 Q411 419 411 314 L411 0 L348 0 Z " />
<glyph glyph-name="uni05E9" unicode="&#x5e9;" horiz-adv-x="653" d="M145 156 Q153 132 167 110 Q181 88 203 71.5 Q225 55 255 45.5 Q285 36 326 36 Q381 36 418.5 56 Q456 76 478 106 Q500 136 509.5 169.5 Q519 203 519 230 L519 510 L583 510 L583 230 Q583 196 570.5 154 Q558 112 528.5 75 Q499 38 449.5 13 Q400 -12 326 -12 Q252 -12 202.5 10.5 Q153 33 123.5 68.5 Q94 104 82 146.5 Q70 189 70 230 L70 510 L134 510 L134 230 Q134 222 134 213.5 Q134 205 136 197 Q139 197 147.5 198 Q156 199 168 201.5 Q180 204 195 209 Q210 214 225 223 Q244 233 257.5 250 Q271 267 279 286.5 Q287 306 291 327.5 Q295 349 295 368 L295 510 L358 510 L358 359 Q358 336 352.5 313.5 Q347 291 336.5 270 Q326 249 312 232 Q298 215 281 203 Q244 178 212.5 169.5 Q181 161 151 156 L145 156 Z " />
<glyph glyph-name="uni05EA" unicode="&#x5ea;" horiz-adv-x="569" d="M446 0 L446 316 Q446 392 414.5 433 Q383 474 305 474 Q284 474 260.5 472.5 Q237 471 205 466 L205 214 Q205 196 204.5 173 Q204 150 200.5 126 Q197 102 189.5 78.5 Q182 55 167.5 37 Q153 19 131 8 Q109 -3 77 -3 Q66 -3 55 -2.5 Q44 -2 35 -1 L37 49 Q42 48 47 48 Q52 48 60 48 Q85 48 101 58.5 Q117 69 126 87 Q135 105 138.5 128.5 Q142 152 142 179 L142 452 Q125 446 113 441.5 Q101 437 92 432 L92 480 Q126 499 184 510.5 Q242 522 320 522 Q422 522 465.5 470.5 Q509 419 509 314 L509 0 L446 0 Z " />
<glyph glyph-name="uni05F0" unicode="&#x5f0;" horiz-adv-x="365" d="M75 0 L75 510 L138 510 L138 0 L75 0 Z M227 0 L227 510 L290 510 L290 0 L227 0 Z " />
<glyph glyph-name="uni05F1" unicode="&#x5f1;" horiz-adv-x="359" d="M221 0 L221 510 L284 510 L284 0 L221 0 Z M75 193 L75 510 L138 510 L138 216 L75 193 Z " />
<glyph glyph-name="uni05F2" unicode="&#x5f2;" horiz-adv-x="359" d="M75 193 L75 510 L138 510 L138 216 L75 193 Z M221 193 L221 510 L284 510 L284 216 L221 193 Z " />
<glyph glyph-name="uni05F3" unicode="&#x5f3;" horiz-adv-x="169" d="M82 404 L42 404 L85 607 L144 607 L82 404 Z " />
<glyph glyph-name="uni05F4" unicode="&#x5f4;" horiz-adv-x="319" d="M232 404 L192 404 L235 607 L294 607 L232 404 Z M82 404 L42 404 L85 607 L144 607 L82 404 Z " />
<glyph glyph-name="uni200C" unicode="&#x200c;" horiz-adv-x="21" d="M22 0 L0 0 L0 795 L22 795 L22 0 Z " />
<glyph glyph-name="uni200D" unicode="&#x200d;" horiz-adv-x="21" d="M78 730 L63 716 L22 757 L22 0 L0 0 L0 757 L-40 716 L-56 730 L-2 783 L-56 835 L-40 850 L11 797 L63 850 L78 835 L26 783 L78 730 Z " />
<glyph glyph-name="uni200E" unicode="&#x200e;" horiz-adv-x="21" d="M148 783 L81 716 L66 731 L108 773 L22 773 L22 0 L0 0 L0 795 L106 795 L66 835 L81 850 L148 783 Z " />
<glyph glyph-name="uni200F" unicode="&#x200f;" horiz-adv-x="21" d="M23 0 L1 0 L1 773 L-84 773 L-42 731 L-58 716 L-125 783 L-58 850 L-42 835 L-83 795 L23 795 L23 0 Z " />
<glyph glyph-name="endash" unicode="&#x2013;" horiz-adv-x="414" d="M69 245 L69 293 L345 293 L345 245 L69 245 Z " />
<glyph glyph-name="emdash" unicode="&#x2014;" horiz-adv-x="484" d="M69 245 L69 293 L415 293 L415 245 L69 245 Z " />
<glyph glyph-name="quoteleft" unicode="&#x2018;" horiz-adv-x="169" d="M103 404 L42 607 L100 607 L144 404 L103 404 Z " />
<glyph glyph-name="quoteright" unicode="&#x2019;" horiz-adv-x="169" d="M82 404 L42 404 L85 607 L144 607 L82 404 Z " />
<glyph glyph-name="quotesinglbase" unicode="&#x201a;" horiz-adv-x="209" d="M138 41 Q138 11 41 -179 L27 -179 Q63 -76 63 -19 Q63 6 31 46 L101 117 Q137 72 138 41 Z " />
<glyph glyph-name="quotedblleft" unicode="&#x201c;" horiz-adv-x="320" d="M103 404 L42 607 L100 607 L144 404 L103 404 Z M254 404 L193 607 L251 607 L295 404 L254 404 Z " />
<glyph glyph-name="quotedblright" unicode="&#x201d;" horiz-adv-x="322" d="M82 404 L42 404 L85 607 L144 607 L82 404 Z M235 404 L195 404 L238 607 L297 607 L235 404 Z " />
<glyph glyph-name="quotedblbase" unicode="&#x201e;" horiz-adv-x="380" d="M338 120 Q338 87 241 -100 L227 -100 Q245 -46 254.5 -6.5 Q264 33 264 60 Q264 81 232 125 L301 196 Q338 153 338 120 Z M166 119 Q166 90 68 -101 L55 -101 Q91 5 91 59 Q91 81 60 124 L129 195 Q166 149 166 119 Z " />
<glyph glyph-name="dagger" unicode="&#x2020;" horiz-adv-x="486" d="M456 449 Q456 427 439 413.5 Q422 400 400 400 Q378 400 327 420 Q276 440 251 440 Q251 360 303 320 Q251 128 251 -212 L231 -212 Q231 128 179 320 Q231 360 231 440 Q206 440 155 420 Q104 400 82 400 Q60 400 43 413.5 Q26 427 26 449 Q26 471 43 484 Q60 497 82 497 Q104 497 155 477 Q206 457 231 457 Q231 486 207 542 Q183 597 183 629 Q183 655 199 675.5 Q215 696 241 696 Q267 696 283 675.5 Q299 655 299 629 Q299 597 275 542 Q251 486 251 457 Q276 457 327 477 Q378 497 400 497 Q422 497 439 484 Q456 471 456 449 Z " />
<glyph glyph-name="daggerdbl" unicode="&#x2021;" horiz-adv-x="432" d="M412 1 Q412 -43 362 -43 Q339 -43 296 -25 Q251 -8 227 -8 Q226 -33 248 -85 Q270 -136 270 -156 Q270 -179 254.5 -195.5 Q239 -212 216 -212 Q193 -212 177.5 -195.5 Q162 -179 162 -156 Q162 -136 184 -85 Q206 -33 205 -8 Q181 -8 136 -25 Q92 -43 70 -43 Q20 -43 20 1 Q20 46 70 46 Q92 46 136 28 Q179 10 205 10 Q200 67 155 96 Q205 155 205 246 Q205 329 155 388 Q200 417 205 474 Q179 474 136 456 Q92 438 70 438 Q20 438 20 483 Q20 527 70 527 Q92 527 136 509 Q181 492 205 492 Q203 518 183 568 Q162 620 162 640 Q162 663 177.5 679.5 Q193 696 216 696 Q239 696 254.5 679.5 Q270 663 270 640 Q270 620 248 569 Q226 517 227 492 Q251 492 296 509 Q339 527 362 527 Q412 527 412 483 Q412 438 362 438 Q339 438 296 456 Q252 474 227 474 Q232 417 277 388 Q227 329 227 246 Q227 155 277 96 Q232 67 227 10 Q252 10 296 28 Q339 46 362 46 Q412 46 412 1 Z " />
<glyph glyph-name="bullet" unicode="&#x2022;" horiz-adv-x="449" d="M430 297 Q430 213 370 152 Q310 92 226 92 Q141 92 80 152 Q20 212 20 297 Q20 382 80 441 Q142 500 226 500 Q310 500 370 440 Q430 381 430 297 Z " />
<glyph glyph-name="ellipsis" unicode="&#x2026;" horiz-adv-x="565" d="M547 52 Q529 36 512.5 18 Q496 0 480 -17 L413 52 L482 120 Q498 103 514 86 Q530 69 547 52 Z M357 52 Q339 36 322.5 18 Q306 0 290 -17 L223 52 L292 120 Q308 103 324 86 Q340 69 357 52 Z M167 52 Q149 36 132.5 18 Q116 0 100 -17 L33 52 L102 120 Q118 103 134 86 Q150 69 167 52 Z " />
<glyph glyph-name="perthousand" unicode="&#x2030;" horiz-adv-x="1179" d="M1148 165 Q1148 92 1111 40 Q1070 -16 1004 -16 Q939 -16 898 40 Q861 92 861 165 Q861 239 898 294 Q939 353 1005 353 Q1071 353 1112 294 Q1148 240 1148 165 Z M818 165 Q818 92 781 40 Q740 -16 674 -16 Q609 -16 568 40 Q531 92 531 165 Q531 239 568 294 Q609 353 675 353 Q741 353 782 294 Q818 240 818 165 Z M691 696 L203 -16 L158 -16 L646 696 L691 696 Z M317 508 Q317 435 280 383 Q239 327 173 327 Q108 327 67 383 Q30 435 30 508 Q30 582 67 637 Q108 696 174 696 Q240 696 281 637 Q317 583 317 508 Z M1069 165 Q1069 218 1058 262 Q1041 327 1006 327 Q967 327 951 263 Q940 219 940 165 Q940 10 1004 10 Q1069 10 1069 165 Z M739 165 Q739 218 728 262 Q711 327 676 327 Q637 327 621 263 Q610 219 610 165 Q610 10 674 10 Q739 10 739 165 Z M238 508 Q238 561 227 605 Q210 670 175 670 Q136 670 120 606 Q109 562 109 508 Q109 353 173 353 Q238 353 238 508 Z " />
<glyph glyph-name="guilsinglleft" unicode="&#x2039;" horiz-adv-x="330" d="M280 0 L249 0 L50 230 L249 459 L280 459 L152 230 L280 0 Z " />
<glyph glyph-name="guilsinglright" unicode="&#x203a;" horiz-adv-x="330" d="M280 230 L81 0 L50 0 L178 230 L50 459 L81 459 L280 230 Z " />
<glyph glyph-name="peseta" unicode="&#x20a7;" horiz-adv-x="968" d="M21 662 L272 662 Q347 662 403 637.5 Q459 613 491 565 Q512 535 517 481 Q528 494 536.5 505 Q545 516 552 527 Q563 546 579 588 L595 588 L595 446 L679 446 L679 418 L595 418 L595 118 Q595 80 599 72 Q603 61 611 55 Q619 49 628 49 Q635 49 644.5 54 Q654 59 676 81 L676 149 L694 149 Q703 102 718 75 Q733 48 761 32 Q789 16 813 16 Q845 16 866.5 36.5 Q888 57 888 86 Q888 111 868 137 Q858 149 836.5 164 Q815 179 783 198 Q719 235 697 263 Q675 291 675 330 Q675 384 711 420 Q747 457 800 457 Q824 457 866 445 Q884 440 887 440 Q890 440 903 445 L924 445 L924 311 L907 311 Q896 375 866.5 402.5 Q837 430 797 430 Q769 430 749.5 411 Q730 392 730 367 Q730 341 753 318 Q770 301 839 262 Q906 223 932 191 Q955 159 955 121 Q955 64 915 25 Q874 -13 813 -13 Q790 -13 750 -1 Q728 6 714 6 Q705 6 698 0 L676 0 L676 42 Q648 10 628.5 -1.5 Q609 -13 589 -13 Q558 -13 537.5 11.5 Q517 36 517 93 L517 117 L517 418 L507 418 Q482 362 442 333 Q390 296 317 296 Q298 296 271.5 301.5 Q245 307 212 317 L212 101 Q212 56 232.5 36 Q253 16 299 17 L299 0 L21 0 L21 17 Q48 19 64 23 Q80 27 89 36.5 Q98 46 102 63 Q106 80 108 108 L108 566 Q108 605 89 624.5 Q70 644 21 645 L21 662 Z M212 349 Q248 331 278 331 Q302 331 323.5 341.5 Q345 352 361.5 370.5 Q378 389 387.5 416 Q397 443 397 476 Q397 545 359.5 584.5 Q322 624 262 624 Q240 624 212 615 L212 349 Z " />
<glyph glyph-name="uni20AA" unicode="&#x20aa;" horiz-adv-x="776" d="M444 217 L444 317 Q444 357 429.5 386.5 Q415 416 390 435.5 Q365 455 332.5 464.5 Q300 474 263 474 Q243 474 218 470.5 Q193 467 159 459 L159 0 L96 0 L96 486 Q112 496 134.5 502.5 Q157 509 181 513.5 Q205 518 230 520 Q255 522 278 522 Q383 522 445 469 Q507 416 507 314 L507 217 L444 217 Z M681 510 L681 208 Q681 106 619 53 Q557 0 452 0 Q429 0 404 2 Q379 4 355 8.5 Q331 13 308.5 19.5 Q286 26 270 36 L270 302 L333 302 L333 63 Q367 55 392 51.5 Q417 48 437 48 Q474 48 506.5 57.5 Q539 67 564 86.5 Q589 106 603.5 135.5 Q618 165 618 205 L618 510 L681 510 Z " />
<glyph glyph-name="Euro" unicode="&#x20ac;" horiz-adv-x="615" d="M516 47 Q483 20 444 5 Q405 -10 363 -10 Q322 -10 284 4 Q246 18 214.5 44 Q183 70 159 107 Q135 144 122 190 L44 190 L62 223 L116 223 Q115 235 115 243.5 Q115 252 115 260 Q115 266 115 273 Q115 280 116 289 L44 289 L62 322 L122 322 Q151 413 215.5 465.5 Q280 518 363 518 Q405 518 444 503.5 Q483 489 516 462 L500 433 Q471 458 436 471.5 Q401 485 363 485 Q296 485 242 444 Q188 403 153 322 L441 322 L423 289 L148 289 Q146 272 146 265.5 Q146 259 146 254 Q146 250 146 244.5 Q146 239 147 223 L387 223 L369 190 L153 190 Q187 109 240.5 66.5 Q294 24 363 24 Q401 24 436 37.5 Q471 51 500 76 Q504 68 508 61.5 Q512 55 516 47 Z " />
<glyph glyph-name="trademark" unicode="&#x2122;" horiz-adv-x="1034" d="M1006 275 L803 275 L803 293 Q840 293 853 315 Q863 331 863 371 L863 605 L861 605 L708 275 L691 275 L538 600 L536 600 L536 371 Q536 329 548 313 Q562 293 596 293 L596 275 L445 275 L445 293 Q479 293 493 313 Q505 329 505 371 L505 585 Q505 627 492.5 644.5 Q480 662 445 662 L445 680 L591 680 L729 392 L862 680 L1006 680 L1006 662 Q968 662 955 640 Q946 625 946 585 L946 371 Q946 329 958 313 Q972 293 1006 293 L1006 275 Z M410 578 L394 578 Q383 622 354 637 Q330 648 280 648 L258 648 L258 371 Q258 331 267 315 Q280 293 319 293 L319 275 L118 275 L118 293 Q155 293 167 316 Q175 334 175 371 L175 648 L157 648 Q102 648 82 638 Q50 623 43 578 L24 578 L36 680 L401 680 L410 578 Z " />
<glyph glyph-name="minus" unicode="&#x2212;" horiz-adv-x="414" d="M69 245 L69 293 L345 293 L345 245 L69 245 Z " />
<glyph glyph-name="final_kaf_sheva" unicode="&#xe802;" horiz-adv-x="476" d="M343 -210 L343 320 Q343 395 311.5 435 Q280 475 202 475 Q184 475 163 472 Q142 469 120 464 Q98 459 77 451.5 Q56 444 38 434 L35 479 Q53 488 75 496 Q97 504 121 510 Q145 516 169.5 519 Q194 522 217 522 Q319 522 362.5 471.5 Q406 421 406 318 L406 -210 L343 -210 Z M225 255 Q225 241 215.5 231 Q206 221 191 221 Q177 221 167 231 Q157 241 157 255 Q157 270 167 279.5 Q177 289 191 289 Q206 289 215.5 279.5 Q225 270 225 255 Z M225 161 Q225 147 215.5 137 Q206 127 191 127 Q177 127 167 137 Q157 147 157 161 Q157 176 167 185.5 Q177 195 191 195 Q206 195 215.5 185.5 Q225 176 225 161 Z " />
<glyph glyph-name="final_kaf_qamats" unicode="&#xe803;" horiz-adv-x="476" d="M343 -210 L343 320 Q343 395 311.5 435 Q280 475 202 475 Q184 475 163 472 Q142 469 120 464 Q98 459 77 451.5 Q56 444 38 434 L35 479 Q53 488 75 496 Q97 504 121 510 Q145 516 169.5 519 Q194 522 217 522 Q319 522 362.5 471.5 Q406 421 406 318 L406 -210 L343 -210 Z M202 205 L205 120 L165 120 L167 205 L110 205 L110 239 L261 239 L261 205 L202 205 Z " />
<glyph glyph-name="lamed_holam" unicode="&#xe804;" horiz-adv-x="458" d="M389 220 Q387 201 382.5 177.5 Q378 154 369 129.5 Q360 105 346.5 82.5 Q333 60 313 43 Q281 16 244 8.5 Q207 1 174 0 L174 48 Q192 48 213 51.5 Q234 55 251 65 Q272 78 286 96 Q300 114 308 134 Q316 154 320 174 Q324 194 326 211 L347 462 L40 462 L40 700 L103 700 L103 510 L414 510 L389 220 Z M-2 624 Q-2 610 -11.5 600 Q-21 590 -36 590 Q-50 590 -60 600 Q-70 610 -70 624 Q-70 639 -60 648.5 Q-50 658 -36 658 Q-21 658 -11.5 648.5 Q-2 639 -2 624 Z " />
<glyph glyph-name="lamed_holam_dagesh" unicode="&#xe805;" horiz-adv-x="458" d="M236 297 Q236 283 226.5 273 Q217 263 202 263 Q188 263 178 273 Q168 283 168 297 Q168 312 178 321.5 Q188 331 202 331 Q217 331 226.5 321.5 Q236 312 236 297 Z M389 220 Q387 201 382.5 177.5 Q378 154 369 129.5 Q360 105 346.5 82.5 Q333 60 313 43 Q281 16 244 8.5 Q207 1 174 0 L174 48 Q192 48 213 51.5 Q234 55 251 65 Q272 78 286 96 Q300 114 308 134 Q316 154 320 174 Q324 194 326 211 L347 462 L40 462 L40 700 L103 700 L103 510 L414 510 L389 220 Z M-2 624 Q-2 610 -11.5 600 Q-21 590 -36 590 Q-50 590 -60 600 Q-70 610 -70 624 Q-70 639 -60 648.5 Q-50 658 -36 658 Q-21 658 -11.5 648.5 Q-2 639 -2 624 Z " />
<glyph glyph-name="prop_0" unicode="&#xe890;" horiz-adv-x="455" d="M418 268 Q418 136 371.5 64.5 Q325 -7 235 -7 Q144 -7 97 63.5 Q50 134 50 266 Q50 398 97 470 Q144 542 235 542 Q326 542 372 471 Q418 400 418 268 Z M357 273 Q357 385 326 441 Q295 497 237 497 Q177 497 143.5 438 Q110 379 110 264 Q110 152 142.5 94.5 Q175 37 233 37 Q293 37 325 95 Q357 153 357 273 Z " />
<glyph glyph-name="prop_1" unicode="&#xe891;" horiz-adv-x="264" d="M159 0 L159 483 L52 430 L52 478 L179 539 L222 539 L222 0 L159 0 Z " />
<glyph glyph-name="prop_2" unicode="&#xe892;" horiz-adv-x="455" d="M51 0 L60 38 Q77 90 102.5 123.5 Q128 157 166 190 L223 235 Q241 250 261.5 266 Q282 282 299.5 300.5 Q317 319 328 341.5 Q339 364 339 392 Q339 440 310 468 Q281 496 239 496 Q206 496 184.5 481.5 Q163 467 149 445 Q138 428 131.5 410 Q125 392 120 373 L62 387 Q70 416 77 432.5 Q84 449 92 463 Q113 499 152 520 Q191 541 240 541 Q277 541 306.5 530 Q336 519 357 498.5 Q378 478 389 450.5 Q400 423 400 390 Q400 358 390 333.5 Q380 309 361 287 Q351 276 340.5 266.5 Q330 257 318 246 Q305 236 292 226 Q279 216 265 206 Q217 171 180 134 Q143 97 114 48 L401 48 L401 0 L51 0 Z " />
<glyph glyph-name="prop_3" unicode="&#xe893;" horiz-adv-x="455" d="M406 149 Q406 115 393.5 86.5 Q381 58 358 37 Q335 16 302.5 4.5 Q270 -7 231 -7 Q174 -7 131.5 16 Q89 39 48 95 L95 125 Q130 75 161.5 56 Q193 37 232 37 Q281 37 313.5 65 Q346 93 346 144 Q346 260 201 260 L175 260 L175 305 L202 305 Q265 305 298 329.5 Q331 354 331 405 Q331 450 303.5 473.5 Q276 497 231 497 Q199 497 172.5 482 Q146 467 115 428 L70 459 Q105 502 145.5 522 Q186 542 234 542 Q270 542 299 532 Q328 522 348.5 504 Q369 486 380.5 461.5 Q392 437 392 409 Q392 372 373 339 Q354 306 300 284 Q330 275 350.5 261 Q371 247 383.5 229 Q396 211 401 190.5 Q406 170 406 149 Z " />
<glyph glyph-name="prop_4" unicode="&#xe894;" horiz-adv-x="455" d="M350 133 L350 0 L287 0 L287 133 L50 133 L50 173 L261 541 L350 541 L350 179 L438 179 L438 133 L350 133 Z M287 488 L108 179 L287 179 L287 488 Z " />
<glyph glyph-name="prop_5" unicode="&#xe895;" horiz-adv-x="455" d="M396 183 Q396 141 383 106 Q370 71 346.5 46.5 Q323 22 289 8 Q255 -6 213 -6 Q107 -6 51 92 L100 118 Q128 73 154.5 55 Q181 37 219 37 Q271 37 303.5 76 Q336 115 336 185 Q336 248 305.5 281 Q275 314 226 314 Q194 314 165 295 Q136 276 118 241 L65 252 L85 535 L359 535 L359 488 L139 488 L127 323 Q157 345 183.5 351.5 Q210 358 233 358 Q270 358 300.5 345 Q331 332 352 308.5 Q373 285 384.5 253 Q396 221 396 183 Z " />
<glyph glyph-name="prop_6" unicode="&#xe896;" horiz-adv-x="455" d="M410 172 Q410 134 397 101 Q384 68 361 44 Q338 20 305 6.5 Q272 -7 233 -7 Q190 -7 156.5 9 Q123 25 99.5 55 Q76 85 63.5 127 Q51 169 51 222 Q51 297 66 356 Q81 415 109.5 456.5 Q138 498 180 520 Q222 542 276 542 Q303 542 328.5 535 Q354 528 395 508 L367 467 Q335 484 315.5 490.5 Q296 497 276 497 Q236 497 208 478.5 Q180 460 161 430 Q142 400 130 360.5 Q118 321 110 279 Q133 297 151 308.5 Q169 320 184.5 326.5 Q200 333 214.5 335.5 Q229 338 244 338 Q281 338 311.5 325.5 Q342 313 364 290.5 Q386 268 398 238 Q410 208 410 172 Z M350 174 Q350 231 319 263 Q288 295 239 295 Q216 295 196.5 286 Q177 277 160.5 263 Q144 249 131 232 Q118 215 109 198 Q115 117 147.5 77 Q180 37 234 37 Q285 37 317.5 73.5 Q350 110 350 174 Z " />
<glyph glyph-name="prop_7" unicode="&#xe897;" horiz-adv-x="455" d="M169 0 L100 0 L315 488 L51 488 L51 535 L384 535 L384 504 L169 0 Z " />
<glyph glyph-name="prop_8" unicode="&#xe898;" horiz-adv-x="455" d="M426 141 Q426 109 412.5 81.5 Q399 54 374.5 34.5 Q350 15 315.5 4 Q281 -7 238 -7 Q150 -7 100 33.5 Q50 74 50 140 Q50 181 77.5 215 Q105 249 174 284 Q144 302 124 318 Q104 334 92 349 Q80 364 75.5 380 Q71 396 71 414 Q71 441 83.5 464.5 Q96 488 118.5 505 Q141 522 172.5 532 Q204 542 242 542 Q279 542 309 532 Q339 522 361 505 Q383 488 395 465 Q407 442 407 415 Q407 396 402 380 Q397 364 385 348.5 Q373 333 352 317.5 Q331 302 300 284 Q336 266 360.5 249 Q385 232 399.5 215 Q414 198 420 180 Q426 162 426 141 Z M347 409 Q347 451 317.5 474 Q288 497 240 497 Q194 497 162.5 473.5 Q131 450 131 411 Q131 385 142.5 368.5 Q154 352 171 341 L205 321 L244 305 Q302 328 324.5 351 Q347 374 347 409 Z M367 138 Q367 197 307 228 Q292 236 276.5 242.5 Q261 249 228 263 Q164 237 137 209 Q110 181 110 139 Q110 91 147 64 Q184 37 241 37 Q295 37 331 63.5 Q367 90 367 138 Z " />
<glyph glyph-name="prop_9" unicode="&#xe899;" horiz-adv-x="455" d="M410 312 Q410 237 395 178 Q380 119 351.5 78 Q323 37 281 15 Q239 -7 184 -7 Q170 -7 157.5 -5.5 Q145 -4 131.5 -0.5 Q118 3 102.5 10 Q87 17 66 28 L95 69 Q127 49 145.5 43 Q164 37 184 37 Q225 37 253 55.5 Q281 74 300 104 Q319 134 330.5 173.5 Q342 213 350 255 Q328 237 310 226 Q292 215 276 209 Q260 203 245.5 200.5 Q231 198 216 198 Q179 198 148.5 210.5 Q118 223 96.5 245.5 Q75 268 63 298 Q51 328 51 364 Q51 401 64 433.5 Q77 466 100 490 Q123 514 156 528 Q189 542 228 542 Q271 542 304.5 525.5 Q338 509 361.5 479 Q385 449 397.5 406.5 Q410 364 410 312 Z M351 339 Q345 420 313 458.5 Q281 497 227 497 Q176 497 143 461.5 Q110 426 110 360 Q110 303 141.5 272.5 Q173 242 222 242 Q245 242 264.5 251 Q284 260 300.5 274 Q317 288 329.5 305 Q342 322 351 339 Z " />
<glyph glyph-name="uniFB01" unicode="&#xfb01;" horiz-adv-x="538" d="M518 0 L34 0 L34 18 Q78 18 93 39 Q106 55 106 107 L106 425 L18 425 L18 459 L106 459 L106 528 Q106 564 118.5 595 Q131 626 154.5 648.5 Q178 671 212.5 683.5 Q247 696 292 696 Q363 696 402 677 Q449 654 449 615 Q449 576 408 576 Q372 576 359 598 L341 640 Q326 662 288 662 Q245 662 217 637 Q189 612 189 576 L189 459 L446 459 L446 107 Q446 56 460 37 Q474 18 518 18 L518 0 Z M363 353 Q363 400 359 409 Q355 425 333 425 L189 425 L189 107 Q189 56 203 37 Q217 18 261 18 L291 18 Q335 18 350 39 Q363 55 363 107 L363 353 Z " />
<glyph glyph-name="uniFB02" unicode="&#xfb02;" horiz-adv-x="587" d="M563 0 L336 0 L336 18 Q380 18 395 39 Q408 55 408 107 L408 550 Q408 569 408 581.5 Q408 594 407 599 Q398 576 368 576 Q337 576 315 619 Q293 662 258 662 Q245 662 232.5 655 Q220 648 210.5 636 Q201 624 195 608.5 Q189 593 189 576 L189 459 L301 459 L301 425 L189 425 L189 107 Q189 56 203 37 Q217 18 261 18 L261 0 L34 0 L34 18 Q78 18 93 39 Q106 55 106 107 L106 425 L18 425 L18 459 L106 459 L106 528 Q106 597 151 647 Q197 696 262 696 Q351 696 389 661 L467 696 L491 696 L491 107 Q491 56 505 37 Q519 18 563 18 L563 0 Z " />
<glyph glyph-name="uniFB1F" unicode="&#xfb1f;" horiz-adv-x="373" d="M111 -53 L111 -18 L263 -18 L263 -53 L111 -53 Z M75 193 L75 510 L138 510 L138 216 L75 193 Z M235 193 L235 510 L298 510 L298 216 L235 193 Z " />
<glyph glyph-name="uniFB29" unicode="&#xfb29;" horiz-adv-x="460" d="M428 209 L32 209 L32 317 L176 317 L176 459 L284 459 L284 317 L428 317 L428 209 Z " />
<glyph glyph-name="uniFB2A" unicode="&#xfb2a;" horiz-adv-x="653" d="M145 156 Q153 132 167 110 Q181 88 203 71.5 Q225 55 255 45.5 Q285 36 326 36 Q381 36 418.5 56 Q456 76 478 106 Q500 136 509.5 169.5 Q519 203 519 230 L519 510 L583 510 L583 230 Q583 196 570.5 154 Q558 112 528.5 75 Q499 38 449.5 13 Q400 -12 326 -12 Q252 -12 202.5 10.5 Q153 33 123.5 68.5 Q94 104 82 146.5 Q70 189 70 230 L70 510 L134 510 L134 230 Q134 222 134 213.5 Q134 205 136 197 Q139 197 147.5 198 Q156 199 168 201.5 Q180 204 195 209 Q210 214 225 223 Q244 233 257.5 250 Q271 267 279 286.5 Q287 306 291 327.5 Q295 349 295 368 L295 510 L358 510 L358 359 Q358 336 352.5 313.5 Q347 291 336.5 270 Q326 249 312 232 Q298 215 281 203 Q244 178 212.5 169.5 Q181 161 151 156 L145 156 Z M585 626 Q585 612 575.5 602 Q566 592 551 592 Q537 592 527 602 Q517 612 517 626 Q517 641 527 650.5 Q537 660 551 660 Q566 660 575.5 650.5 Q585 641 585 626 Z " />
<glyph glyph-name="uniFB2B" unicode="&#xfb2b;" horiz-adv-x="653" d="M145 156 Q153 132 167 110 Q181 88 203 71.5 Q225 55 255 45.5 Q285 36 326 36 Q381 36 418.5 56 Q456 76 478 106 Q500 136 509.5 169.5 Q519 203 519 230 L519 510 L583 510 L583 230 Q583 196 570.5 154 Q558 112 528.5 75 Q499 38 449.5 13 Q400 -12 326 -12 Q252 -12 202.5 10.5 Q153 33 123.5 68.5 Q94 104 82 146.5 Q70 189 70 230 L70 510 L134 510 L134 230 Q134 222 134 213.5 Q134 205 136 197 Q139 197 147.5 198 Q156 199 168 201.5 Q180 204 195 209 Q210 214 225 223 Q244 233 257.5 250 Q271 267 279 286.5 Q287 306 291 327.5 Q295 349 295 368 L295 510 L358 510 L358 359 Q358 336 352.5 313.5 Q347 291 336.5 270 Q326 249 312 232 Q298 215 281 203 Q244 178 212.5 169.5 Q181 161 151 156 L145 156 Z M137 626 Q137 612 127.5 602 Q118 592 103 592 Q89 592 79 602 Q69 612 69 626 Q69 641 79 650.5 Q89 660 103 660 Q118 660 127.5 650.5 Q137 641 137 626 Z " />
<glyph glyph-name="uniFB2C" unicode="&#xfb2c;" horiz-adv-x="653" d="M145 156 Q153 132 167 110 Q181 88 203 71.5 Q225 55 255 45.5 Q285 36 326 36 Q381 36 418.5 56 Q456 76 478 106 Q500 136 509.5 169.5 Q519 203 519 230 L519 510 L583 510 L583 230 Q583 196 570.5 154 Q558 112 528.5 75 Q499 38 449.5 13 Q400 -12 326 -12 Q252 -12 202.5 10.5 Q153 33 123.5 68.5 Q94 104 82 146.5 Q70 189 70 230 L70 510 L134 510 L134 230 Q134 222 134 213.5 Q134 205 136 197 Q139 197 147.5 198 Q156 199 168 201.5 Q180 204 195 209 Q210 214 225 223 Q244 233 257.5 250 Q271 267 279 286.5 Q287 306 291 327.5 Q295 349 295 368 L295 510 L358 510 L358 359 Q358 336 352.5 313.5 Q347 291 336.5 270 Q326 249 312 232 Q298 215 281 203 Q244 178 212.5 169.5 Q181 161 151 156 L145 156 Z M553 626 Q553 612 543.5 602 Q534 592 519 592 Q505 592 495 602 Q485 612 485 626 Q485 641 495 650.5 Q505 660 519 660 Q534 660 543.5 650.5 Q553 641 553 626 Z M458 255 Q458 241 448.5 231 Q439 221 424 221 Q410 221 400 231 Q390 241 390 255 Q390 270 400 279.5 Q410 289 424 289 Q439 289 448.5 279.5 Q458 270 458 255 Z " />
<glyph glyph-name="uniFB2D" unicode="&#xfb2d;" horiz-adv-x="653" d="M145 156 Q153 132 167 110 Q181 88 203 71.5 Q225 55 255 45.5 Q285 36 326 36 Q381 36 418.5 56 Q456 76 478 106 Q500 136 509.5 169.5 Q519 203 519 230 L519 510 L583 510 L583 230 Q583 196 570.5 154 Q558 112 528.5 75 Q499 38 449.5 13 Q400 -12 326 -12 Q252 -12 202.5 10.5 Q153 33 123.5 68.5 Q94 104 82 146.5 Q70 189 70 230 L70 510 L134 510 L134 230 Q134 222 134 213.5 Q134 205 136 197 Q139 197 147.5 198 Q156 199 168 201.5 Q180 204 195 209 Q210 214 225 223 Q244 233 257.5 250 Q271 267 279 286.5 Q287 306 291 327.5 Q295 349 295 368 L295 510 L358 510 L358 359 Q358 336 352.5 313.5 Q347 291 336.5 270 Q326 249 312 232 Q298 215 281 203 Q244 178 212.5 169.5 Q181 161 151 156 L145 156 Z M458 255 Q458 241 448.5 231 Q439 221 424 221 Q410 221 400 231 Q390 241 390 255 Q390 270 400 279.5 Q410 289 424 289 Q439 289 448.5 279.5 Q458 270 458 255 Z M166 626 Q166 612 156.5 602 Q147 592 132 592 Q118 592 108 602 Q98 612 98 626 Q98 641 108 650.5 Q118 660 132 660 Q147 660 156.5 650.5 Q166 641 166 626 Z " />
<glyph glyph-name="uniFB2E" unicode="&#xfb2e;" horiz-adv-x="536" d="M489 510 L489 453 Q489 393 476 349 Q463 305 444.5 273.5 Q426 242 404.5 221.5 Q383 201 365 189 Q383 161 400.5 133.5 Q418 106 434 81 Q450 56 463.5 35 Q477 14 485 0 L409 0 Q386 40 362.5 76.5 Q339 113 313.5 151.5 Q288 190 258.5 231.5 Q229 273 194 323 Q167 297 149.5 264.5 Q132 232 122 196 Q112 160 108.5 121 Q105 82 105 43 L105 0 L43 0 Q43 9 42.5 23 Q42 37 42 55 Q42 85 45.5 123.5 Q49 162 61 204 Q73 246 96 288.5 Q119 331 158 369 Q131 405 99.5 444 Q68 483 45 510 L125 510 Q161 466 187.5 433.5 Q214 401 236.5 371 Q259 341 281.5 310 Q304 279 332 238 Q340 244 355.5 255.5 Q371 267 387 290 Q403 313 414.5 352 Q426 391 426 452 L426 510 L489 510 Z M189 -137 L189 -102 L341 -102 L341 -137 L189 -137 Z " />
<glyph glyph-name="uniFB2F" unicode="&#xfb2f;" horiz-adv-x="536" d="M489 510 L489 453 Q489 393 476 349 Q463 305 444.5 273.5 Q426 242 404.5 221.5 Q383 201 365 189 Q383 161 400.5 133.5 Q418 106 434 81 Q450 56 463.5 35 Q477 14 485 0 L409 0 Q386 40 362.5 76.5 Q339 113 313.5 151.5 Q288 190 258.5 231.5 Q229 273 194 323 Q167 297 149.5 264.5 Q132 232 122 196 Q112 160 108.5 121 Q105 82 105 43 L105 0 L43 0 Q43 9 42.5 23 Q42 37 42 55 Q42 85 45.5 123.5 Q49 162 61 204 Q73 246 96 288.5 Q119 331 158 369 Q131 405 99.5 444 Q68 483 45 510 L125 510 Q161 466 187.5 433.5 Q214 401 236.5 371 Q259 341 281.5 310 Q304 279 332 238 Q340 244 355.5 255.5 Q371 267 387 290 Q403 313 414.5 352 Q426 391 426 452 L426 510 L489 510 Z M282 -136 L285 -221 L245 -221 L247 -136 L190 -136 L190 -102 L341 -102 L341 -136 L282 -136 Z " />
<glyph glyph-name="uniFB30" unicode="&#xfb30;" horiz-adv-x="536" d="M489 510 L489 453 Q489 393 476 349 Q463 305 444.5 273.5 Q426 242 404.5 221.5 Q383 201 365 189 Q383 161 400.5 133.5 Q418 106 434 81 Q450 56 463.5 35 Q477 14 485 0 L409 0 Q386 40 362.5 76.5 Q339 113 313.5 151.5 Q288 190 258.5 231.5 Q229 273 194 323 Q167 297 149.5 264.5 Q132 232 122 196 Q112 160 108.5 121 Q105 82 105 43 L105 0 L43 0 Q43 9 42.5 23 Q42 37 42 55 Q42 85 45.5 123.5 Q49 162 61 204 Q73 246 96 288.5 Q119 331 158 369 Q131 405 99.5 444 Q68 483 45 510 L125 510 Q161 466 187.5 433.5 Q214 401 236.5 371 Q259 341 281.5 310 Q304 279 332 238 Q340 244 355.5 255.5 Q371 267 387 290 Q403 313 414.5 352 Q426 391 426 452 L426 510 L489 510 Z M299 -96 Q299 -110 289.5 -120 Q280 -130 265 -130 Q251 -130 241 -120 Q231 -110 231 -96 Q231 -81 241 -71.5 Q251 -62 265 -62 Q280 -62 289.5 -71.5 Q299 -81 299 -96 Z " />
<glyph glyph-name="uniFB31" unicode="&#xfb31;" horiz-adv-x="516" d="M35 0 L35 48 L332 48 L332 316 Q332 392 300.5 433 Q269 474 191 474 Q156 474 120.5 463.5 Q85 453 56 433 L54 478 Q86 498 123.5 510 Q161 522 206 522 Q308 522 351.5 470.5 Q395 419 395 314 L395 48 L471 48 L471 0 L35 0 Z M221 255 Q221 241 211.5 231 Q202 221 187 221 Q173 221 163 231 Q153 241 153 255 Q153 270 163 279.5 Q173 289 187 289 Q202 289 211.5 279.5 Q221 270 221 255 Z " />
<glyph glyph-name="uniFB32" unicode="&#xfb32;" horiz-adv-x="324" d="M199 0 L199 185 L197 185 Q184 162 169.5 139.5 Q155 117 136 93 Q117 69 91.5 43 Q66 17 30 -13 L30 56 Q49 75 76.5 104.5 Q104 134 129 166 Q154 198 171.5 230 Q189 262 189 287 L189 341 Q189 367 186 389 Q183 411 174.5 427 Q166 443 149.5 452 Q133 461 106 461 Q98 461 93 461 Q88 461 83 460 L81 510 Q90 511 101 511.5 Q112 512 123 512 Q168 512 194 493 Q220 474 233 444.5 Q246 415 249 380.5 Q252 346 252 315 L252 91 Q252 58 252.5 36 Q253 14 254 0 L199 0 Z M144 295 Q144 281 134.5 271 Q125 261 110 261 Q96 261 86 271 Q76 281 76 295 Q76 310 86 319.5 Q96 329 110 329 Q125 329 134.5 319.5 Q144 310 144 295 Z " />
<glyph glyph-name="uniFB33" unicode="&#xfb33;" horiz-adv-x="464" d="M326 462 L326 0 L263 0 L263 462 L40 462 L40 510 L416 510 L416 462 L326 462 Z M181 254 Q181 240 171.5 230 Q162 220 147 220 Q133 220 123 230 Q113 240 113 254 Q113 269 123 278.5 Q133 288 147 288 Q162 288 171.5 278.5 Q181 269 181 254 Z " />
<glyph glyph-name="uniFB34" unicode="&#xfb34;" horiz-adv-x="542" d="M408 0 L408 316 Q408 394 361.5 434 Q315 474 237 474 Q219 474 198 471 Q177 468 155 462.5 Q133 457 112 449.5 Q91 442 73 432 L70 478 Q88 487 110 495 Q132 503 156 509 Q180 515 204.5 518.5 Q229 522 252 522 Q355 522 413 471 Q471 420 471 314 L471 0 L408 0 Z M74 0 L74 248 L137 269 L137 0 L74 0 Z M310 254 Q310 240 300.5 230 Q291 220 276 220 Q262 220 252 230 Q242 240 242 254 Q242 269 252 278.5 Q262 288 276 288 Q291 288 300.5 278.5 Q310 269 310 254 Z " />
<glyph glyph-name="uniFB35" unicode="&#xfb35;" horiz-adv-x="231" d="M93 0 L93 510 L156 510 L156 0 L93 0 Z M68 272 Q68 258 58.5 248 Q49 238 34 238 Q20 238 10 248 Q0 258 0 272 Q0 287 10 296.5 Q20 306 34 306 Q49 306 58.5 296.5 Q68 287 68 272 Z " />
<glyph glyph-name="uniFB36" unicode="&#xfb36;" horiz-adv-x="286" d="M246 462 Q229 462 215 457.5 Q201 453 187 441 Q164 421 158.5 393.5 Q153 366 157 343 L214 0 L151 0 L100 310 Q97 328 98.5 349 Q100 370 105.5 389 Q111 408 120 422.5 Q129 437 142 443 Q147 446 152.5 449.5 Q158 453 160.5 455.5 Q163 458 160.5 460 Q158 462 146 462 L35 462 L35 510 L251 510 L251 462 L246 462 Z M76 255 Q76 241 66.5 231 Q57 221 42 221 Q28 221 18 231 Q8 241 8 255 Q8 270 18 279.5 Q28 289 42 289 Q57 289 66.5 279.5 Q76 270 76 255 Z " />
<glyph glyph-name="uniFB38" unicode="&#xfb38;" horiz-adv-x="549" d="M489 204 Q489 104 438.5 46 Q388 -12 291 -12 L269 -12 Q173 -12 121.5 46 Q70 104 70 204 L70 510 L133 510 L133 246 Q133 212 139.5 175 Q146 138 162.5 107 Q179 76 207.5 56 Q236 36 280 36 Q324 36 352.5 56 Q381 76 397.5 107 Q414 138 420 175 Q426 212 426 246 L426 372 Q426 407 417 424.5 Q408 442 384 458 Q365 470 345.5 472.5 Q326 475 304 473 Q296 472 286.5 469.5 Q277 467 269 464 L269 506 L288 513 Q303 518 315 520 Q327 522 339 522 Q351 522 376 517 Q399 512 414.5 505.5 Q430 499 447 483 Q460 471 468.5 454.5 Q477 438 481.5 420.5 Q486 403 487.5 386.5 Q489 370 489 357 L489 204 Z M317 254 Q317 240 307.5 230 Q298 220 283 220 Q269 220 259 230 Q249 240 249 254 Q249 269 259 278.5 Q269 288 283 288 Q298 288 307.5 278.5 Q317 269 317 254 Z " />
<glyph glyph-name="uniFB39" unicode="&#xfb39;" horiz-adv-x="230" d="M92 193 L92 510 L155 510 L155 216 L92 193 Z M68 360 Q68 346 58.5 336 Q49 326 34 326 Q20 326 10 336 Q0 346 0 360 Q0 375 10 384.5 Q20 394 34 394 Q49 394 58.5 384.5 Q68 375 68 360 Z " />
<glyph glyph-name="uniFB3A" unicode="&#xfb3a;" horiz-adv-x="476" d="M343 -210 L343 320 Q343 395 311.5 435 Q280 475 202 475 Q184 475 163 472 Q142 469 120 464 Q98 459 77 451.5 Q56 444 38 434 L35 479 Q53 488 75 496 Q97 504 121 510 Q145 516 169.5 519 Q194 522 217 522 Q319 522 362.5 471.5 Q406 421 406 318 L406 -210 L343 -210 Z M232 254 Q232 240 222.5 230 Q213 220 198 220 Q184 220 174 230 Q164 240 164 254 Q164 269 174 278.5 Q184 288 198 288 Q213 288 222.5 278.5 Q232 269 232 254 Z " />
<glyph glyph-name="uniFB3B" unicode="&#xfb3b;" horiz-adv-x="463" d="M423 252 Q423 193 404 144.5 Q385 96 351.5 61.5 Q318 27 271 8 Q224 -11 168 -11 Q143 -11 124 -9 Q105 -7 89 -4 Q73 -1 59 3.5 Q45 8 30 13 L34 67 Q62 50 92 43.5 Q122 37 164 37 Q210 37 246 53.5 Q282 70 307 99.5 Q332 129 345 168.5 Q358 208 358 254 Q358 302 344 342.5 Q330 383 304.5 411.5 Q279 440 244 456 Q209 472 168 472 Q124 472 94.5 465 Q65 458 34 441 L30 496 Q40 500 51 503.5 Q62 507 76 510 Q110 520 168 520 Q224 520 271 501 Q318 482 351.5 447.5 Q385 413 404 363 Q423 313 423 252 Z M199 254 Q199 240 189.5 230 Q180 220 165 220 Q151 220 141 230 Q131 240 131 254 Q131 269 141 278.5 Q151 288 165 288 Q180 288 189.5 278.5 Q199 269 199 254 Z " />
<glyph glyph-name="uniFB3C" unicode="&#xfb3c;" horiz-adv-x="458" d="M389 220 Q387 201 382.5 177.5 Q378 154 369 129.5 Q360 105 346.5 82.5 Q333 60 313 43 Q281 16 244 8.5 Q207 1 174 0 L174 48 Q192 48 213 51.5 Q234 55 251 65 Q272 78 286 96 Q300 114 308 134 Q316 154 320 174 Q324 194 326 211 L347 462 L40 462 L40 700 L103 700 L103 510 L414 510 L389 220 Z M224 299 Q224 285 214.5 275 Q205 265 190 265 Q176 265 166 275 Q156 285 156 299 Q156 314 166 323.5 Q176 333 190 333 Q205 333 214.5 323.5 Q224 314 224 299 Z " />
<glyph glyph-name="uniFB3E" unicode="&#xfb3e;" horiz-adv-x="559" d="M494 153 Q494 140 492.5 123.5 Q491 107 486.5 89.5 Q482 72 473.5 55.5 Q465 39 452 27 Q435 11 419.5 4.5 Q404 -2 381 -7 Q356 -12 344 -12 Q332 -12 320 -10 Q308 -8 293 -3 L274 4 L274 46 Q282 43 291.5 40.5 Q301 38 309 37 Q331 35 350.5 37.5 Q370 40 389 52 Q413 68 422 85.5 Q431 103 431 138 L431 287 Q431 321 428 354.5 Q425 388 412.5 414.5 Q400 441 375 457.5 Q350 474 306 474 Q263 474 231.5 448.5 Q200 423 179 388 Q158 353 148 316 Q138 279 138 256 L138 0 L75 0 L75 510 L138 510 L138 401 L141 401 Q159 435 183 458.5 Q207 482 232 496 Q257 510 280 516 Q303 522 318 522 Q413 522 453.5 464 Q494 406 494 306 L494 153 Z M324 255 Q324 241 314.5 231 Q305 221 290 221 Q276 221 266 231 Q256 241 256 255 Q256 270 266 279.5 Q276 289 290 289 Q305 289 314.5 279.5 Q324 270 324 255 Z " />
<glyph glyph-name="uniFB40" unicode="&#xfb40;" horiz-adv-x="310" d="M35 0 L47 48 L178 48 Q178 102 177.5 151 Q177 200 177 239 L177 325 Q177 351 172.5 375 Q168 399 158 417.5 Q148 436 132.5 447 Q117 458 95 458 Q87 458 82 458 Q77 458 72 457 L70 511 Q79 512 90 512 Q101 512 112 512 Q157 512 183 493 Q209 474 221.5 444.5 Q234 415 237 380.5 Q240 346 240 315 L240 0 L35 0 Z M119 254 Q119 240 109.5 230 Q100 220 85 220 Q71 220 61 230 Q51 240 51 254 Q51 269 61 278.5 Q71 288 85 288 Q100 288 109.5 278.5 Q119 269 119 254 Z " />
<glyph glyph-name="uniFB41" unicode="&#xfb41;" horiz-adv-x="543" d="M503 255 Q503 200 488.5 151.5 Q474 103 445.5 66.5 Q417 30 375.5 9 Q334 -12 280 -12 Q226 -12 185.5 9 Q145 30 118 66.5 Q91 103 78 151.5 Q65 200 65 255 L65 464 Q88 476 116 486.5 Q144 497 173 505 Q202 513 229.5 517.5 Q257 522 280 522 Q335 522 376.5 502 Q418 482 446 447 Q474 412 488.5 362.5 Q503 313 503 255 Z M434 255 Q434 295 425.5 334.5 Q417 374 399 405 Q381 436 351.5 455 Q322 474 280 474 Q244 474 210 463.5 Q176 453 134 431 L134 265 Q134 227 139.5 187 Q145 147 160.5 113 Q176 79 204.5 57.5 Q233 36 280 36 Q326 36 356 56 Q386 76 403 108 Q420 140 427 178.5 Q434 217 434 255 Z M317 254 Q317 240 307.5 230 Q298 220 283 220 Q269 220 259 230 Q249 240 249 254 Q249 269 259 278.5 Q269 288 283 288 Q298 288 307.5 278.5 Q317 269 317 254 Z " />
<glyph glyph-name="uniFB43" unicode="&#xfb43;" horiz-adv-x="508" d="M384 -208 L384 258 Q384 306 370 345.5 Q356 385 330.5 413.5 Q305 442 270 457.5 Q235 473 194 473 Q177 473 164.5 472.5 Q152 472 142 471 Q132 470 123 469 Q114 468 104 467 L104 282 L198 282 L198 239 L50 239 L50 508 Q60 511 76.5 513 Q93 515 113 516.5 Q133 518 154 519 Q175 520 194 520 Q252 520 299 501.5 Q346 483 379 448.5 Q412 414 430 365 Q448 316 448 256 L448 -208 L384 -208 Z M327 272 Q327 258 317.5 248 Q308 238 293 238 Q279 238 269 248 Q259 258 259 272 Q259 287 269 296.5 Q279 306 293 306 Q308 306 317.5 296.5 Q327 287 327 272 Z " />
<glyph glyph-name="uniFB44" unicode="&#xfb44;" horiz-adv-x="499" d="M459 252 Q459 193 440 144.5 Q421 96 387 61.5 Q353 27 306 8 Q259 -11 204 -11 Q153 -11 121.5 -6.5 Q90 -2 66 3 L70 57 Q86 50 122 43.5 Q158 37 200 37 Q246 37 282 53.5 Q318 70 343 99.5 Q368 129 381 168.5 Q394 208 394 254 Q394 302 380 342.5 Q366 383 340.5 411.5 Q315 440 280 456 Q245 472 204 472 Q173 472 153.5 470.5 Q134 469 114 467 L114 282 L208 282 L208 239 L60 239 L60 508 Q82 512 100 514.5 Q118 517 135 518 Q152 519 168.5 519.5 Q185 520 204 520 Q262 520 309 501 Q356 482 389.5 447.5 Q423 413 441 363 Q459 313 459 252 Z M334 271 Q334 257 324.5 247 Q315 237 300 237 Q286 237 276 247 Q266 257 266 271 Q266 286 276 295.5 Q286 305 300 305 Q315 305 324.5 295.5 Q334 286 334 271 Z " />
<glyph glyph-name="uniFB46" unicode="&#xfb46;" horiz-adv-x="475" d="M437 510 Q438 501 438 492 Q438 483 438 475 Q438 410 424.5 363.5 Q411 317 391.5 284 Q372 251 349 230 Q326 209 308 196 L437 0 L33 0 L33 48 L329 48 L25 510 L102 510 L277 244 Q287 251 303.5 264.5 Q320 278 335 307 Q350 336 360.5 384.5 Q371 433 369 510 L437 510 Z M174 151 Q174 137 164.5 127 Q155 117 140 117 Q126 117 116 127 Q106 137 106 151 Q106 166 116 175.5 Q126 185 140 185 Q155 185 164.5 175.5 Q174 166 174 151 Z " />
<glyph glyph-name="uniFB47" unicode="&#xfb47;" horiz-adv-x="544" d="M475 229 Q473 211 468.5 187.5 Q464 164 455 140 Q446 116 432.5 93 Q419 70 399 53 Q367 26 330 18.5 Q293 11 260 10 L260 57 Q275 58 297 61 Q319 64 336 74 Q357 87 371 105.5 Q385 124 393.5 144 Q402 164 406 184 Q410 204 412 221 L432 462 L55 462 L55 510 L499 510 L475 229 Z M67 -209 L67 284 L130 305 L130 -209 L67 -209 Z M307 254 Q307 240 297.5 230 Q288 220 273 220 Q259 220 249 230 Q239 240 239 254 Q239 269 249 278.5 Q259 288 273 288 Q288 288 297.5 278.5 Q307 269 307 254 Z " />
<glyph glyph-name="uniFB48" unicode="&#xfb48;" horiz-adv-x="481" d="M348 0 L348 316 Q348 392 316.5 433 Q285 474 207 474 Q189 474 168 471 Q147 468 125 462.5 Q103 457 82 449.5 Q61 442 43 432 L40 478 Q58 487 80 495 Q102 503 126 509 Q150 515 174.5 518.5 Q199 522 222 522 Q324 522 367.5 470.5 Q411 419 411 314 L411 0 L348 0 Z M218 254 Q218 240 208.5 230 Q199 220 184 220 Q170 220 160 230 Q150 240 150 254 Q150 269 160 278.5 Q170 288 184 288 Q199 288 208.5 278.5 Q218 269 218 254 Z " />
<glyph glyph-name="uniFB49" unicode="&#xfb49;" horiz-adv-x="653" d="M145 156 Q153 132 167 110 Q181 88 203 71.5 Q225 55 255 45.5 Q285 36 326 36 Q381 36 418.5 56 Q456 76 478 106 Q500 136 509.5 169.5 Q519 203 519 230 L519 510 L583 510 L583 230 Q583 196 570.5 154 Q558 112 528.5 75 Q499 38 449.5 13 Q400 -12 326 -12 Q252 -12 202.5 10.5 Q153 33 123.5 68.5 Q94 104 82 146.5 Q70 189 70 230 L70 510 L134 510 L134 230 Q134 222 134 213.5 Q134 205 136 197 Q139 197 147.5 198 Q156 199 168 201.5 Q180 204 195 209 Q210 214 225 223 Q244 233 257.5 250 Q271 267 279 286.5 Q287 306 291 327.5 Q295 349 295 368 L295 510 L358 510 L358 359 Q358 336 352.5 313.5 Q347 291 336.5 270 Q326 249 312 232 Q298 215 281 203 Q244 178 212.5 169.5 Q181 161 151 156 L145 156 Z M458 255 Q458 241 448.5 231 Q439 221 424 221 Q410 221 400 231 Q390 241 390 255 Q390 270 400 279.5 Q410 289 424 289 Q439 289 448.5 279.5 Q458 270 458 255 Z " />
<glyph glyph-name="uniFB4A" unicode="&#xfb4a;" horiz-adv-x="569" d="M446 0 L446 316 Q446 392 414.5 433 Q383 474 305 474 Q284 474 260.5 472.5 Q237 471 205 466 L205 214 Q205 196 204.5 173 Q204 150 200.5 126 Q197 102 189.5 78.5 Q182 55 167.5 37 Q153 19 131 8 Q109 -3 77 -3 Q66 -3 55 -2.5 Q44 -2 35 -1 L37 49 Q42 48 47 48 Q52 48 60 48 Q85 48 101 58.5 Q117 69 126 87 Q135 105 138.5 128.5 Q142 152 142 179 L142 452 Q125 446 113 441.5 Q101 437 92 432 L92 480 Q126 499 184 510.5 Q242 522 320 522 Q422 522 465.5 470.5 Q509 419 509 314 L509 0 L446 0 Z M361 254 Q361 240 351.5 230 Q342 220 327 220 Q313 220 303 230 Q293 240 293 254 Q293 269 303 278.5 Q313 288 327 288 Q342 288 351.5 278.5 Q361 269 361 254 Z " />
<glyph glyph-name="uniFB4B" unicode="&#xfb4b;" horiz-adv-x="218" d="M77 0 L77 510 L140 510 L140 0 L77 0 Z M143 623 Q143 609 133.5 599 Q124 589 109 589 Q95 589 85 599 Q75 609 75 623 Q75 638 85 647.5 Q95 657 109 657 Q124 657 133.5 647.5 Q143 638 143 623 Z " />
<glyph glyph-name="uniFB4C" unicode="&#xfb4c;" horiz-adv-x="516" d="M35 0 L35 48 L332 48 L332 316 Q332 392 300.5 433 Q269 474 191 474 Q156 474 120.5 463.5 Q85 453 56 433 L54 478 Q86 498 123.5 510 Q161 522 206 522 Q308 522 351.5 470.5 Q395 419 395 314 L395 48 L471 48 L471 0 L35 0 Z M121 568 L121 610 L298 610 L298 568 L121 568 Z " />
<glyph glyph-name="uniFB4D" unicode="&#xfb4d;" horiz-adv-x="463" d="M423 252 Q423 193 404 144.5 Q385 96 351.5 61.5 Q318 27 271 8 Q224 -11 168 -11 Q143 -11 124 -9 Q105 -7 89 -4 Q73 -1 59 3.5 Q45 8 30 13 L34 67 Q62 50 92 43.5 Q122 37 164 37 Q210 37 246 53.5 Q282 70 307 99.5 Q332 129 345 168.5 Q358 208 358 254 Q358 302 344 342.5 Q330 383 304.5 411.5 Q279 440 244 456 Q209 472 168 472 Q124 472 94.5 465 Q65 458 34 441 L30 496 Q40 500 51 503.5 Q62 507 76 510 Q110 520 168 520 Q224 520 271 501 Q318 482 351.5 447.5 Q385 413 404 363 Q423 313 423 252 Z M85 568 L85 610 L262 610 L262 568 L85 568 Z " />
<glyph glyph-name="uniFB4E" unicode="&#xfb4e;" horiz-adv-x="499" d="M459 252 Q459 193 440 144.5 Q421 96 387 61.5 Q353 27 306 8 Q259 -11 204 -11 Q153 -11 121.5 -6.5 Q90 -2 66 3 L70 57 Q86 50 122 43.5 Q158 37 200 37 Q246 37 282 53.5 Q318 70 343 99.5 Q368 129 381 168.5 Q394 208 394 254 Q394 302 380 342.5 Q366 383 340.5 411.5 Q315 440 280 456 Q245 472 204 472 Q173 472 153.5 470.5 Q134 469 114 467 L114 282 L208 282 L208 239 L60 239 L60 508 Q82 512 100 514.5 Q118 517 135 518 Q152 519 168.5 519.5 Q185 520 204 520 Q262 520 309 501 Q356 482 389.5 447.5 Q423 413 441 363 Q459 313 459 252 Z M119 568 L119 610 L296 610 L296 568 L119 568 Z " />
<glyph glyph-name="uniFB4F" unicode="&#xfb4f;" horiz-adv-x="449" d="M430 297 Q430 213 370 152 Q310 92 226 92 Q141 92 80 152 Q20 212 20 297 Q20 382 80 441 Q142 500 226 500 Q310 500 370 440 Q430 381 430 297 Z " />
<glyph glyph-name="uniFFFC" unicode="&#xfffc;" horiz-adv-x="1000" d="M1000 562 L951 562 L842 670 L842 719 L1000 719 L1000 562 Z M719 670 L562 670 L562 719 L719 719 L719 670 Z M1000 281 L951 281 L951 438 L1000 438 L1000 281 Z M870 298 Q870 181 767 181 Q725 181 700 203 L735 241 Q748 229 767 229 Q813 229 813 296 L813 532 L870 532 L870 298 Z M438 670 L281 670 L281 719 L438 719 L438 670 Z M1000 0 L842 0 L842 49 L951 158 L1000 158 L1000 0 Z M695 289 Q695 187 561 187 L444 187 L444 532 L559 532 Q680 532 680 441 Q680 396 637 371 Q695 349 695 289 Z M158 670 L49 562 L0 562 L0 719 L158 719 L158 670 Z M719 0 L562 0 L562 49 L719 49 L719 0 Z M417 359 Q417 274 377 227.5 Q337 181 262 181 Q187 181 148 227.5 Q109 274 109 359 Q109 444 148 491 Q187 538 262 538 Q337 538 377 491 Q417 444 417 359 Z M49 281 L0 281 L0 438 L49 438 L49 281 Z M438 0 L281 0 L281 49 L438 49 L438 0 Z M158 0 L0 0 L0 158 L49 158 L158 49 L158 0 Z M624 436 Q624 484 544 484 L500 484 L500 390 L550 390 Q624 390 624 436 Z M638 289 Q638 342 555 342 L500 342 L500 234 L561 234 Q638 234 638 289 Z M360 359 Q360 490 262 490 Q166 490 166 359 Q166 229 262 229 Q360 229 360 359 Z " />
<glyph glyph-name="uni05C7" unicode="&#x5c7;" d="M66 -138 L13 -138 L17 -180 Q18 -185 18 -189 L19 -190 L19 -245 L-19 -245 L-19 -190 Q-19 -190 -17 -180 Q-16 -173 -15 -162.5 Q-14 -152 -13 -138 L-66 -138 L-66 -102 L66 -102 L66 -138 Z " />
<glyph glyph-name="_1" unicode="&#xdb8d;" horiz-adv-x="536" d="M489 510 L489 453 Q489 393 476 349 Q463 305 444.5 273.5 Q426 242 404.5 221.5 Q383 201 365 189 Q383 161 400.5 133.5 Q418 106 434 81 Q450 56 463.5 35 Q477 14 485 0 L409 0 Q386 40 362.5 76.5 Q339 113 313.5 151.5 Q288 190 258.5 231.5 Q229 273 194 323 Q167 297 149.5 264.5 Q132 232 122 196 Q112 160 108.5 121 Q105 82 105 43 L105 0 L43 0 Q43 9 42.5 23 Q42 37 42 55 Q42 85 45.5 123.5 Q49 162 61 204 Q73 246 96 288.5 Q119 331 158 369 Q131 405 99.5 444 Q68 483 45 510 L125 510 Q161 466 187.5 433.5 Q214 401 236.5 371 Q259 341 281.5 310 Q304 279 332 238 Q340 244 355.5 255.5 Q371 267 387 290 Q403 313 414.5 352 Q426 391 426 452 L426 510 L489 510 Z M259 130 Q259 116 249.5 106 Q240 96 225 96 Q211 96 201 106 Q191 116 191 130 Q191 145 201 154.5 Q211 164 225 164 Q240 164 249.5 154.5 Q259 145 259 130 Z " />
<glyph glyph-name="_2" unicode="&#xdb86;" horiz-adv-x="449" d="" />
<glyph glyph-name="_3" unicode="&#xdb87;" horiz-adv-x="449" d="" />
<glyph glyph-name="_4" unicode="&#xdb88;" horiz-adv-x="449" d="" />
<glyph glyph-name="_5" unicode="&#xdb90;" d="M37 -210 L37 -102 L61 -102 L61 -210 L37 -210 Z M-46 -214 Q-46 -227 -54.5 -236 Q-63 -245 -76 -245 Q-90 -245 -99 -236 Q-108 -227 -108 -214 Q-108 -201 -99 -191.5 Q-90 -182 -77 -182 Q-63 -182 -54.5 -191.5 Q-46 -201 -46 -214 Z M1 -133 Q1 -146 -8 -155.5 Q-17 -165 -30 -165 Q-43 -165 -52 -155.5 Q-61 -146 -61 -133 Q-61 -120 -52 -111 Q-43 -102 -30 -102 Q-17 -102 -8 -111 Q1 -120 1 -133 Z M-98 -133 Q-98 -146 -107 -155.5 Q-116 -165 -129 -165 Q-143 -165 -151.5 -155.5 Q-160 -146 -160 -133 Q-160 -120 -151.5 -111 Q-143 -102 -130 -102 Q-116 -102 -107 -111 Q-98 -120 -98 -133 Z M160 -133 Q160 -146 151.5 -155.5 Q143 -165 130 -165 Q116 -165 107 -155.5 Q98 -146 98 -133 Q98 -120 107 -111 Q116 -102 129 -102 Q143 -102 151.5 -111 Q160 -120 160 -133 Z M160 -214 Q160 -227 151.5 -236 Q143 -245 130 -245 Q116 -245 107 -236 Q98 -227 98 -214 Q98 -201 107 -191.5 Q116 -182 129 -182 Q143 -182 151.5 -191.5 Q160 -201 160 -214 Z " />
<glyph glyph-name="_6" unicode="&#xdb91;" d="M-149 -137 L-149 -102 L2 -102 L2 -137 L-149 -137 Z M34 -210 L34 -102 L58 -102 L58 -210 L34 -210 Z M150 -133 Q150 -146 141.5 -155.5 Q133 -165 120 -165 Q106 -165 97 -155.5 Q88 -146 88 -133 Q88 -120 97 -111 Q106 -102 119 -102 Q133 -102 141.5 -111 Q150 -120 150 -133 Z M150 -214 Q150 -227 141.5 -236 Q133 -245 120 -245 Q106 -245 97 -236 Q88 -227 88 -214 Q88 -201 97 -191.5 Q106 -182 119 -182 Q133 -182 141.5 -191.5 Q150 -201 150 -214 Z " />
<glyph glyph-name="_7" unicode="&#xdb92;" d="M-58 -137 L-55 -222 L-95 -222 L-92 -137 L-149 -137 L-149 -102 L1 -102 L1 -137 L-58 -137 Z M36 -210 L36 -102 L60 -102 L60 -210 L36 -210 Z M150 -133 Q150 -146 141.5 -155.5 Q133 -165 120 -165 Q106 -165 97 -155.5 Q88 -146 88 -133 Q88 -120 97 -111 Q106 -102 119 -102 Q133 -102 141.5 -111 Q150 -120 150 -133 Z M150 -214 Q150 -227 141.5 -236 Q133 -245 120 -245 Q106 -245 97 -236 Q88 -227 88 -214 Q88 -201 97 -191.5 Q106 -182 119 -182 Q133 -182 141.5 -191.5 Q150 -201 150 -214 Z " />
<glyph glyph-name="_8" unicode="&#xdb93;" d="M31 -133 Q31 -146 22 -155.5 Q13 -165 0 -165 Q-14 -165 -23 -155.5 Q-32 -146 -32 -133 Q-32 -120 -23 -111 Q-14 -102 -1 -102 Q13 -102 22 -111 Q31 -120 31 -133 Z M31 -214 Q31 -227 22 -236 Q13 -245 0 -245 Q-14 -245 -23 -236 Q-32 -227 -32 -214 Q-32 -201 -23 -191.5 Q-14 -182 -1 -182 Q13 -182 22 -191.5 Q31 -201 31 -214 Z " />
<glyph glyph-name="uni00A0" unicode="&#xa0;" horiz-adv-x="250" d="" />
<glyph glyph-name="_9" unicode="&#xdba0;" horiz-adv-x="536" d="M489 510 L489 453 Q489 393 476 349 Q463 305 444.5 273.5 Q426 242 404.5 221.5 Q383 201 365 189 Q383 161 400.5 133.5 Q418 106 434 81 Q450 56 463.5 35 Q477 14 485 0 L409 0 Q386 40 362.5 76.5 Q339 113 313.5 151.5 Q288 190 258.5 231.5 Q229 273 194 323 Q167 297 149.5 264.5 Q132 232 122 196 Q112 160 108.5 121 Q105 82 105 43 L105 0 L43 0 Q43 9 42.5 23 Q42 37 42 55 Q42 85 45.5 123.5 Q49 162 61 204 Q73 246 96 288.5 Q119 331 158 369 Q131 405 99.5 444 Q68 483 45 510 L125 510 Q161 466 187.5 433.5 Q214 401 236.5 371 Q259 341 281.5 310 Q304 279 332 238 Q340 244 355.5 255.5 Q371 267 387 290 Q403 313 414.5 352 Q426 391 426 452 L426 510 L489 510 Z " />
<glyph glyph-name="_10" unicode="&#xdba1;" horiz-adv-x="516" d="M35 0 L35 48 L332 48 L332 316 Q332 392 300.5 433 Q269 474 191 474 Q156 474 120.5 463.5 Q85 453 56 433 L54 478 Q86 498 123.5 510 Q161 522 206 522 Q308 522 351.5 470.5 Q395 419 395 314 L395 48 L471 48 L471 0 L35 0 Z " />
<glyph glyph-name="_11" unicode="&#xdba2;" horiz-adv-x="324" d="M199 0 L199 185 L197 185 Q184 162 169.5 139.5 Q155 117 136 93 Q117 69 91.5 43 Q66 17 30 -13 L30 56 Q49 75 76.5 104.5 Q104 134 129 166 Q154 198 171.5 230 Q189 262 189 287 L189 341 Q189 367 186 389 Q183 411 174.5 427 Q166 443 149.5 452 Q133 461 106 461 Q98 461 93 461 Q88 461 83 460 L81 510 Q90 511 101 511.5 Q112 512 123 512 Q168 512 194 493 Q220 474 233 444.5 Q246 415 249 380.5 Q252 346 252 315 L252 91 Q252 58 252.5 36 Q253 14 254 0 L199 0 Z " />
<glyph glyph-name="_12" unicode="&#xdba3;" horiz-adv-x="464" d="M326 462 L326 0 L263 0 L263 462 L40 462 L40 510 L416 510 L416 462 L326 462 Z " />
<glyph glyph-name="_13" unicode="&#xdba4;" horiz-adv-x="213" d="M75 0 L75 510 L138 510 L138 0 L75 0 Z " />
<glyph glyph-name="_14" unicode="&#xdba5;" horiz-adv-x="286" d="M246 462 Q229 462 215 457.5 Q201 453 187 441 Q164 421 158.5 393.5 Q153 366 157 343 L214 0 L151 0 L100 310 Q97 328 98.5 349 Q100 370 105.5 389 Q111 408 120 422.5 Q129 437 142 443 Q147 446 152.5 449.5 Q158 453 160.5 455.5 Q163 458 160.5 460 Q158 462 146 462 L35 462 L35 510 L251 510 L251 462 L246 462 Z " />
<glyph glyph-name="_15" unicode="&#xdba6;" horiz-adv-x="549" d="M489 204 Q489 104 438.5 46 Q388 -12 291 -12 L269 -12 Q173 -12 121.5 46 Q70 104 70 204 L70 510 L133 510 L133 246 Q133 212 139.5 175 Q146 138 162.5 107 Q179 76 207.5 56 Q236 36 280 36 Q324 36 352.5 56 Q381 76 397.5 107 Q414 138 420 175 Q426 212 426 246 L426 372 Q426 407 417 424.5 Q408 442 384 458 Q365 470 345.5 472.5 Q326 475 304 473 Q296 472 286.5 469.5 Q277 467 269 464 L269 506 L288 513 Q303 518 315 520 Q327 522 339 522 Q351 522 376 517 Q399 512 414.5 505.5 Q430 499 447 483 Q460 471 468.5 454.5 Q477 438 481.5 420.5 Q486 403 487.5 386.5 Q489 370 489 357 L489 204 Z " />
<glyph glyph-name="_16" unicode="&#xdba7;" horiz-adv-x="213" d="M75 193 L75 510 L138 510 L138 216 L75 193 Z " />
<glyph glyph-name="_17" unicode="&#xdba8;" horiz-adv-x="476" d="M343 -210 L343 320 Q343 395 311.5 435 Q280 475 202 475 Q184 475 163 472 Q142 469 120 464 Q98 459 77 451.5 Q56 444 38 434 L35 479 Q53 488 75 496 Q97 504 121 510 Q145 516 169.5 519 Q194 522 217 522 Q319 522 362.5 471.5 Q406 421 406 318 L406 -210 L343 -210 Z " />
<glyph glyph-name="_18" unicode="&#xdba9;" horiz-adv-x="463" d="M423 252 Q423 193 404 144.5 Q385 96 351.5 61.5 Q318 27 271 8 Q224 -11 168 -11 Q143 -11 124 -9 Q105 -7 89 -4 Q73 -1 59 3.5 Q45 8 30 13 L34 67 Q62 50 92 43.5 Q122 37 164 37 Q210 37 246 53.5 Q282 70 307 99.5 Q332 129 345 168.5 Q358 208 358 254 Q358 302 344 342.5 Q330 383 304.5 411.5 Q279 440 244 456 Q209 472 168 472 Q124 472 94.5 465 Q65 458 34 441 L30 496 Q40 500 51 503.5 Q62 507 76 510 Q110 520 168 520 Q224 520 271 501 Q318 482 351.5 447.5 Q385 413 404 363 Q423 313 423 252 Z " />
<glyph glyph-name="_19" unicode="&#xdbaa;" horiz-adv-x="458" d="M389 220 Q387 201 382.5 177.5 Q378 154 369 129.5 Q360 105 346.5 82.5 Q333 60 313 43 Q281 16 244 8.5 Q207 1 174 0 L174 48 Q192 48 213 51.5 Q234 55 251 65 Q272 78 286 96 Q300 114 308 134 Q316 154 320 174 Q324 194 326 211 L347 462 L40 462 L40 700 L103 700 L103 510 L414 510 L389 220 Z " />
<glyph glyph-name="_20" unicode="&#xdbab;" horiz-adv-x="559" d="M494 153 Q494 140 492.5 123.5 Q491 107 486.5 89.5 Q482 72 473.5 55.5 Q465 39 452 27 Q435 11 419.5 4.5 Q404 -2 381 -7 Q356 -12 344 -12 Q332 -12 320 -10 Q308 -8 293 -3 L274 4 L274 46 Q282 43 291.5 40.5 Q301 38 309 37 Q331 35 350.5 37.5 Q370 40 389 52 Q413 68 422 85.5 Q431 103 431 138 L431 287 Q431 321 428 354.5 Q425 388 412.5 414.5 Q400 441 375 457.5 Q350 474 306 474 Q263 474 231.5 448.5 Q200 423 179 388 Q158 353 148 316 Q138 279 138 256 L138 0 L75 0 L75 510 L138 510 L138 401 L141 401 Q159 435 183 458.5 Q207 482 232 496 Q257 510 280 516 Q303 522 318 522 Q413 522 453.5 464 Q494 406 494 306 L494 153 Z " />
<glyph glyph-name="_21" unicode="&#xdbac;" horiz-adv-x="310" d="M35 0 L47 48 L178 48 Q178 102 177.5 151 Q177 200 177 239 L177 325 Q177 351 172.5 375 Q168 399 158 417.5 Q148 436 132.5 447 Q117 458 95 458 Q87 458 82 458 Q77 458 72 457 L70 511 Q79 512 90 512 Q101 512 112 512 Q157 512 183 493 Q209 474 221.5 444.5 Q234 415 237 380.5 Q240 346 240 315 L240 0 L35 0 Z " />
<glyph glyph-name="_22" unicode="&#xdbad;" horiz-adv-x="543" d="M503 255 Q503 200 488.5 151.5 Q474 103 445.5 66.5 Q417 30 375.5 9 Q334 -12 280 -12 Q226 -12 185.5 9 Q145 30 118 66.5 Q91 103 78 151.5 Q65 200 65 255 L65 464 Q88 476 116 486.5 Q144 497 173 505 Q202 513 229.5 517.5 Q257 522 280 522 Q335 522 376.5 502 Q418 482 446 447 Q474 412 488.5 362.5 Q503 313 503 255 Z M434 255 Q434 295 425.5 334.5 Q417 374 399 405 Q381 436 351.5 455 Q322 474 280 474 Q244 474 210 463.5 Q176 453 134 431 L134 265 Q134 227 139.5 187 Q145 147 160.5 113 Q176 79 204.5 57.5 Q233 36 280 36 Q326 36 356 56 Q386 76 403 108 Q420 140 427 178.5 Q434 217 434 255 Z " />
<glyph glyph-name="_23" unicode="&#xdbae;" horiz-adv-x="508" d="M384 -208 L384 258 Q384 306 370 345.5 Q356 385 330.5 413.5 Q305 442 270 457.5 Q235 473 194 473 Q177 473 164.5 472.5 Q152 472 142 471 Q132 470 123 469 Q114 468 104 467 L104 282 L198 282 L198 239 L50 239 L50 508 Q60 511 76.5 513 Q93 515 113 516.5 Q133 518 154 519 Q175 520 194 520 Q252 520 299 501.5 Q346 483 379 448.5 Q412 414 430 365 Q448 316 448 256 L448 -208 L384 -208 Z " />
<glyph glyph-name="_24" unicode="&#xdbaf;" horiz-adv-x="499" d="M459 252 Q459 193 440 144.5 Q421 96 387 61.5 Q353 27 306 8 Q259 -11 204 -11 Q153 -11 121.5 -6.5 Q90 -2 66 3 L70 57 Q86 50 122 43.5 Q158 37 200 37 Q246 37 282 53.5 Q318 70 343 99.5 Q368 129 381 168.5 Q394 208 394 254 Q394 302 380 342.5 Q366 383 340.5 411.5 Q315 440 280 456 Q245 472 204 472 Q173 472 153.5 470.5 Q134 469 114 467 L114 282 L208 282 L208 239 L60 239 L60 508 Q82 512 100 514.5 Q118 517 135 518 Q152 519 168.5 519.5 Q185 520 204 520 Q262 520 309 501 Q356 482 389.5 447.5 Q423 413 441 363 Q459 313 459 252 Z " />
<glyph glyph-name="_25" unicode="&#xdbb0;" horiz-adv-x="475" d="M437 510 Q438 501 438 492 Q438 483 438 475 Q438 410 424.5 363.5 Q411 317 391.5 284 Q372 251 349 230 Q326 209 308 196 L437 0 L33 0 L33 48 L329 48 L25 510 L102 510 L277 244 Q287 251 303.5 264.5 Q320 278 335 307 Q350 336 360.5 384.5 Q371 433 369 510 L437 510 Z " />
<glyph glyph-name="_26" unicode="&#xdbb1;" horiz-adv-x="544" d="M475 229 Q473 211 468.5 187.5 Q464 164 455 140 Q446 116 432.5 93 Q419 70 399 53 Q367 26 330 18.5 Q293 11 260 10 L260 57 Q275 58 297 61 Q319 64 336 74 Q357 87 371 105.5 Q385 124 393.5 144 Q402 164 406 184 Q410 204 412 221 L432 462 L55 462 L55 510 L499 510 L475 229 Z M67 -209 L67 284 L130 305 L130 -209 L67 -209 Z " />
<glyph glyph-name="_27" unicode="&#xdbb2;" horiz-adv-x="481" d="M348 0 L348 316 Q348 392 316.5 433 Q285 474 207 474 Q189 474 168 471 Q147 468 125 462.5 Q103 457 82 449.5 Q61 442 43 432 L40 478 Q58 487 80 495 Q102 503 126 509 Q150 515 174.5 518.5 Q199 522 222 522 Q324 522 367.5 470.5 Q411 419 411 314 L411 0 L348 0 Z " />
<glyph glyph-name="_28" unicode="&#xdbb3;" horiz-adv-x="643" d="M145 156 Q153 132 167 110 Q181 88 203 71.5 Q225 55 255 45.5 Q285 36 326 36 Q381 36 418.5 56 Q456 76 478 106 Q500 136 509.5 169.5 Q519 203 519 230 L519 510 L583 510 L583 230 Q583 196 570.5 154 Q558 112 528.5 75 Q499 38 449.5 13 Q400 -12 326 -12 Q252 -12 202.5 10.5 Q153 33 123.5 68.5 Q94 104 82 146.5 Q70 189 70 230 L70 510 L134 510 L134 230 Q134 222 134 213.5 Q134 205 136 197 Q139 197 147.5 198 Q156 199 168 201.5 Q180 204 195 209 Q210 214 225 223 Q244 233 257.5 250 Q271 267 279 286.5 Q287 306 291 327.5 Q295 349 295 368 L295 510 L358 510 L358 359 Q358 336 352.5 313.5 Q347 291 336.5 270 Q326 249 312 232 Q298 215 281 203 Q244 178 212.5 169.5 Q181 161 151 156 L145 156 Z " />
<glyph glyph-name="_29" unicode="&#xdbb4;" horiz-adv-x="569" d="M446 0 L446 316 Q446 392 414.5 433 Q383 474 305 474 Q284 474 260.5 472.5 Q237 471 205 466 L205 214 Q205 196 204.5 173 Q204 150 200.5 126 Q197 102 189.5 78.5 Q182 55 167.5 37 Q153 19 131 8 Q109 -3 77 -3 Q66 -3 55 -2.5 Q44 -2 35 -1 L37 49 Q42 48 47 48 Q52 48 60 48 Q85 48 101 58.5 Q117 69 126 87 Q135 105 138.5 128.5 Q142 152 142 179 L142 452 Q125 446 113 441.5 Q101 437 92 432 L92 480 Q126 499 184 510.5 Q242 522 320 522 Q422 522 465.5 470.5 Q509 419 509 314 L509 0 L446 0 Z " />
<glyph glyph-name="_30" unicode="&#xdbb5;" horiz-adv-x="458" d="M389 220 Q387 201 382.5 177.5 Q378 154 369 129.5 Q360 105 346.5 82.5 Q333 60 313 43 Q281 16 244 8.5 Q207 1 174 0 L174 48 Q192 48 213 51.5 Q234 55 251 65 Q272 78 286 96 Q300 114 308 134 Q316 154 320 174 Q324 194 326 211 L347 462 L40 462 L40 700 L103 700 L103 510 L414 510 L389 220 Z M-2 624 Q-2 610 -11.5 600 Q-21 590 -36 590 Q-50 590 -60 600 Q-70 610 -70 624 Q-70 639 -60 648.5 Q-50 658 -36 658 Q-21 658 -11.5 648.5 Q-2 639 -2 624 Z " />
<glyph glyph-name="_31" unicode="&#xdbb6;" horiz-adv-x="653" d="M145 156 Q153 132 167 110 Q181 88 203 71.5 Q225 55 255 45.5 Q285 36 326 36 Q381 36 418.5 56 Q456 76 478 106 Q500 136 509.5 169.5 Q519 203 519 230 L519 510 L583 510 L583 230 Q583 196 570.5 154 Q558 112 528.5 75 Q499 38 449.5 13 Q400 -12 326 -12 Q252 -12 202.5 10.5 Q153 33 123.5 68.5 Q94 104 82 146.5 Q70 189 70 230 L70 510 L134 510 L134 230 Q134 222 134 213.5 Q134 205 136 197 Q139 197 147.5 198 Q156 199 168 201.5 Q180 204 195 209 Q210 214 225 223 Q244 233 257.5 250 Q271 267 279 286.5 Q287 306 291 327.5 Q295 349 295 368 L295 510 L358 510 L358 359 Q358 336 352.5 313.5 Q347 291 336.5 270 Q326 249 312 232 Q298 215 281 203 Q244 178 212.5 169.5 Q181 161 151 156 L145 156 Z M553 626 Q553 612 543.5 602 Q534 592 519 592 Q505 592 495 602 Q485 612 485 626 Q485 641 495 650.5 Q505 660 519 660 Q534 660 543.5 650.5 Q553 641 553 626 Z " />
<glyph glyph-name="_32" unicode="&#xdbb7;" horiz-adv-x="653" d="M145 156 Q153 132 167 110 Q181 88 203 71.5 Q225 55 255 45.5 Q285 36 326 36 Q381 36 418.5 56 Q456 76 478 106 Q500 136 509.5 169.5 Q519 203 519 230 L519 510 L583 510 L583 230 Q583 196 570.5 154 Q558 112 528.5 75 Q499 38 449.5 13 Q400 -12 326 -12 Q252 -12 202.5 10.5 Q153 33 123.5 68.5 Q94 104 82 146.5 Q70 189 70 230 L70 510 L134 510 L134 230 Q134 222 134 213.5 Q134 205 136 197 Q139 197 147.5 198 Q156 199 168 201.5 Q180 204 195 209 Q210 214 225 223 Q244 233 257.5 250 Q271 267 279 286.5 Q287 306 291 327.5 Q295 349 295 368 L295 510 L358 510 L358 359 Q358 336 352.5 313.5 Q347 291 336.5 270 Q326 249 312 232 Q298 215 281 203 Q244 178 212.5 169.5 Q181 161 151 156 L145 156 Z M166 626 Q166 612 156.5 602 Q147 592 132 592 Q118 592 108 602 Q98 612 98 626 Q98 641 108 650.5 Q118 660 132 660 Q147 660 156.5 650.5 Q166 641 166 626 Z " />
<glyph glyph-name="filledbox" unicode="&#x25a0;" horiz-adv-x="448" d="M19 499 L429 499 L429 92 L19 92 L19 499 Z " />
<glyph glyph-name="onethird" unicode="&#x2153;" horiz-adv-x="628" d="M202 -14 L167 -14 L400 594 L435 594 L202 -14 Z M587 89 Q587 69 579.5 52 Q572 35 558.5 22.5 Q545 10 525.5 3 Q506 -4 482 -4 Q448 -4 422.5 9.5 Q397 23 373 57 L401 75 Q422 45 441 33.5 Q460 22 483 22 Q512 22 531.5 39 Q551 56 551 86 Q551 156 464 156 L449 156 L449 183 L465 183 Q503 183 522.5 197.5 Q542 212 542 243 Q542 270 525.5 284 Q509 298 482 298 Q463 298 447 289 Q431 280 413 257 L386 275 Q407 301 431 313 Q455 325 484 325 Q506 325 523.5 319 Q541 313 553 302.5 Q565 292 572 277 Q579 262 579 245 Q579 223 567.5 203.5 Q556 184 524 170 Q542 165 554 156.5 Q566 148 573.5 137.5 Q581 127 584 114.5 Q587 102 587 89 Z M138 250 L138 540 L74 508 L74 537 L150 573 L176 573 L176 250 L138 250 Z " />
<glyph glyph-name="uni2070" unicode="&#x2070;" horiz-adv-x="276" d="M248 464 Q248 385 220 342 Q192 299 138 299 Q83 299 55 341.5 Q27 384 27 463 Q27 542 55 585 Q83 628 138 628 Q193 628 220.5 585.5 Q248 543 248 464 Z M211 467 Q211 534 192.5 567.5 Q174 601 139 601 Q103 601 83 565.5 Q63 530 63 461 Q63 394 82.5 359.5 Q102 325 137 325 Q211 325 211 467 Z " />
<glyph glyph-name="uni2074" unicode="&#x2074;" horiz-adv-x="276" d="M210 378 L210 298 L172 298 L172 378 L30 378 L30 402 L157 623 L210 623 L210 405 L263 405 L263 378 L210 378 Z M172 591 L65 405 L172 405 L172 591 Z " />
<glyph glyph-name="uni2075" unicode="&#x2075;" horiz-adv-x="276" d="M241 412 Q241 361 211.5 329.5 Q182 298 131 298 Q67 298 34 357 L63 373 Q80 346 96 335 Q112 324 135 324 Q166 324 185.5 347.5 Q205 371 205 413 Q205 451 186.5 470.5 Q168 490 139 490 Q119 490 102 479 Q85 468 74 447 L42 453 L54 623 L219 623 L219 595 L87 595 L80 496 Q98 509 113.5 513 Q129 517 143 517 Q188 517 214.5 487 Q241 457 241 412 Z " />
<glyph glyph-name="uni2076" unicode="&#x2076;" horiz-adv-x="276" d="M245 406 Q245 360 216 329.5 Q187 299 139 299 Q88 299 59 336 Q30 373 30 436 Q30 527 65 577.5 Q100 628 165 628 Q182 628 196.5 624 Q211 620 236 608 L220 583 Q200 594 188.5 597.5 Q177 601 165 601 Q141 601 124 590 Q107 579 95.5 561 Q84 543 77 519 Q70 495 65 470 Q93 492 110 499 Q127 506 146 506 Q191 506 218 477.5 Q245 449 245 406 Z M209 407 Q209 441 190.5 460.5 Q172 480 143 480 Q115 480 95.5 461 Q76 442 65 422 Q69 373 88.5 349 Q108 325 140 325 Q171 325 190 347 Q209 369 209 407 Z " />
<glyph glyph-name="uni2077" unicode="&#x2077;" horiz-adv-x="276" d="M122 302 L80 302 L209 595 L51 595 L51 623 L251 623 L251 604 L122 302 Z " />
<glyph glyph-name="uni2078" unicode="&#x2078;" horiz-adv-x="276" d="M250 388 Q250 349 219.5 324 Q189 299 137 299 Q84 299 54.5 323 Q25 347 25 387 Q25 412 41 432 Q57 452 99 473 Q62 496 49.5 512.5 Q37 529 37 551 Q37 584 65.5 606 Q94 628 140 628 Q185 628 212 606 Q239 584 239 552 Q239 529 226 512 Q213 495 175 473 Q219 451 234.5 432 Q250 413 250 388 Z M203 548 Q203 574 185.5 587.5 Q168 601 139 601 Q111 601 92 587 Q73 573 73 550 Q73 534 79.5 524.5 Q86 515 97 508 L118 496 L141 486 Q176 500 189.5 513.5 Q203 527 203 548 Z M215 386 Q215 421 179 440 Q170 445 160.5 448.5 Q151 452 131 461 Q93 445 77 428.5 Q61 412 61 386 Q61 358 83 341.5 Q105 325 139 325 Q171 325 193 341 Q215 357 215 386 Z " />
<glyph glyph-name="uni2079" unicode="&#x2079;" horiz-adv-x="276" d="M245 490 Q245 400 210.5 349.5 Q176 299 110 299 Q93 299 78.5 302.5 Q64 306 39 320 L56 344 Q76 332 87 328.5 Q98 325 110 325 Q134 325 151 336 Q168 347 179.5 365.5 Q191 384 197.5 407.5 Q204 431 209 456 Q183 435 165.5 428.5 Q148 422 129 422 Q84 422 57 450 Q30 478 30 521 Q30 566 59 597 Q88 628 136 628 Q188 628 216.5 590.5 Q245 553 245 490 Z M210 506 Q206 555 187 578 Q168 601 136 601 Q105 601 85 579.5 Q65 558 65 519 Q65 485 84.5 466.5 Q104 448 133 448 Q160 448 179.5 467 Q199 486 210 506 Z " />
<glyph glyph-name="uni207D" unicode="&#x207d;" horiz-adv-x="276" d="M161 256 Q131 304 111 353.5 Q91 403 91 460 Q91 517 111 566 Q131 615 161 663 L185 663 Q160 616 140 565.5 Q120 515 120 460 Q120 404 139.5 353 Q159 302 185 256 L161 256 Z " />
<glyph glyph-name="uni207E" unicode="&#x207e;" horiz-adv-x="276" d="M185 460 Q185 403 164.5 353.5 Q144 304 114 256 L91 256 Q117 303 136 353.5 Q155 404 155 460 Q155 515 135 565.5 Q115 616 91 663 L114 663 Q144 615 164.5 566 Q185 517 185 460 Z " />
<glyph glyph-name="infinity" unicode="&#x221e;" horiz-adv-x="754" d="M377 306 Q403 338 423.5 359.5 Q444 381 458 391 Q498 420 540 420 Q592 420 636 383 Q681 345 681 263 Q681 205 664 172 Q647 139 612 119 Q577 99 540 99 Q496 99 458 127 Q431 147 377 213 Q323 147 296 127 Q258 99 214 99 Q177 99 142 119 Q107 139 90 172 Q73 206 73 263 Q73 345 118 383 Q162 420 214 420 Q256 420 296 391 Q310 381 330.5 359.5 Q351 338 377 306 Z M489 170 Q511 154 539 154 Q576 154 601 180.5 Q626 207 626 258 Q626 310 600.5 337.5 Q575 365 537 365 Q514 365 492 351 Q463 331 411 260 L489 170 Z M343 260 Q291 331 262 351 Q240 365 217 365 Q179 365 153.5 337.5 Q128 310 128 258 Q128 207 153 180.5 Q178 154 215 154 Q243 154 265 170 L343 260 Z " />
</font>
</svg>
